<?xml version="1.0" standalone="no"?>
 <!DOCTYPE svg PUBLIC "-//W3C//DTD SVG 1.1//EN" 
 "http://www.w3.org/Graphics/SVG/1.1/DTD/svg11.dtd"> 
<svg
  xmlns:svg="http://www.w3.org/2000/svg"
  xmlns="http://www.w3.org/2000/svg"
  xmlns:xlink="http://www.w3.org/1999/xlink"
  version="1.1"
  width="297.0022mm" height="210.0072mm" viewBox="0.0000 0.0000 297.0022 210.0072">
<title>SVG Image created as board_top_view.svg date 2026/03/09 09:40:43 </title>
  <desc>Image generated by PCBNEW </desc>
<g style="fill:#000000; fill-opacity:1.0000;stroke:#000000; stroke-opacity:1.0000;
stroke-linecap:round; stroke-linejoin:round;"
 transform="translate(0 0) scale(1 1)">
</g>
<g style="fill:none; 
stroke:#C872AB; stroke-width:0.1500; stroke-opacity:1; 
stroke-linecap:round; stroke-linejoin:round;">
<path d="M177.0022 166.0072
L285.0022 166.0072
L285.0022 198.0072
L177.0022 198.0072
L177.0022 166.0072
" />
</g>
<g style="fill:none; 
stroke:#C872AB; stroke-width:0.1500; stroke-opacity:1; 
stroke-linecap:round; stroke-linejoin:round;">
<path d="M10.0000 10.0000
L287.0022 10.0000
L287.0022 200.0072
L10.0000 200.0072
L10.0000 10.0000
" />
</g>
<g style="fill:none; 
stroke:#C872AB; stroke-width:0.1500; stroke-opacity:1; 
stroke-linecap:round; stroke-linejoin:round;">
<path d="M12.0000 12.0000
L285.0022 12.0000
L285.0022 198.0072
L12.0000 198.0072
L12.0000 12.0000
" />
</g>
<g style="fill:none; 
stroke:#C872AB; stroke-width:0.1500; stroke-opacity:1; 
stroke-linecap:round; stroke-linejoin:round;">
<path d="M60.0000 12.0000
L60.0000 10.0000
" />
</g>
<g style="fill:none; 
stroke:#C872AB; stroke-width:0.1500; stroke-opacity:1; 
stroke-linecap:round; stroke-linejoin:round;">
<path d="M110.0000 12.0000
L110.0000 10.0000
" />
</g>
<g style="fill:none; 
stroke:#C872AB; stroke-width:0.1500; stroke-opacity:1; 
stroke-linecap:round; stroke-linejoin:round;">
<path d="M160.0000 12.0000
L160.0000 10.0000
" />
</g>
<g style="fill:none; 
stroke:#C872AB; stroke-width:0.1500; stroke-opacity:1; 
stroke-linecap:round; stroke-linejoin:round;">
<path d="M210.0000 12.0000
L210.0000 10.0000
" />
</g>
<g style="fill:none; 
stroke:#C872AB; stroke-width:0.1500; stroke-opacity:1; 
stroke-linecap:round; stroke-linejoin:round;">
<path d="M260.0000 12.0000
L260.0000 10.0000
" />
</g>
<g style="fill:none; 
stroke:#C872AB; stroke-width:0.1500; stroke-opacity:1; 
stroke-linecap:round; stroke-linejoin:round;">
<text x="35.0000" y="11.6500"
textLength="1.4281" font-size="1.7333" lengthAdjust="spacingAndGlyphs"
text-anchor="start" opacity="0" stroke-opacity="0">1</text>
<g class="stroked-text"><desc>1</desc>
<path d="M36.0892 11.5936
L35.3463 11.5936
" />
<path d="M35.7177 11.5936
L35.7177 10.2936
" />
<path d="M35.7177 10.2936
L35.5939 10.4793
" />
<path d="M35.5939 10.4793
L35.4701 10.6031
" />
<path d="M35.4701 10.6031
L35.3463 10.6650
" />
</g></g>
<g style="fill:none; 
stroke:#C872AB; stroke-width:0.1500; stroke-opacity:1; 
stroke-linecap:round; stroke-linejoin:round;">
<text x="85.0000" y="11.6500"
textLength="1.4281" font-size="1.7333" lengthAdjust="spacingAndGlyphs"
text-anchor="start" opacity="0" stroke-opacity="0">2</text>
<g class="stroked-text"><desc>2</desc>
<path d="M85.3463 10.4174
L85.4082 10.3555
" />
<path d="M85.4082 10.3555
L85.5320 10.2936
" />
<path d="M85.5320 10.2936
L85.8415 10.2936
" />
<path d="M85.8415 10.2936
L85.9654 10.3555
" />
<path d="M85.9654 10.3555
L86.0273 10.4174
" />
<path d="M86.0273 10.4174
L86.0892 10.5412
" />
<path d="M86.0892 10.5412
L86.0892 10.6650
" />
<path d="M86.0892 10.6650
L86.0273 10.8507
" />
<path d="M86.0273 10.8507
L85.2844 11.5936
" />
<path d="M85.2844 11.5936
L86.0892 11.5936
" />
</g></g>
<g style="fill:none; 
stroke:#C872AB; stroke-width:0.1500; stroke-opacity:1; 
stroke-linecap:round; stroke-linejoin:round;">
<text x="135.0000" y="11.6500"
textLength="1.4281" font-size="1.7333" lengthAdjust="spacingAndGlyphs"
text-anchor="start" opacity="0" stroke-opacity="0">3</text>
<g class="stroked-text"><desc>3</desc>
<path d="M135.2844 10.2936
L136.0892 10.2936
" />
<path d="M136.0892 10.2936
L135.6558 10.7888
" />
<path d="M135.6558 10.7888
L135.8415 10.7888
" />
<path d="M135.8415 10.7888
L135.9654 10.8507
" />
<path d="M135.9654 10.8507
L136.0273 10.9127
" />
<path d="M136.0273 10.9127
L136.0892 11.0365
" />
<path d="M136.0892 11.0365
L136.0892 11.3460
" />
<path d="M136.0892 11.3460
L136.0273 11.4698
" />
<path d="M136.0273 11.4698
L135.9654 11.5317
" />
<path d="M135.9654 11.5317
L135.8415 11.5936
" />
<path d="M135.8415 11.5936
L135.4701 11.5936
" />
<path d="M135.4701 11.5936
L135.3463 11.5317
" />
<path d="M135.3463 11.5317
L135.2844 11.4698
" />
</g></g>
<g style="fill:none; 
stroke:#C872AB; stroke-width:0.1500; stroke-opacity:1; 
stroke-linecap:round; stroke-linejoin:round;">
<text x="185.0000" y="11.6500"
textLength="1.4281" font-size="1.7333" lengthAdjust="spacingAndGlyphs"
text-anchor="start" opacity="0" stroke-opacity="0">4</text>
<g class="stroked-text"><desc>4</desc>
<path d="M185.9654 10.7269
L185.9654 11.5936
" />
<path d="M185.6558 10.2317
L185.3463 11.1603
" />
<path d="M185.3463 11.1603
L186.1511 11.1603
" />
</g></g>
<g style="fill:none; 
stroke:#C872AB; stroke-width:0.1500; stroke-opacity:1; 
stroke-linecap:round; stroke-linejoin:round;">
<text x="235.0000" y="11.6500"
textLength="1.4281" font-size="1.7333" lengthAdjust="spacingAndGlyphs"
text-anchor="start" opacity="0" stroke-opacity="0">5</text>
<g class="stroked-text"><desc>5</desc>
<path d="M236.0273 10.2936
L235.4082 10.2936
" />
<path d="M235.4082 10.2936
L235.3463 10.9127
" />
<path d="M235.3463 10.9127
L235.4082 10.8507
" />
<path d="M235.4082 10.8507
L235.5320 10.7888
" />
<path d="M235.5320 10.7888
L235.8415 10.7888
" />
<path d="M235.8415 10.7888
L235.9654 10.8507
" />
<path d="M235.9654 10.8507
L236.0273 10.9127
" />
<path d="M236.0273 10.9127
L236.0892 11.0365
" />
<path d="M236.0892 11.0365
L236.0892 11.3460
" />
<path d="M236.0892 11.3460
L236.0273 11.4698
" />
<path d="M236.0273 11.4698
L235.9654 11.5317
" />
<path d="M235.9654 11.5317
L235.8415 11.5936
" />
<path d="M235.8415 11.5936
L235.5320 11.5936
" />
<path d="M235.5320 11.5936
L235.4082 11.5317
" />
<path d="M235.4082 11.5317
L235.3463 11.4698
" />
</g></g>
<g style="fill:none; 
stroke:#C872AB; stroke-width:0.1500; stroke-opacity:1; 
stroke-linecap:round; stroke-linejoin:round;">
<text x="285.0000" y="11.6500"
textLength="1.4281" font-size="1.7333" lengthAdjust="spacingAndGlyphs"
text-anchor="start" opacity="0" stroke-opacity="0">6</text>
<g class="stroked-text"><desc>6</desc>
<path d="M285.9654 10.2936
L285.7177 10.2936
" />
<path d="M285.7177 10.2936
L285.5939 10.3555
" />
<path d="M285.5939 10.3555
L285.5320 10.4174
" />
<path d="M285.5320 10.4174
L285.4082 10.6031
" />
<path d="M285.4082 10.6031
L285.3463 10.8507
" />
<path d="M285.3463 10.8507
L285.3463 11.3460
" />
<path d="M285.3463 11.3460
L285.4082 11.4698
" />
<path d="M285.4082 11.4698
L285.4701 11.5317
" />
<path d="M285.4701 11.5317
L285.5939 11.5936
" />
<path d="M285.5939 11.5936
L285.8415 11.5936
" />
<path d="M285.8415 11.5936
L285.9654 11.5317
" />
<path d="M285.9654 11.5317
L286.0273 11.4698
" />
<path d="M286.0273 11.4698
L286.0892 11.3460
" />
<path d="M286.0892 11.3460
L286.0892 11.0365
" />
<path d="M286.0892 11.0365
L286.0273 10.9127
" />
<path d="M286.0273 10.9127
L285.9654 10.8507
" />
<path d="M285.9654 10.8507
L285.8415 10.7888
" />
<path d="M285.8415 10.7888
L285.5939 10.7888
" />
<path d="M285.5939 10.7888
L285.4701 10.8507
" />
<path d="M285.4701 10.8507
L285.4082 10.9127
" />
<path d="M285.4082 10.9127
L285.3463 11.0365
" />
</g></g>
<g style="fill:none; 
stroke:#C872AB; stroke-width:0.1500; stroke-opacity:1; 
stroke-linecap:round; stroke-linejoin:round;">
<path d="M60.0000 198.0072
L60.0000 200.0072
" />
</g>
<g style="fill:none; 
stroke:#C872AB; stroke-width:0.1500; stroke-opacity:1; 
stroke-linecap:round; stroke-linejoin:round;">
<path d="M110.0000 198.0072
L110.0000 200.0072
" />
</g>
<g style="fill:none; 
stroke:#C872AB; stroke-width:0.1500; stroke-opacity:1; 
stroke-linecap:round; stroke-linejoin:round;">
<path d="M160.0000 198.0072
L160.0000 200.0072
" />
</g>
<g style="fill:none; 
stroke:#C872AB; stroke-width:0.1500; stroke-opacity:1; 
stroke-linecap:round; stroke-linejoin:round;">
<path d="M210.0000 198.0072
L210.0000 200.0072
" />
</g>
<g style="fill:none; 
stroke:#C872AB; stroke-width:0.1500; stroke-opacity:1; 
stroke-linecap:round; stroke-linejoin:round;">
<path d="M260.0000 198.0072
L260.0000 200.0072
" />
</g>
<g style="fill:none; 
stroke:#C872AB; stroke-width:0.1500; stroke-opacity:1; 
stroke-linecap:round; stroke-linejoin:round;">
<text x="35.0000" y="199.6572"
textLength="1.4281" font-size="1.7333" lengthAdjust="spacingAndGlyphs"
text-anchor="start" opacity="0" stroke-opacity="0">1</text>
<g class="stroked-text"><desc>1</desc>
<path d="M36.0892 199.6008
L35.3463 199.6008
" />
<path d="M35.7177 199.6008
L35.7177 198.3008
" />
<path d="M35.7177 198.3008
L35.5939 198.4865
" />
<path d="M35.5939 198.4865
L35.4701 198.6103
" />
<path d="M35.4701 198.6103
L35.3463 198.6722
" />
</g></g>
<g style="fill:none; 
stroke:#C872AB; stroke-width:0.1500; stroke-opacity:1; 
stroke-linecap:round; stroke-linejoin:round;">
<text x="85.0000" y="199.6572"
textLength="1.4281" font-size="1.7333" lengthAdjust="spacingAndGlyphs"
text-anchor="start" opacity="0" stroke-opacity="0">2</text>
<g class="stroked-text"><desc>2</desc>
<path d="M85.3463 198.4246
L85.4082 198.3627
" />
<path d="M85.4082 198.3627
L85.5320 198.3008
" />
<path d="M85.5320 198.3008
L85.8415 198.3008
" />
<path d="M85.8415 198.3008
L85.9654 198.3627
" />
<path d="M85.9654 198.3627
L86.0273 198.4246
" />
<path d="M86.0273 198.4246
L86.0892 198.5484
" />
<path d="M86.0892 198.5484
L86.0892 198.6722
" />
<path d="M86.0892 198.6722
L86.0273 198.8579
" />
<path d="M86.0273 198.8579
L85.2844 199.6008
" />
<path d="M85.2844 199.6008
L86.0892 199.6008
" />
</g></g>
<g style="fill:none; 
stroke:#C872AB; stroke-width:0.1500; stroke-opacity:1; 
stroke-linecap:round; stroke-linejoin:round;">
<text x="135.0000" y="199.6572"
textLength="1.4281" font-size="1.7333" lengthAdjust="spacingAndGlyphs"
text-anchor="start" opacity="0" stroke-opacity="0">3</text>
<g class="stroked-text"><desc>3</desc>
<path d="M135.2844 198.3008
L136.0892 198.3008
" />
<path d="M136.0892 198.3008
L135.6558 198.7960
" />
<path d="M135.6558 198.7960
L135.8415 198.7960
" />
<path d="M135.8415 198.7960
L135.9654 198.8579
" />
<path d="M135.9654 198.8579
L136.0273 198.9199
" />
<path d="M136.0273 198.9199
L136.0892 199.0437
" />
<path d="M136.0892 199.0437
L136.0892 199.3532
" />
<path d="M136.0892 199.3532
L136.0273 199.4770
" />
<path d="M136.0273 199.4770
L135.9654 199.5389
" />
<path d="M135.9654 199.5389
L135.8415 199.6008
" />
<path d="M135.8415 199.6008
L135.4701 199.6008
" />
<path d="M135.4701 199.6008
L135.3463 199.5389
" />
<path d="M135.3463 199.5389
L135.2844 199.4770
" />
</g></g>
<g style="fill:none; 
stroke:#C872AB; stroke-width:0.1500; stroke-opacity:1; 
stroke-linecap:round; stroke-linejoin:round;">
<text x="185.0000" y="199.6572"
textLength="1.4281" font-size="1.7333" lengthAdjust="spacingAndGlyphs"
text-anchor="start" opacity="0" stroke-opacity="0">4</text>
<g class="stroked-text"><desc>4</desc>
<path d="M185.9654 198.7341
L185.9654 199.6008
" />
<path d="M185.6558 198.2389
L185.3463 199.1675
" />
<path d="M185.3463 199.1675
L186.1511 199.1675
" />
</g></g>
<g style="fill:none; 
stroke:#C872AB; stroke-width:0.1500; stroke-opacity:1; 
stroke-linecap:round; stroke-linejoin:round;">
<text x="235.0000" y="199.6572"
textLength="1.4281" font-size="1.7333" lengthAdjust="spacingAndGlyphs"
text-anchor="start" opacity="0" stroke-opacity="0">5</text>
<g class="stroked-text"><desc>5</desc>
<path d="M236.0273 198.3008
L235.4082 198.3008
" />
<path d="M235.4082 198.3008
L235.3463 198.9199
" />
<path d="M235.3463 198.9199
L235.4082 198.8579
" />
<path d="M235.4082 198.8579
L235.5320 198.7960
" />
<path d="M235.5320 198.7960
L235.8415 198.7960
" />
<path d="M235.8415 198.7960
L235.9654 198.8579
" />
<path d="M235.9654 198.8579
L236.0273 198.9199
" />
<path d="M236.0273 198.9199
L236.0892 199.0437
" />
<path d="M236.0892 199.0437
L236.0892 199.3532
" />
<path d="M236.0892 199.3532
L236.0273 199.4770
" />
<path d="M236.0273 199.4770
L235.9654 199.5389
" />
<path d="M235.9654 199.5389
L235.8415 199.6008
" />
<path d="M235.8415 199.6008
L235.5320 199.6008
" />
<path d="M235.5320 199.6008
L235.4082 199.5389
" />
<path d="M235.4082 199.5389
L235.3463 199.4770
" />
</g></g>
<g style="fill:none; 
stroke:#C872AB; stroke-width:0.1500; stroke-opacity:1; 
stroke-linecap:round; stroke-linejoin:round;">
<text x="285.0000" y="199.6572"
textLength="1.4281" font-size="1.7333" lengthAdjust="spacingAndGlyphs"
text-anchor="start" opacity="0" stroke-opacity="0">6</text>
<g class="stroked-text"><desc>6</desc>
<path d="M285.9654 198.3008
L285.7177 198.3008
" />
<path d="M285.7177 198.3008
L285.5939 198.3627
" />
<path d="M285.5939 198.3627
L285.5320 198.4246
" />
<path d="M285.5320 198.4246
L285.4082 198.6103
" />
<path d="M285.4082 198.6103
L285.3463 198.8579
" />
<path d="M285.3463 198.8579
L285.3463 199.3532
" />
<path d="M285.3463 199.3532
L285.4082 199.4770
" />
<path d="M285.4082 199.4770
L285.4701 199.5389
" />
<path d="M285.4701 199.5389
L285.5939 199.6008
" />
<path d="M285.5939 199.6008
L285.8415 199.6008
" />
<path d="M285.8415 199.6008
L285.9654 199.5389
" />
<path d="M285.9654 199.5389
L286.0273 199.4770
" />
<path d="M286.0273 199.4770
L286.0892 199.3532
" />
<path d="M286.0892 199.3532
L286.0892 199.0437
" />
<path d="M286.0892 199.0437
L286.0273 198.9199
" />
<path d="M286.0273 198.9199
L285.9654 198.8579
" />
<path d="M285.9654 198.8579
L285.8415 198.7960
" />
<path d="M285.8415 198.7960
L285.5939 198.7960
" />
<path d="M285.5939 198.7960
L285.4701 198.8579
" />
<path d="M285.4701 198.8579
L285.4082 198.9199
" />
<path d="M285.4082 198.9199
L285.3463 199.0437
" />
</g></g>
<g style="fill:none; 
stroke:#C872AB; stroke-width:0.1500; stroke-opacity:1; 
stroke-linecap:round; stroke-linejoin:round;">
<path d="M10.0000 60.0000
L12.0000 60.0000
" />
</g>
<g style="fill:none; 
stroke:#C872AB; stroke-width:0.1500; stroke-opacity:1; 
stroke-linecap:round; stroke-linejoin:round;">
<path d="M10.0000 110.0000
L12.0000 110.0000
" />
</g>
<g style="fill:none; 
stroke:#C872AB; stroke-width:0.1500; stroke-opacity:1; 
stroke-linecap:round; stroke-linejoin:round;">
<path d="M10.0000 160.0000
L12.0000 160.0000
" />
</g>
<g style="fill:none; 
stroke:#C872AB; stroke-width:0.1500; stroke-opacity:1; 
stroke-linecap:round; stroke-linejoin:round;">
<text x="11.0000" y="35.6500"
textLength="1.3043" font-size="1.7333" lengthAdjust="spacingAndGlyphs"
text-anchor="middle" opacity="0" stroke-opacity="0">A</text>
<g class="stroked-text"><desc>A</desc>
<path d="M10.6905 35.2222
L11.3095 35.2222
" />
<path d="M10.5667 35.5936
L11.0000 34.2936
" />
<path d="M11.0000 34.2936
L11.4333 35.5936
" />
</g></g>
<g style="fill:none; 
stroke:#C872AB; stroke-width:0.1500; stroke-opacity:1; 
stroke-linecap:round; stroke-linejoin:round;">
<text x="11.0000" y="85.6500"
textLength="1.4900" font-size="1.7333" lengthAdjust="spacingAndGlyphs"
text-anchor="middle" opacity="0" stroke-opacity="0">B</text>
<g class="stroked-text"><desc>B</desc>
<path d="M11.0929 84.9127
L11.2786 84.9746
" />
<path d="M11.2786 84.9746
L11.3405 85.0365
" />
<path d="M11.3405 85.0365
L11.4024 85.1603
" />
<path d="M11.4024 85.1603
L11.4024 85.3460
" />
<path d="M11.4024 85.3460
L11.3405 85.4698
" />
<path d="M11.3405 85.4698
L11.2786 85.5317
" />
<path d="M11.2786 85.5317
L11.1548 85.5936
" />
<path d="M11.1548 85.5936
L10.6595 85.5936
" />
<path d="M10.6595 85.5936
L10.6595 84.2936
" />
<path d="M10.6595 84.2936
L11.0929 84.2936
" />
<path d="M11.0929 84.2936
L11.2167 84.3555
" />
<path d="M11.2167 84.3555
L11.2786 84.4174
" />
<path d="M11.2786 84.4174
L11.3405 84.5412
" />
<path d="M11.3405 84.5412
L11.3405 84.6650
" />
<path d="M11.3405 84.6650
L11.2786 84.7888
" />
<path d="M11.2786 84.7888
L11.2167 84.8507
" />
<path d="M11.2167 84.8507
L11.0929 84.9127
" />
<path d="M11.0929 84.9127
L10.6595 84.9127
" />
</g></g>
<g style="fill:none; 
stroke:#C872AB; stroke-width:0.1500; stroke-opacity:1; 
stroke-linecap:round; stroke-linejoin:round;">
<text x="11.0000" y="135.6500"
textLength="1.4900" font-size="1.7333" lengthAdjust="spacingAndGlyphs"
text-anchor="middle" opacity="0" stroke-opacity="0">C</text>
<g class="stroked-text"><desc>C</desc>
<path d="M11.4024 135.4698
L11.3405 135.5317
" />
<path d="M11.3405 135.5317
L11.1548 135.5936
" />
<path d="M11.1548 135.5936
L11.0310 135.5936
" />
<path d="M11.0310 135.5936
L10.8452 135.5317
" />
<path d="M10.8452 135.5317
L10.7214 135.4079
" />
<path d="M10.7214 135.4079
L10.6595 135.2841
" />
<path d="M10.6595 135.2841
L10.5976 135.0365
" />
<path d="M10.5976 135.0365
L10.5976 134.8507
" />
<path d="M10.5976 134.8507
L10.6595 134.6031
" />
<path d="M10.6595 134.6031
L10.7214 134.4793
" />
<path d="M10.7214 134.4793
L10.8452 134.3555
" />
<path d="M10.8452 134.3555
L11.0310 134.2936
" />
<path d="M11.0310 134.2936
L11.1548 134.2936
" />
<path d="M11.1548 134.2936
L11.3405 134.3555
" />
<path d="M11.3405 134.3555
L11.4024 134.4174
" />
</g></g>
<g style="fill:none; 
stroke:#C872AB; stroke-width:0.1500; stroke-opacity:1; 
stroke-linecap:round; stroke-linejoin:round;">
<text x="11.0000" y="185.6500"
textLength="1.4900" font-size="1.7333" lengthAdjust="spacingAndGlyphs"
text-anchor="middle" opacity="0" stroke-opacity="0">D</text>
<g class="stroked-text"><desc>D</desc>
<path d="M10.6595 185.5936
L10.6595 184.2936
" />
<path d="M10.6595 184.2936
L10.9690 184.2936
" />
<path d="M10.9690 184.2936
L11.1548 184.3555
" />
<path d="M11.1548 184.3555
L11.2786 184.4793
" />
<path d="M11.2786 184.4793
L11.3405 184.6031
" />
<path d="M11.3405 184.6031
L11.4024 184.8507
" />
<path d="M11.4024 184.8507
L11.4024 185.0365
" />
<path d="M11.4024 185.0365
L11.3405 185.2841
" />
<path d="M11.3405 185.2841
L11.2786 185.4079
" />
<path d="M11.2786 185.4079
L11.1548 185.5317
" />
<path d="M11.1548 185.5317
L10.9690 185.5936
" />
<path d="M10.9690 185.5936
L10.6595 185.5936
" />
</g></g>
<g style="fill:none; 
stroke:#C872AB; stroke-width:0.1500; stroke-opacity:1; 
stroke-linecap:round; stroke-linejoin:round;">
<path d="M287.0022 60.0000
L285.0022 60.0000
" />
</g>
<g style="fill:none; 
stroke:#C872AB; stroke-width:0.1500; stroke-opacity:1; 
stroke-linecap:round; stroke-linejoin:round;">
<path d="M287.0022 110.0000
L285.0022 110.0000
" />
</g>
<g style="fill:none; 
stroke:#C872AB; stroke-width:0.1500; stroke-opacity:1; 
stroke-linecap:round; stroke-linejoin:round;">
<path d="M287.0022 160.0000
L285.0022 160.0000
" />
</g>
<g style="fill:none; 
stroke:#C872AB; stroke-width:0.1500; stroke-opacity:1; 
stroke-linecap:round; stroke-linejoin:round;">
<text x="286.0022" y="35.6500"
textLength="1.3043" font-size="1.7333" lengthAdjust="spacingAndGlyphs"
text-anchor="middle" opacity="0" stroke-opacity="0">A</text>
<g class="stroked-text"><desc>A</desc>
<path d="M285.6927 35.2222
L286.3117 35.2222
" />
<path d="M285.5689 35.5936
L286.0022 34.2936
" />
<path d="M286.0022 34.2936
L286.4355 35.5936
" />
</g></g>
<g style="fill:none; 
stroke:#C872AB; stroke-width:0.1500; stroke-opacity:1; 
stroke-linecap:round; stroke-linejoin:round;">
<text x="286.0022" y="85.6500"
textLength="1.4900" font-size="1.7333" lengthAdjust="spacingAndGlyphs"
text-anchor="middle" opacity="0" stroke-opacity="0">B</text>
<g class="stroked-text"><desc>B</desc>
<path d="M286.0951 84.9127
L286.2808 84.9746
" />
<path d="M286.2808 84.9746
L286.3427 85.0365
" />
<path d="M286.3427 85.0365
L286.4046 85.1603
" />
<path d="M286.4046 85.1603
L286.4046 85.3460
" />
<path d="M286.4046 85.3460
L286.3427 85.4698
" />
<path d="M286.3427 85.4698
L286.2808 85.5317
" />
<path d="M286.2808 85.5317
L286.1570 85.5936
" />
<path d="M286.1570 85.5936
L285.6617 85.5936
" />
<path d="M285.6617 85.5936
L285.6617 84.2936
" />
<path d="M285.6617 84.2936
L286.0951 84.2936
" />
<path d="M286.0951 84.2936
L286.2189 84.3555
" />
<path d="M286.2189 84.3555
L286.2808 84.4174
" />
<path d="M286.2808 84.4174
L286.3427 84.5412
" />
<path d="M286.3427 84.5412
L286.3427 84.6650
" />
<path d="M286.3427 84.6650
L286.2808 84.7888
" />
<path d="M286.2808 84.7888
L286.2189 84.8507
" />
<path d="M286.2189 84.8507
L286.0951 84.9127
" />
<path d="M286.0951 84.9127
L285.6617 84.9127
" />
</g></g>
<g style="fill:none; 
stroke:#C872AB; stroke-width:0.1500; stroke-opacity:1; 
stroke-linecap:round; stroke-linejoin:round;">
<text x="286.0022" y="135.6500"
textLength="1.4900" font-size="1.7333" lengthAdjust="spacingAndGlyphs"
text-anchor="middle" opacity="0" stroke-opacity="0">C</text>
<g class="stroked-text"><desc>C</desc>
<path d="M286.4046 135.4698
L286.3427 135.5317
" />
<path d="M286.3427 135.5317
L286.1570 135.5936
" />
<path d="M286.1570 135.5936
L286.0332 135.5936
" />
<path d="M286.0332 135.5936
L285.8474 135.5317
" />
<path d="M285.8474 135.5317
L285.7236 135.4079
" />
<path d="M285.7236 135.4079
L285.6617 135.2841
" />
<path d="M285.6617 135.2841
L285.5998 135.0365
" />
<path d="M285.5998 135.0365
L285.5998 134.8507
" />
<path d="M285.5998 134.8507
L285.6617 134.6031
" />
<path d="M285.6617 134.6031
L285.7236 134.4793
" />
<path d="M285.7236 134.4793
L285.8474 134.3555
" />
<path d="M285.8474 134.3555
L286.0332 134.2936
" />
<path d="M286.0332 134.2936
L286.1570 134.2936
" />
<path d="M286.1570 134.2936
L286.3427 134.3555
" />
<path d="M286.3427 134.3555
L286.4046 134.4174
" />
</g></g>
<g style="fill:none; 
stroke:#C872AB; stroke-width:0.1500; stroke-opacity:1; 
stroke-linecap:round; stroke-linejoin:round;">
<text x="286.0022" y="185.6500"
textLength="1.4900" font-size="1.7333" lengthAdjust="spacingAndGlyphs"
text-anchor="middle" opacity="0" stroke-opacity="0">D</text>
<g class="stroked-text"><desc>D</desc>
<path d="M285.6617 185.5936
L285.6617 184.2936
" />
<path d="M285.6617 184.2936
L285.9712 184.2936
" />
<path d="M285.9712 184.2936
L286.1570 184.3555
" />
<path d="M286.1570 184.3555
L286.2808 184.4793
" />
<path d="M286.2808 184.4793
L286.3427 184.6031
" />
<path d="M286.3427 184.6031
L286.4046 184.8507
" />
<path d="M286.4046 184.8507
L286.4046 185.0365
" />
<path d="M286.4046 185.0365
L286.3427 185.2841
" />
<path d="M286.3427 185.2841
L286.2808 185.4079
" />
<path d="M286.2808 185.4079
L286.1570 185.5317
" />
<path d="M286.1570 185.5317
L285.9712 185.5936
" />
<path d="M285.9712 185.5936
L285.6617 185.5936
" />
</g></g>
<g style="fill:none; 
stroke:#C872AB; stroke-width:0.1500; stroke-opacity:1; 
stroke-linecap:round; stroke-linejoin:round;">
<text x="200.0022" y="193.8572"
textLength="7.0071" font-size="2.0000" lengthAdjust="spacingAndGlyphs"
text-anchor="start" opacity="0" stroke-opacity="0">Date: </text>
<g class="stroked-text"><desc>Date: </desc>
<path d="M200.4580 193.7933
L200.4580 192.2933
" />
<path d="M200.4580 192.2933
L200.8152 192.2933
" />
<path d="M200.8152 192.2933
L201.0295 192.3648
" />
<path d="M201.0295 192.3648
L201.1723 192.5076
" />
<path d="M201.1723 192.5076
L201.2437 192.6505
" />
<path d="M201.2437 192.6505
L201.3152 192.9362
" />
<path d="M201.3152 192.9362
L201.3152 193.1505
" />
<path d="M201.3152 193.1505
L201.2437 193.4362
" />
<path d="M201.2437 193.4362
L201.1723 193.5790
" />
<path d="M201.1723 193.5790
L201.0295 193.7219
" />
<path d="M201.0295 193.7219
L200.8152 193.7933
" />
<path d="M200.8152 193.7933
L200.4580 193.7933
" />
<path d="M202.6009 193.7933
L202.6009 193.0076
" />
<path d="M202.6009 193.0076
L202.5295 192.8648
" />
<path d="M202.5295 192.8648
L202.3866 192.7933
" />
<path d="M202.3866 192.7933
L202.1009 192.7933
" />
<path d="M202.1009 192.7933
L201.9580 192.8648
" />
<path d="M202.6009 193.7219
L202.4580 193.7933
" />
<path d="M202.4580 193.7933
L202.1009 193.7933
" />
<path d="M202.1009 193.7933
L201.9580 193.7219
" />
<path d="M201.9580 193.7219
L201.8866 193.5790
" />
<path d="M201.8866 193.5790
L201.8866 193.4362
" />
<path d="M201.8866 193.4362
L201.9580 193.2933
" />
<path d="M201.9580 193.2933
L202.1009 193.2219
" />
<path d="M202.1009 193.2219
L202.4580 193.2219
" />
<path d="M202.4580 193.2219
L202.6009 193.1505
" />
<path d="M203.1009 192.7933
L203.6723 192.7933
" />
<path d="M203.3152 192.2933
L203.3152 193.5790
" />
<path d="M203.3152 193.5790
L203.3866 193.7219
" />
<path d="M203.3866 193.7219
L203.5295 193.7933
" />
<path d="M203.5295 193.7933
L203.6723 193.7933
" />
<path d="M204.7437 193.7219
L204.6009 193.7933
" />
<path d="M204.6009 193.7933
L204.3152 193.7933
" />
<path d="M204.3152 193.7933
L204.1723 193.7219
" />
<path d="M204.1723 193.7219
L204.1009 193.5790
" />
<path d="M204.1009 193.5790
L204.1009 193.0076
" />
<path d="M204.1009 193.0076
L204.1723 192.8648
" />
<path d="M204.1723 192.8648
L204.3152 192.7933
" />
<path d="M204.3152 192.7933
L204.6009 192.7933
" />
<path d="M204.6009 192.7933
L204.7437 192.8648
" />
<path d="M204.7437 192.8648
L204.8152 193.0076
" />
<path d="M204.8152 193.0076
L204.8152 193.1505
" />
<path d="M204.8152 193.1505
L204.1009 193.2933
" />
<path d="M205.4580 193.6505
L205.5295 193.7219
" />
<path d="M205.5295 193.7219
L205.4580 193.7933
" />
<path d="M205.4580 193.7933
L205.3866 193.7219
" />
<path d="M205.3866 193.7219
L205.4580 193.6505
" />
<path d="M205.4580 193.6505
L205.4580 193.7933
" />
<path d="M205.4580 192.8648
L205.5295 192.9362
" />
<path d="M205.5295 192.9362
L205.4580 193.0076
" />
<path d="M205.4580 193.0076
L205.3866 192.9362
" />
<path d="M205.3866 192.9362
L205.4580 192.8648
" />
<path d="M205.4580 192.8648
L205.4580 193.0076
" />
</g></g>
<g style="fill:none; 
stroke:#C872AB; stroke-width:0.1500; stroke-opacity:1; 
stroke-linecap:round; stroke-linejoin:round;">
<path d="M177.0022 194.5072
L285.0022 194.5072
" />
</g>
<g style="fill:none; 
stroke:#C872AB; stroke-width:0.1500; stroke-opacity:1; 
stroke-linecap:round; stroke-linejoin:round;">
<text x="178.0022" y="196.6572"
textLength="20.8643" font-size="2.0000" lengthAdjust="spacingAndGlyphs"
text-anchor="start" opacity="0" stroke-opacity="0">KiCad E.D.A. 9.0.7</text>
<g class="stroked-text"><desc>KiCad E.D.A. 9.0.7</desc>
<path d="M178.4580 196.5933
L178.4580 195.0933
" />
<path d="M179.3152 196.5933
L178.6723 195.7362
" />
<path d="M179.3152 195.0933
L178.4580 195.9505
" />
<path d="M179.9580 196.5933
L179.9580 195.5933
" />
<path d="M179.9580 195.0933
L179.8866 195.1648
" />
<path d="M179.8866 195.1648
L179.9580 195.2362
" />
<path d="M179.9580 195.2362
L180.0295 195.1648
" />
<path d="M180.0295 195.1648
L179.9580 195.0933
" />
<path d="M179.9580 195.0933
L179.9580 195.2362
" />
<path d="M181.5295 196.4505
L181.4580 196.5219
" />
<path d="M181.4580 196.5219
L181.2437 196.5933
" />
<path d="M181.2437 196.5933
L181.1009 196.5933
" />
<path d="M181.1009 196.5933
L180.8866 196.5219
" />
<path d="M180.8866 196.5219
L180.7437 196.3790
" />
<path d="M180.7437 196.3790
L180.6723 196.2362
" />
<path d="M180.6723 196.2362
L180.6009 195.9505
" />
<path d="M180.6009 195.9505
L180.6009 195.7362
" />
<path d="M180.6009 195.7362
L180.6723 195.4505
" />
<path d="M180.6723 195.4505
L180.7437 195.3076
" />
<path d="M180.7437 195.3076
L180.8866 195.1648
" />
<path d="M180.8866 195.1648
L181.1009 195.0933
" />
<path d="M181.1009 195.0933
L181.2437 195.0933
" />
<path d="M181.2437 195.0933
L181.4580 195.1648
" />
<path d="M181.4580 195.1648
L181.5295 195.2362
" />
<path d="M182.8152 196.5933
L182.8152 195.8076
" />
<path d="M182.8152 195.8076
L182.7437 195.6648
" />
<path d="M182.7437 195.6648
L182.6009 195.5933
" />
<path d="M182.6009 195.5933
L182.3152 195.5933
" />
<path d="M182.3152 195.5933
L182.1723 195.6648
" />
<path d="M182.8152 196.5219
L182.6723 196.5933
" />
<path d="M182.6723 196.5933
L182.3152 196.5933
" />
<path d="M182.3152 196.5933
L182.1723 196.5219
" />
<path d="M182.1723 196.5219
L182.1009 196.3790
" />
<path d="M182.1009 196.3790
L182.1009 196.2362
" />
<path d="M182.1009 196.2362
L182.1723 196.0933
" />
<path d="M182.1723 196.0933
L182.3152 196.0219
" />
<path d="M182.3152 196.0219
L182.6723 196.0219
" />
<path d="M182.6723 196.0219
L182.8152 195.9505
" />
<path d="M184.1723 196.5933
L184.1723 195.0933
" />
<path d="M184.1723 196.5219
L184.0295 196.5933
" />
<path d="M184.0295 196.5933
L183.7437 196.5933
" />
<path d="M183.7437 196.5933
L183.6009 196.5219
" />
<path d="M183.6009 196.5219
L183.5295 196.4505
" />
<path d="M183.5295 196.4505
L183.4580 196.3076
" />
<path d="M183.4580 196.3076
L183.4580 195.8790
" />
<path d="M183.4580 195.8790
L183.5295 195.7362
" />
<path d="M183.5295 195.7362
L183.6009 195.6648
" />
<path d="M183.6009 195.6648
L183.7437 195.5933
" />
<path d="M183.7437 195.5933
L184.0295 195.5933
" />
<path d="M184.0295 195.5933
L184.1723 195.6648
" />
<path d="M186.0295 195.8076
L186.5295 195.8076
" />
<path d="M186.7437 196.5933
L186.0295 196.5933
" />
<path d="M186.0295 196.5933
L186.0295 195.0933
" />
<path d="M186.0295 195.0933
L186.7437 195.0933
" />
<path d="M187.3866 196.4505
L187.4580 196.5219
" />
<path d="M187.4580 196.5219
L187.3866 196.5933
" />
<path d="M187.3866 196.5933
L187.3152 196.5219
" />
<path d="M187.3152 196.5219
L187.3866 196.4505
" />
<path d="M187.3866 196.4505
L187.3866 196.5933
" />
<path d="M188.1009 196.5933
L188.1009 195.0933
" />
<path d="M188.1009 195.0933
L188.4580 195.0933
" />
<path d="M188.4580 195.0933
L188.6723 195.1648
" />
<path d="M188.6723 195.1648
L188.8152 195.3076
" />
<path d="M188.8152 195.3076
L188.8866 195.4505
" />
<path d="M188.8866 195.4505
L188.9580 195.7362
" />
<path d="M188.9580 195.7362
L188.9580 195.9505
" />
<path d="M188.9580 195.9505
L188.8866 196.2362
" />
<path d="M188.8866 196.2362
L188.8152 196.3790
" />
<path d="M188.8152 196.3790
L188.6723 196.5219
" />
<path d="M188.6723 196.5219
L188.4580 196.5933
" />
<path d="M188.4580 196.5933
L188.1009 196.5933
" />
<path d="M189.6009 196.4505
L189.6723 196.5219
" />
<path d="M189.6723 196.5219
L189.6009 196.5933
" />
<path d="M189.6009 196.5933
L189.5295 196.5219
" />
<path d="M189.5295 196.5219
L189.6009 196.4505
" />
<path d="M189.6009 196.4505
L189.6009 196.5933
" />
<path d="M190.2437 196.1648
L190.9580 196.1648
" />
<path d="M190.1009 196.5933
L190.6009 195.0933
" />
<path d="M190.6009 195.0933
L191.1009 196.5933
" />
<path d="M191.6009 196.4505
L191.6723 196.5219
" />
<path d="M191.6723 196.5219
L191.6009 196.5933
" />
<path d="M191.6009 196.5933
L191.5295 196.5219
" />
<path d="M191.5295 196.5219
L191.6009 196.4505
" />
<path d="M191.6009 196.4505
L191.6009 196.5933
" />
<path d="M193.5295 196.5933
L193.8152 196.5933
" />
<path d="M193.8152 196.5933
L193.9580 196.5219
" />
<path d="M193.9580 196.5219
L194.0295 196.4505
" />
<path d="M194.0295 196.4505
L194.1723 196.2362
" />
<path d="M194.1723 196.2362
L194.2437 195.9505
" />
<path d="M194.2437 195.9505
L194.2437 195.3790
" />
<path d="M194.2437 195.3790
L194.1723 195.2362
" />
<path d="M194.1723 195.2362
L194.1009 195.1648
" />
<path d="M194.1009 195.1648
L193.9580 195.0933
" />
<path d="M193.9580 195.0933
L193.6723 195.0933
" />
<path d="M193.6723 195.0933
L193.5295 195.1648
" />
<path d="M193.5295 195.1648
L193.4580 195.2362
" />
<path d="M193.4580 195.2362
L193.3866 195.3790
" />
<path d="M193.3866 195.3790
L193.3866 195.7362
" />
<path d="M193.3866 195.7362
L193.4580 195.8790
" />
<path d="M193.4580 195.8790
L193.5295 195.9505
" />
<path d="M193.5295 195.9505
L193.6723 196.0219
" />
<path d="M193.6723 196.0219
L193.9580 196.0219
" />
<path d="M193.9580 196.0219
L194.1009 195.9505
" />
<path d="M194.1009 195.9505
L194.1723 195.8790
" />
<path d="M194.1723 195.8790
L194.2437 195.7362
" />
<path d="M194.8866 196.4505
L194.9580 196.5219
" />
<path d="M194.9580 196.5219
L194.8866 196.5933
" />
<path d="M194.8866 196.5933
L194.8152 196.5219
" />
<path d="M194.8152 196.5219
L194.8866 196.4505
" />
<path d="M194.8866 196.4505
L194.8866 196.5933
" />
<path d="M195.8866 195.0933
L196.0295 195.0933
" />
<path d="M196.0295 195.0933
L196.1723 195.1648
" />
<path d="M196.1723 195.1648
L196.2437 195.2362
" />
<path d="M196.2437 195.2362
L196.3152 195.3790
" />
<path d="M196.3152 195.3790
L196.3866 195.6648
" />
<path d="M196.3866 195.6648
L196.3866 196.0219
" />
<path d="M196.3866 196.0219
L196.3152 196.3076
" />
<path d="M196.3152 196.3076
L196.2437 196.4505
" />
<path d="M196.2437 196.4505
L196.1723 196.5219
" />
<path d="M196.1723 196.5219
L196.0295 196.5933
" />
<path d="M196.0295 196.5933
L195.8866 196.5933
" />
<path d="M195.8866 196.5933
L195.7437 196.5219
" />
<path d="M195.7437 196.5219
L195.6723 196.4505
" />
<path d="M195.6723 196.4505
L195.6009 196.3076
" />
<path d="M195.6009 196.3076
L195.5295 196.0219
" />
<path d="M195.5295 196.0219
L195.5295 195.6648
" />
<path d="M195.5295 195.6648
L195.6009 195.3790
" />
<path d="M195.6009 195.3790
L195.6723 195.2362
" />
<path d="M195.6723 195.2362
L195.7437 195.1648
" />
<path d="M195.7437 195.1648
L195.8866 195.0933
" />
<path d="M197.0295 196.4505
L197.1009 196.5219
" />
<path d="M197.1009 196.5219
L197.0295 196.5933
" />
<path d="M197.0295 196.5933
L196.9580 196.5219
" />
<path d="M196.9580 196.5219
L197.0295 196.4505
" />
<path d="M197.0295 196.4505
L197.0295 196.5933
" />
<path d="M197.6009 195.0933
L198.6009 195.0933
" />
<path d="M198.6009 195.0933
L197.9580 196.5933
" />
</g></g>
<g style="fill:none; 
stroke:#C872AB; stroke-width:0.1500; stroke-opacity:1; 
stroke-linecap:round; stroke-linejoin:round;">
<path d="M177.0022 191.5072
L285.0022 191.5072
" />
</g>
<g style="fill:none; 
stroke:#C872AB; stroke-width:0.3000; stroke-opacity:1; 
stroke-linecap:round; stroke-linejoin:round;">
<text x="263.0022" y="193.8572"
textLength="6.3857" font-size="2.0000" lengthAdjust="spacingAndGlyphs"
text-anchor="start" opacity="0" stroke-opacity="0">Rev: </text>
<g class="stroked-text"><desc>Rev: </desc>
<path d="M264.4139 193.7855
L263.9139 193.0712
" />
<path d="M263.5567 193.7855
L263.5567 192.2855
" />
<path d="M263.5567 192.2855
L264.1281 192.2855
" />
<path d="M264.1281 192.2855
L264.2710 192.3570
" />
<path d="M264.2710 192.3570
L264.3424 192.4284
" />
<path d="M264.3424 192.4284
L264.4139 192.5712
" />
<path d="M264.4139 192.5712
L264.4139 192.7855
" />
<path d="M264.4139 192.7855
L264.3424 192.9284
" />
<path d="M264.3424 192.9284
L264.2710 192.9998
" />
<path d="M264.2710 192.9998
L264.1281 193.0712
" />
<path d="M264.1281 193.0712
L263.5567 193.0712
" />
<path d="M265.6281 193.7141
L265.4853 193.7855
" />
<path d="M265.4853 193.7855
L265.1996 193.7855
" />
<path d="M265.1996 193.7855
L265.0567 193.7141
" />
<path d="M265.0567 193.7141
L264.9853 193.5712
" />
<path d="M264.9853 193.5712
L264.9853 192.9998
" />
<path d="M264.9853 192.9998
L265.0567 192.8570
" />
<path d="M265.0567 192.8570
L265.1996 192.7855
" />
<path d="M265.1996 192.7855
L265.4853 192.7855
" />
<path d="M265.4853 192.7855
L265.6281 192.8570
" />
<path d="M265.6281 192.8570
L265.6996 192.9998
" />
<path d="M265.6996 192.9998
L265.6996 193.1427
" />
<path d="M265.6996 193.1427
L264.9853 193.2855
" />
<path d="M266.1996 192.7855
L266.5567 193.7855
" />
<path d="M266.5567 193.7855
L266.9139 192.7855
" />
<path d="M267.4853 193.6427
L267.5567 193.7141
" />
<path d="M267.5567 193.7141
L267.4853 193.7855
" />
<path d="M267.4853 193.7855
L267.4139 193.7141
" />
<path d="M267.4139 193.7141
L267.4853 193.6427
" />
<path d="M267.4853 193.6427
L267.4853 193.7855
" />
<path d="M267.4853 192.8570
L267.5567 192.9284
" />
<path d="M267.5567 192.9284
L267.4853 192.9998
" />
<path d="M267.4853 192.9998
L267.4139 192.9284
" />
<path d="M267.4139 192.9284
L267.4853 192.8570
" />
<path d="M267.4853 192.8570
L267.4853 192.9998
" />
</g></g>
<g style="fill:none; 
stroke:#C872AB; stroke-width:0.1500; stroke-opacity:1; 
stroke-linecap:round; stroke-linejoin:round;">
<text x="178.0022" y="193.8572"
textLength="9.3643" font-size="2.0000" lengthAdjust="spacingAndGlyphs"
text-anchor="start" opacity="0" stroke-opacity="0">Size: A4</text>
<g class="stroked-text"><desc>Size: A4</desc>
<path d="M178.3866 193.7219
L178.6009 193.7933
" />
<path d="M178.6009 193.7933
L178.9580 193.7933
" />
<path d="M178.9580 193.7933
L179.1009 193.7219
" />
<path d="M179.1009 193.7219
L179.1723 193.6505
" />
<path d="M179.1723 193.6505
L179.2437 193.5076
" />
<path d="M179.2437 193.5076
L179.2437 193.3648
" />
<path d="M179.2437 193.3648
L179.1723 193.2219
" />
<path d="M179.1723 193.2219
L179.1009 193.1505
" />
<path d="M179.1009 193.1505
L178.9580 193.0790
" />
<path d="M178.9580 193.0790
L178.6723 193.0076
" />
<path d="M178.6723 193.0076
L178.5295 192.9362
" />
<path d="M178.5295 192.9362
L178.4580 192.8648
" />
<path d="M178.4580 192.8648
L178.3866 192.7219
" />
<path d="M178.3866 192.7219
L178.3866 192.5790
" />
<path d="M178.3866 192.5790
L178.4580 192.4362
" />
<path d="M178.4580 192.4362
L178.5295 192.3648
" />
<path d="M178.5295 192.3648
L178.6723 192.2933
" />
<path d="M178.6723 192.2933
L179.0295 192.2933
" />
<path d="M179.0295 192.2933
L179.2437 192.3648
" />
<path d="M179.8866 193.7933
L179.8866 192.7933
" />
<path d="M179.8866 192.2933
L179.8152 192.3648
" />
<path d="M179.8152 192.3648
L179.8866 192.4362
" />
<path d="M179.8866 192.4362
L179.9580 192.3648
" />
<path d="M179.9580 192.3648
L179.8866 192.2933
" />
<path d="M179.8866 192.2933
L179.8866 192.4362
" />
<path d="M180.4580 192.7933
L181.2437 192.7933
" />
<path d="M181.2437 192.7933
L180.4580 193.7933
" />
<path d="M180.4580 193.7933
L181.2437 193.7933
" />
<path d="M182.3866 193.7219
L182.2437 193.7933
" />
<path d="M182.2437 193.7933
L181.9580 193.7933
" />
<path d="M181.9580 193.7933
L181.8152 193.7219
" />
<path d="M181.8152 193.7219
L181.7437 193.5790
" />
<path d="M181.7437 193.5790
L181.7437 193.0076
" />
<path d="M181.7437 193.0076
L181.8152 192.8648
" />
<path d="M181.8152 192.8648
L181.9580 192.7933
" />
<path d="M181.9580 192.7933
L182.2437 192.7933
" />
<path d="M182.2437 192.7933
L182.3866 192.8648
" />
<path d="M182.3866 192.8648
L182.4580 193.0076
" />
<path d="M182.4580 193.0076
L182.4580 193.1505
" />
<path d="M182.4580 193.1505
L181.7437 193.2933
" />
<path d="M183.1009 193.6505
L183.1723 193.7219
" />
<path d="M183.1723 193.7219
L183.1009 193.7933
" />
<path d="M183.1009 193.7933
L183.0295 193.7219
" />
<path d="M183.0295 193.7219
L183.1009 193.6505
" />
<path d="M183.1009 193.6505
L183.1009 193.7933
" />
<path d="M183.1009 192.8648
L183.1723 192.9362
" />
<path d="M183.1723 192.9362
L183.1009 193.0076
" />
<path d="M183.1009 193.0076
L183.0295 192.9362
" />
<path d="M183.0295 192.9362
L183.1009 192.8648
" />
<path d="M183.1009 192.8648
L183.1009 193.0076
" />
<path d="M184.8866 193.3648
L185.6009 193.3648
" />
<path d="M184.7437 193.7933
L185.2437 192.2933
" />
<path d="M185.2437 192.2933
L185.7437 193.7933
" />
<path d="M186.8866 192.7933
L186.8866 193.7933
" />
<path d="M186.5295 192.2219
L186.1723 193.2933
" />
<path d="M186.1723 193.2933
L187.1009 193.2933
" />
</g></g>
<g style="fill:none; 
stroke:#C872AB; stroke-width:0.1500; stroke-opacity:1; 
stroke-linecap:round; stroke-linejoin:round;">
<text x="263.0022" y="196.6572"
textLength="8.5071" font-size="2.0000" lengthAdjust="spacingAndGlyphs"
text-anchor="start" opacity="0" stroke-opacity="0">Id: 1/1</text>
<g class="stroked-text"><desc>Id: 1/1</desc>
<path d="M263.4580 196.5933
L263.4580 195.0933
" />
<path d="M264.8152 196.5933
L264.8152 195.0933
" />
<path d="M264.8152 196.5219
L264.6723 196.5933
" />
<path d="M264.6723 196.5933
L264.3866 196.5933
" />
<path d="M264.3866 196.5933
L264.2437 196.5219
" />
<path d="M264.2437 196.5219
L264.1723 196.4505
" />
<path d="M264.1723 196.4505
L264.1009 196.3076
" />
<path d="M264.1009 196.3076
L264.1009 195.8790
" />
<path d="M264.1009 195.8790
L264.1723 195.7362
" />
<path d="M264.1723 195.7362
L264.2437 195.6648
" />
<path d="M264.2437 195.6648
L264.3866 195.5933
" />
<path d="M264.3866 195.5933
L264.6723 195.5933
" />
<path d="M264.6723 195.5933
L264.8152 195.6648
" />
<path d="M265.5295 196.4505
L265.6009 196.5219
" />
<path d="M265.6009 196.5219
L265.5295 196.5933
" />
<path d="M265.5295 196.5933
L265.4580 196.5219
" />
<path d="M265.4580 196.5219
L265.5295 196.4505
" />
<path d="M265.5295 196.4505
L265.5295 196.5933
" />
<path d="M265.5295 195.6648
L265.6009 195.7362
" />
<path d="M265.6009 195.7362
L265.5295 195.8076
" />
<path d="M265.5295 195.8076
L265.4580 195.7362
" />
<path d="M265.4580 195.7362
L265.5295 195.6648
" />
<path d="M265.5295 195.6648
L265.5295 195.8076
" />
<path d="M268.1723 196.5933
L267.3152 196.5933
" />
<path d="M267.7437 196.5933
L267.7437 195.0933
" />
<path d="M267.7437 195.0933
L267.6009 195.3076
" />
<path d="M267.6009 195.3076
L267.4580 195.4505
" />
<path d="M267.4580 195.4505
L267.3152 195.5219
" />
<path d="M269.8866 195.0219
L268.6009 196.9505
" />
<path d="M271.1723 196.5933
L270.3152 196.5933
" />
<path d="M270.7437 196.5933
L270.7437 195.0933
" />
<path d="M270.7437 195.0933
L270.6009 195.3076
" />
<path d="M270.6009 195.3076
L270.4580 195.4505
" />
<path d="M270.4580 195.4505
L270.3152 195.5219
" />
</g></g>
<g style="fill:none; 
stroke:#C872AB; stroke-width:0.1500; stroke-opacity:1; 
stroke-linecap:round; stroke-linejoin:round;">
<path d="M177.0022 187.5072
L285.0022 187.5072
" />
</g>
<g style="fill:none; 
stroke:#C872AB; stroke-width:0.4000; stroke-opacity:1; 
stroke-linecap:round; stroke-linejoin:round;">
<text x="178.0022" y="190.3072"
textLength="9.6571" font-size="2.6667" lengthAdjust="spacingAndGlyphs"
text-anchor="start" opacity="0" stroke-opacity="0">Title: </text>
<g class="stroked-text"><desc>Title: </desc>
<path d="M178.6939 188.2116
L179.8368 188.2116
" />
<path d="M179.0154 190.2116
L179.2654 188.2116
" />
<path d="M180.2535 190.2116
L180.4201 188.8783
" />
<path d="M180.5035 188.2116
L180.3963 188.3069
" />
<path d="M180.3963 188.3069
L180.4796 188.4021
" />
<path d="M180.4796 188.4021
L180.5868 188.3069
" />
<path d="M180.5868 188.3069
L180.5035 188.2116
" />
<path d="M180.5035 188.2116
L180.4796 188.4021
" />
<path d="M181.0868 188.8783
L181.8487 188.8783
" />
<path d="M181.4558 188.2116
L181.2415 189.9259
" />
<path d="M181.2415 189.9259
L181.3130 190.1164
" />
<path d="M181.3130 190.1164
L181.4915 190.2116
" />
<path d="M181.4915 190.2116
L181.6820 190.2116
" />
<path d="M182.6344 190.2116
L182.4558 190.1164
" />
<path d="M182.4558 190.1164
L182.3844 189.9259
" />
<path d="M182.3844 189.9259
L182.5987 188.2116
" />
<path d="M184.1701 190.1164
L183.9677 190.2116
" />
<path d="M183.9677 190.2116
L183.5868 190.2116
" />
<path d="M183.5868 190.2116
L183.4082 190.1164
" />
<path d="M183.4082 190.1164
L183.3368 189.9259
" />
<path d="M183.3368 189.9259
L183.4320 189.1640
" />
<path d="M183.4320 189.1640
L183.5511 188.9735
" />
<path d="M183.5511 188.9735
L183.7535 188.8783
" />
<path d="M183.7535 188.8783
L184.1344 188.8783
" />
<path d="M184.1344 188.8783
L184.3130 188.9735
" />
<path d="M184.3130 188.9735
L184.3844 189.1640
" />
<path d="M184.3844 189.1640
L184.3606 189.3545
" />
<path d="M184.3606 189.3545
L183.3844 189.5450
" />
<path d="M185.1344 190.0212
L185.2177 190.1164
" />
<path d="M185.2177 190.1164
L185.1106 190.2116
" />
<path d="M185.1106 190.2116
L185.0273 190.1164
" />
<path d="M185.0273 190.1164
L185.1344 190.0212
" />
<path d="M185.1344 190.0212
L185.1106 190.2116
" />
<path d="M185.2654 188.9735
L185.3487 189.0688
" />
<path d="M185.3487 189.0688
L185.2415 189.1640
" />
<path d="M185.2415 189.1640
L185.1582 189.0688
" />
<path d="M185.1582 189.0688
L185.2654 188.9735
" />
<path d="M185.2654 188.9735
L185.2415 189.1640
" />
</g></g>
<g style="fill:none; 
stroke:#C872AB; stroke-width:0.1500; stroke-opacity:1; 
stroke-linecap:round; stroke-linejoin:round;">
<text x="178.0022" y="186.4572"
textLength="41.2214" font-size="2.0000" lengthAdjust="spacingAndGlyphs"
text-anchor="start" opacity="0" stroke-opacity="0">File: AI_Jammer_Hardware.kicad_pcb</text>
<g class="stroked-text"><desc>File: AI_Jammer_Hardware.kicad_pcb</desc>
<path d="M178.9580 185.6076
L178.4580 185.6076
" />
<path d="M178.4580 186.3933
L178.4580 184.8933
" />
<path d="M178.4580 184.8933
L179.1723 184.8933
" />
<path d="M179.7437 186.3933
L179.7437 185.3933
" />
<path d="M179.7437 184.8933
L179.6723 184.9648
" />
<path d="M179.6723 184.9648
L179.7437 185.0362
" />
<path d="M179.7437 185.0362
L179.8152 184.9648
" />
<path d="M179.8152 184.9648
L179.7437 184.8933
" />
<path d="M179.7437 184.8933
L179.7437 185.0362
" />
<path d="M180.6723 186.3933
L180.5295 186.3219
" />
<path d="M180.5295 186.3219
L180.4580 186.1790
" />
<path d="M180.4580 186.1790
L180.4580 184.8933
" />
<path d="M181.8152 186.3219
L181.6723 186.3933
" />
<path d="M181.6723 186.3933
L181.3866 186.3933
" />
<path d="M181.3866 186.3933
L181.2437 186.3219
" />
<path d="M181.2437 186.3219
L181.1723 186.1790
" />
<path d="M181.1723 186.1790
L181.1723 185.6076
" />
<path d="M181.1723 185.6076
L181.2437 185.4648
" />
<path d="M181.2437 185.4648
L181.3866 185.3933
" />
<path d="M181.3866 185.3933
L181.6723 185.3933
" />
<path d="M181.6723 185.3933
L181.8152 185.4648
" />
<path d="M181.8152 185.4648
L181.8866 185.6076
" />
<path d="M181.8866 185.6076
L181.8866 185.7505
" />
<path d="M181.8866 185.7505
L181.1723 185.8933
" />
<path d="M182.5295 186.2505
L182.6009 186.3219
" />
<path d="M182.6009 186.3219
L182.5295 186.3933
" />
<path d="M182.5295 186.3933
L182.4580 186.3219
" />
<path d="M182.4580 186.3219
L182.5295 186.2505
" />
<path d="M182.5295 186.2505
L182.5295 186.3933
" />
<path d="M182.5295 185.4648
L182.6009 185.5362
" />
<path d="M182.6009 185.5362
L182.5295 185.6076
" />
<path d="M182.5295 185.6076
L182.4580 185.5362
" />
<path d="M182.4580 185.5362
L182.5295 185.4648
" />
<path d="M182.5295 185.4648
L182.5295 185.6076
" />
<path d="M184.3152 185.9648
L185.0295 185.9648
" />
<path d="M184.1723 186.3933
L184.6723 184.8933
" />
<path d="M184.6723 184.8933
L185.1723 186.3933
" />
<path d="M185.6723 186.3933
L185.6723 184.8933
" />
<path d="M186.0295 186.5362
L187.1723 186.5362
" />
<path d="M187.9580 184.8933
L187.9580 185.9648
" />
<path d="M187.9580 185.9648
L187.8866 186.1790
" />
<path d="M187.8866 186.1790
L187.7437 186.3219
" />
<path d="M187.7437 186.3219
L187.5295 186.3933
" />
<path d="M187.5295 186.3933
L187.3866 186.3933
" />
<path d="M189.3152 186.3933
L189.3152 185.6076
" />
<path d="M189.3152 185.6076
L189.2437 185.4648
" />
<path d="M189.2437 185.4648
L189.1009 185.3933
" />
<path d="M189.1009 185.3933
L188.8152 185.3933
" />
<path d="M188.8152 185.3933
L188.6723 185.4648
" />
<path d="M189.3152 186.3219
L189.1723 186.3933
" />
<path d="M189.1723 186.3933
L188.8152 186.3933
" />
<path d="M188.8152 186.3933
L188.6723 186.3219
" />
<path d="M188.6723 186.3219
L188.6009 186.1790
" />
<path d="M188.6009 186.1790
L188.6009 186.0362
" />
<path d="M188.6009 186.0362
L188.6723 185.8933
" />
<path d="M188.6723 185.8933
L188.8152 185.8219
" />
<path d="M188.8152 185.8219
L189.1723 185.8219
" />
<path d="M189.1723 185.8219
L189.3152 185.7505
" />
<path d="M190.0295 186.3933
L190.0295 185.3933
" />
<path d="M190.0295 185.5362
L190.1009 185.4648
" />
<path d="M190.1009 185.4648
L190.2437 185.3933
" />
<path d="M190.2437 185.3933
L190.4580 185.3933
" />
<path d="M190.4580 185.3933
L190.6009 185.4648
" />
<path d="M190.6009 185.4648
L190.6723 185.6076
" />
<path d="M190.6723 185.6076
L190.6723 186.3933
" />
<path d="M190.6723 185.6076
L190.7437 185.4648
" />
<path d="M190.7437 185.4648
L190.8866 185.3933
" />
<path d="M190.8866 185.3933
L191.1009 185.3933
" />
<path d="M191.1009 185.3933
L191.2437 185.4648
" />
<path d="M191.2437 185.4648
L191.3152 185.6076
" />
<path d="M191.3152 185.6076
L191.3152 186.3933
" />
<path d="M192.0295 186.3933
L192.0295 185.3933
" />
<path d="M192.0295 185.5362
L192.1009 185.4648
" />
<path d="M192.1009 185.4648
L192.2437 185.3933
" />
<path d="M192.2437 185.3933
L192.4580 185.3933
" />
<path d="M192.4580 185.3933
L192.6009 185.4648
" />
<path d="M192.6009 185.4648
L192.6723 185.6076
" />
<path d="M192.6723 185.6076
L192.6723 186.3933
" />
<path d="M192.6723 185.6076
L192.7437 185.4648
" />
<path d="M192.7437 185.4648
L192.8866 185.3933
" />
<path d="M192.8866 185.3933
L193.1009 185.3933
" />
<path d="M193.1009 185.3933
L193.2437 185.4648
" />
<path d="M193.2437 185.4648
L193.3152 185.6076
" />
<path d="M193.3152 185.6076
L193.3152 186.3933
" />
<path d="M194.6009 186.3219
L194.4580 186.3933
" />
<path d="M194.4580 186.3933
L194.1723 186.3933
" />
<path d="M194.1723 186.3933
L194.0295 186.3219
" />
<path d="M194.0295 186.3219
L193.9580 186.1790
" />
<path d="M193.9580 186.1790
L193.9580 185.6076
" />
<path d="M193.9580 185.6076
L194.0295 185.4648
" />
<path d="M194.0295 185.4648
L194.1723 185.3933
" />
<path d="M194.1723 185.3933
L194.4580 185.3933
" />
<path d="M194.4580 185.3933
L194.6009 185.4648
" />
<path d="M194.6009 185.4648
L194.6723 185.6076
" />
<path d="M194.6723 185.6076
L194.6723 185.7505
" />
<path d="M194.6723 185.7505
L193.9580 185.8933
" />
<path d="M195.3152 186.3933
L195.3152 185.3933
" />
<path d="M195.3152 185.6790
L195.3866 185.5362
" />
<path d="M195.3866 185.5362
L195.4580 185.4648
" />
<path d="M195.4580 185.4648
L195.6009 185.3933
" />
<path d="M195.6009 185.3933
L195.7437 185.3933
" />
<path d="M195.8866 186.5362
L197.0295 186.5362
" />
<path d="M197.3866 186.3933
L197.3866 184.8933
" />
<path d="M197.3866 185.6076
L198.2437 185.6076
" />
<path d="M198.2437 186.3933
L198.2437 184.8933
" />
<path d="M199.6009 186.3933
L199.6009 185.6076
" />
<path d="M199.6009 185.6076
L199.5295 185.4648
" />
<path d="M199.5295 185.4648
L199.3866 185.3933
" />
<path d="M199.3866 185.3933
L199.1009 185.3933
" />
<path d="M199.1009 185.3933
L198.9580 185.4648
" />
<path d="M199.6009 186.3219
L199.4580 186.3933
" />
<path d="M199.4580 186.3933
L199.1009 186.3933
" />
<path d="M199.1009 186.3933
L198.9580 186.3219
" />
<path d="M198.9580 186.3219
L198.8866 186.1790
" />
<path d="M198.8866 186.1790
L198.8866 186.0362
" />
<path d="M198.8866 186.0362
L198.9580 185.8933
" />
<path d="M198.9580 185.8933
L199.1009 185.8219
" />
<path d="M199.1009 185.8219
L199.4580 185.8219
" />
<path d="M199.4580 185.8219
L199.6009 185.7505
" />
<path d="M200.3152 186.3933
L200.3152 185.3933
" />
<path d="M200.3152 185.6790
L200.3866 185.5362
" />
<path d="M200.3866 185.5362
L200.4580 185.4648
" />
<path d="M200.4580 185.4648
L200.6009 185.3933
" />
<path d="M200.6009 185.3933
L200.7437 185.3933
" />
<path d="M201.8866 186.3933
L201.8866 184.8933
" />
<path d="M201.8866 186.3219
L201.7437 186.3933
" />
<path d="M201.7437 186.3933
L201.4580 186.3933
" />
<path d="M201.4580 186.3933
L201.3152 186.3219
" />
<path d="M201.3152 186.3219
L201.2437 186.2505
" />
<path d="M201.2437 186.2505
L201.1723 186.1076
" />
<path d="M201.1723 186.1076
L201.1723 185.6790
" />
<path d="M201.1723 185.6790
L201.2437 185.5362
" />
<path d="M201.2437 185.5362
L201.3152 185.4648
" />
<path d="M201.3152 185.4648
L201.4580 185.3933
" />
<path d="M201.4580 185.3933
L201.7437 185.3933
" />
<path d="M201.7437 185.3933
L201.8866 185.4648
" />
<path d="M202.4580 185.3933
L202.7437 186.3933
" />
<path d="M202.7437 186.3933
L203.0295 185.6790
" />
<path d="M203.0295 185.6790
L203.3152 186.3933
" />
<path d="M203.3152 186.3933
L203.6009 185.3933
" />
<path d="M204.8152 186.3933
L204.8152 185.6076
" />
<path d="M204.8152 185.6076
L204.7437 185.4648
" />
<path d="M204.7437 185.4648
L204.6009 185.3933
" />
<path d="M204.6009 185.3933
L204.3152 185.3933
" />
<path d="M204.3152 185.3933
L204.1723 185.4648
" />
<path d="M204.8152 186.3219
L204.6723 186.3933
" />
<path d="M204.6723 186.3933
L204.3152 186.3933
" />
<path d="M204.3152 186.3933
L204.1723 186.3219
" />
<path d="M204.1723 186.3219
L204.1009 186.1790
" />
<path d="M204.1009 186.1790
L204.1009 186.0362
" />
<path d="M204.1009 186.0362
L204.1723 185.8933
" />
<path d="M204.1723 185.8933
L204.3152 185.8219
" />
<path d="M204.3152 185.8219
L204.6723 185.8219
" />
<path d="M204.6723 185.8219
L204.8152 185.7505
" />
<path d="M205.5295 186.3933
L205.5295 185.3933
" />
<path d="M205.5295 185.6790
L205.6009 185.5362
" />
<path d="M205.6009 185.5362
L205.6723 185.4648
" />
<path d="M205.6723 185.4648
L205.8152 185.3933
" />
<path d="M205.8152 185.3933
L205.9580 185.3933
" />
<path d="M207.0295 186.3219
L206.8866 186.3933
" />
<path d="M206.8866 186.3933
L206.6009 186.3933
" />
<path d="M206.6009 186.3933
L206.4580 186.3219
" />
<path d="M206.4580 186.3219
L206.3866 186.1790
" />
<path d="M206.3866 186.1790
L206.3866 185.6076
" />
<path d="M206.3866 185.6076
L206.4580 185.4648
" />
<path d="M206.4580 185.4648
L206.6009 185.3933
" />
<path d="M206.6009 185.3933
L206.8866 185.3933
" />
<path d="M206.8866 185.3933
L207.0295 185.4648
" />
<path d="M207.0295 185.4648
L207.1009 185.6076
" />
<path d="M207.1009 185.6076
L207.1009 185.7505
" />
<path d="M207.1009 185.7505
L206.3866 185.8933
" />
<path d="M207.7437 186.2505
L207.8152 186.3219
" />
<path d="M207.8152 186.3219
L207.7437 186.3933
" />
<path d="M207.7437 186.3933
L207.6723 186.3219
" />
<path d="M207.6723 186.3219
L207.7437 186.2505
" />
<path d="M207.7437 186.2505
L207.7437 186.3933
" />
<path d="M208.4580 186.3933
L208.4580 184.8933
" />
<path d="M208.6009 185.8219
L209.0295 186.3933
" />
<path d="M209.0295 185.3933
L208.4580 185.9648
" />
<path d="M209.6723 186.3933
L209.6723 185.3933
" />
<path d="M209.6723 184.8933
L209.6009 184.9648
" />
<path d="M209.6009 184.9648
L209.6723 185.0362
" />
<path d="M209.6723 185.0362
L209.7437 184.9648
" />
<path d="M209.7437 184.9648
L209.6723 184.8933
" />
<path d="M209.6723 184.8933
L209.6723 185.0362
" />
<path d="M211.0295 186.3219
L210.8866 186.3933
" />
<path d="M210.8866 186.3933
L210.6009 186.3933
" />
<path d="M210.6009 186.3933
L210.4580 186.3219
" />
<path d="M210.4580 186.3219
L210.3866 186.2505
" />
<path d="M210.3866 186.2505
L210.3152 186.1076
" />
<path d="M210.3152 186.1076
L210.3152 185.6790
" />
<path d="M210.3152 185.6790
L210.3866 185.5362
" />
<path d="M210.3866 185.5362
L210.4580 185.4648
" />
<path d="M210.4580 185.4648
L210.6009 185.3933
" />
<path d="M210.6009 185.3933
L210.8866 185.3933
" />
<path d="M210.8866 185.3933
L211.0295 185.4648
" />
<path d="M212.3152 186.3933
L212.3152 185.6076
" />
<path d="M212.3152 185.6076
L212.2437 185.4648
" />
<path d="M212.2437 185.4648
L212.1009 185.3933
" />
<path d="M212.1009 185.3933
L211.8152 185.3933
" />
<path d="M211.8152 185.3933
L211.6723 185.4648
" />
<path d="M212.3152 186.3219
L212.1723 186.3933
" />
<path d="M212.1723 186.3933
L211.8152 186.3933
" />
<path d="M211.8152 186.3933
L211.6723 186.3219
" />
<path d="M211.6723 186.3219
L211.6009 186.1790
" />
<path d="M211.6009 186.1790
L211.6009 186.0362
" />
<path d="M211.6009 186.0362
L211.6723 185.8933
" />
<path d="M211.6723 185.8933
L211.8152 185.8219
" />
<path d="M211.8152 185.8219
L212.1723 185.8219
" />
<path d="M212.1723 185.8219
L212.3152 185.7505
" />
<path d="M213.6723 186.3933
L213.6723 184.8933
" />
<path d="M213.6723 186.3219
L213.5295 186.3933
" />
<path d="M213.5295 186.3933
L213.2437 186.3933
" />
<path d="M213.2437 186.3933
L213.1009 186.3219
" />
<path d="M213.1009 186.3219
L213.0295 186.2505
" />
<path d="M213.0295 186.2505
L212.9580 186.1076
" />
<path d="M212.9580 186.1076
L212.9580 185.6790
" />
<path d="M212.9580 185.6790
L213.0295 185.5362
" />
<path d="M213.0295 185.5362
L213.1009 185.4648
" />
<path d="M213.1009 185.4648
L213.2437 185.3933
" />
<path d="M213.2437 185.3933
L213.5295 185.3933
" />
<path d="M213.5295 185.3933
L213.6723 185.4648
" />
<path d="M214.0295 186.5362
L215.1723 186.5362
" />
<path d="M215.5295 185.3933
L215.5295 186.8933
" />
<path d="M215.5295 185.4648
L215.6723 185.3933
" />
<path d="M215.6723 185.3933
L215.9580 185.3933
" />
<path d="M215.9580 185.3933
L216.1009 185.4648
" />
<path d="M216.1009 185.4648
L216.1723 185.5362
" />
<path d="M216.1723 185.5362
L216.2437 185.6790
" />
<path d="M216.2437 185.6790
L216.2437 186.1076
" />
<path d="M216.2437 186.1076
L216.1723 186.2505
" />
<path d="M216.1723 186.2505
L216.1009 186.3219
" />
<path d="M216.1009 186.3219
L215.9580 186.3933
" />
<path d="M215.9580 186.3933
L215.6723 186.3933
" />
<path d="M215.6723 186.3933
L215.5295 186.3219
" />
<path d="M217.5295 186.3219
L217.3866 186.3933
" />
<path d="M217.3866 186.3933
L217.1009 186.3933
" />
<path d="M217.1009 186.3933
L216.9580 186.3219
" />
<path d="M216.9580 186.3219
L216.8866 186.2505
" />
<path d="M216.8866 186.2505
L216.8152 186.1076
" />
<path d="M216.8152 186.1076
L216.8152 185.6790
" />
<path d="M216.8152 185.6790
L216.8866 185.5362
" />
<path d="M216.8866 185.5362
L216.9580 185.4648
" />
<path d="M216.9580 185.4648
L217.1009 185.3933
" />
<path d="M217.1009 185.3933
L217.3866 185.3933
" />
<path d="M217.3866 185.3933
L217.5295 185.4648
" />
<path d="M218.1723 186.3933
L218.1723 184.8933
" />
<path d="M218.1723 185.4648
L218.3152 185.3933
" />
<path d="M218.3152 185.3933
L218.6009 185.3933
" />
<path d="M218.6009 185.3933
L218.7437 185.4648
" />
<path d="M218.7437 185.4648
L218.8152 185.5362
" />
<path d="M218.8152 185.5362
L218.8866 185.6790
" />
<path d="M218.8866 185.6790
L218.8866 186.1076
" />
<path d="M218.8866 186.1076
L218.8152 186.2505
" />
<path d="M218.8152 186.2505
L218.7437 186.3219
" />
<path d="M218.7437 186.3219
L218.6009 186.3933
" />
<path d="M218.6009 186.3933
L218.3152 186.3933
" />
<path d="M218.3152 186.3933
L218.1723 186.3219
" />
</g></g>
<g style="fill:none; 
stroke:#C872AB; stroke-width:0.1500; stroke-opacity:1; 
stroke-linecap:round; stroke-linejoin:round;">
<path d="M177.0022 181.5072
L285.0022 181.5072
" />
</g>
<g style="fill:none; 
stroke:#C872AB; stroke-width:0.1500; stroke-opacity:1; 
stroke-linecap:round; stroke-linejoin:round;">
<text x="178.0022" y="183.7572"
textLength="8.2214" font-size="2.0000" lengthAdjust="spacingAndGlyphs"
text-anchor="start" opacity="0" stroke-opacity="0">Sheet: </text>
<g class="stroked-text"><desc>Sheet: </desc>
<path d="M178.3866 183.6219
L178.6009 183.6933
" />
<path d="M178.6009 183.6933
L178.9580 183.6933
" />
<path d="M178.9580 183.6933
L179.1009 183.6219
" />
<path d="M179.1009 183.6219
L179.1723 183.5505
" />
<path d="M179.1723 183.5505
L179.2437 183.4076
" />
<path d="M179.2437 183.4076
L179.2437 183.2648
" />
<path d="M179.2437 183.2648
L179.1723 183.1219
" />
<path d="M179.1723 183.1219
L179.1009 183.0505
" />
<path d="M179.1009 183.0505
L178.9580 182.9790
" />
<path d="M178.9580 182.9790
L178.6723 182.9076
" />
<path d="M178.6723 182.9076
L178.5295 182.8362
" />
<path d="M178.5295 182.8362
L178.4580 182.7648
" />
<path d="M178.4580 182.7648
L178.3866 182.6219
" />
<path d="M178.3866 182.6219
L178.3866 182.4790
" />
<path d="M178.3866 182.4790
L178.4580 182.3362
" />
<path d="M178.4580 182.3362
L178.5295 182.2648
" />
<path d="M178.5295 182.2648
L178.6723 182.1933
" />
<path d="M178.6723 182.1933
L179.0295 182.1933
" />
<path d="M179.0295 182.1933
L179.2437 182.2648
" />
<path d="M179.8866 183.6933
L179.8866 182.1933
" />
<path d="M180.5295 183.6933
L180.5295 182.9076
" />
<path d="M180.5295 182.9076
L180.4580 182.7648
" />
<path d="M180.4580 182.7648
L180.3152 182.6933
" />
<path d="M180.3152 182.6933
L180.1009 182.6933
" />
<path d="M180.1009 182.6933
L179.9580 182.7648
" />
<path d="M179.9580 182.7648
L179.8866 182.8362
" />
<path d="M181.8152 183.6219
L181.6723 183.6933
" />
<path d="M181.6723 183.6933
L181.3866 183.6933
" />
<path d="M181.3866 183.6933
L181.2437 183.6219
" />
<path d="M181.2437 183.6219
L181.1723 183.4790
" />
<path d="M181.1723 183.4790
L181.1723 182.9076
" />
<path d="M181.1723 182.9076
L181.2437 182.7648
" />
<path d="M181.2437 182.7648
L181.3866 182.6933
" />
<path d="M181.3866 182.6933
L181.6723 182.6933
" />
<path d="M181.6723 182.6933
L181.8152 182.7648
" />
<path d="M181.8152 182.7648
L181.8866 182.9076
" />
<path d="M181.8866 182.9076
L181.8866 183.0505
" />
<path d="M181.8866 183.0505
L181.1723 183.1933
" />
<path d="M183.1009 183.6219
L182.9580 183.6933
" />
<path d="M182.9580 183.6933
L182.6723 183.6933
" />
<path d="M182.6723 183.6933
L182.5295 183.6219
" />
<path d="M182.5295 183.6219
L182.4580 183.4790
" />
<path d="M182.4580 183.4790
L182.4580 182.9076
" />
<path d="M182.4580 182.9076
L182.5295 182.7648
" />
<path d="M182.5295 182.7648
L182.6723 182.6933
" />
<path d="M182.6723 182.6933
L182.9580 182.6933
" />
<path d="M182.9580 182.6933
L183.1009 182.7648
" />
<path d="M183.1009 182.7648
L183.1723 182.9076
" />
<path d="M183.1723 182.9076
L183.1723 183.0505
" />
<path d="M183.1723 183.0505
L182.4580 183.1933
" />
<path d="M183.6009 182.6933
L184.1723 182.6933
" />
<path d="M183.8152 182.1933
L183.8152 183.4790
" />
<path d="M183.8152 183.4790
L183.8866 183.6219
" />
<path d="M183.8866 183.6219
L184.0295 183.6933
" />
<path d="M184.0295 183.6933
L184.1723 183.6933
" />
<path d="M184.6723 183.5505
L184.7437 183.6219
" />
<path d="M184.7437 183.6219
L184.6723 183.6933
" />
<path d="M184.6723 183.6933
L184.6009 183.6219
" />
<path d="M184.6009 183.6219
L184.6723 183.5505
" />
<path d="M184.6723 183.5505
L184.6723 183.6933
" />
<path d="M184.6723 182.7648
L184.7437 182.8362
" />
<path d="M184.7437 182.8362
L184.6723 182.9076
" />
<path d="M184.6723 182.9076
L184.6009 182.8362
" />
<path d="M184.6009 182.8362
L184.6723 182.7648
" />
<path d="M184.6723 182.7648
L184.6723 182.9076
" />
</g></g>
<g style="fill:none; 
stroke:#C872AB; stroke-width:0.3000; stroke-opacity:1; 
stroke-linecap:round; stroke-linejoin:round;">
<text x="178.0022" y="180.7572"
textLength="0.9000" font-size="2.0000" lengthAdjust="spacingAndGlyphs"
text-anchor="start" opacity="0" stroke-opacity="0"></text>
<g class="stroked-text"><desc></desc>
</g></g>
<g style="fill:none; 
stroke:#C872AB; stroke-width:0.1500; stroke-opacity:1; 
stroke-linecap:round; stroke-linejoin:round;">
<text x="178.0022" y="177.7572"
textLength="0.4500" font-size="2.0000" lengthAdjust="spacingAndGlyphs"
text-anchor="start" opacity="0" stroke-opacity="0"></text>
<g class="stroked-text"><desc></desc>
</g></g>
<g style="fill:none; 
stroke:#C872AB; stroke-width:0.1500; stroke-opacity:1; 
stroke-linecap:round; stroke-linejoin:round;">
<text x="178.0022" y="174.7572"
textLength="0.4500" font-size="2.0000" lengthAdjust="spacingAndGlyphs"
text-anchor="start" opacity="0" stroke-opacity="0"></text>
<g class="stroked-text"><desc></desc>
</g></g>
<g style="fill:none; 
stroke:#C872AB; stroke-width:0.1500; stroke-opacity:1; 
stroke-linecap:round; stroke-linejoin:round;">
<text x="178.0022" y="171.7572"
textLength="0.4500" font-size="2.0000" lengthAdjust="spacingAndGlyphs"
text-anchor="start" opacity="0" stroke-opacity="0"></text>
<g class="stroked-text"><desc></desc>
</g></g>
<g style="fill:none; 
stroke:#C872AB; stroke-width:0.1500; stroke-opacity:1; 
stroke-linecap:round; stroke-linejoin:round;">
<text x="178.0022" y="168.7572"
textLength="0.4500" font-size="2.0000" lengthAdjust="spacingAndGlyphs"
text-anchor="start" opacity="0" stroke-opacity="0"></text>
<g class="stroked-text"><desc></desc>
</g></g>
<g style="fill:none; 
stroke:#C872AB; stroke-width:0.1500; stroke-opacity:1; 
stroke-linecap:round; stroke-linejoin:round;">
<path d="M197.0022 191.5072
L197.0022 194.5072
" />
</g>
<g style="fill:none; 
stroke:#C872AB; stroke-width:0.1500; stroke-opacity:1; 
stroke-linecap:round; stroke-linejoin:round;">
<path d="M261.0022 191.5072
L261.0022 198.0072
" />
<path style="fill:#C83434; fill-opacity:1.0000; stroke:none;fill-rule:evenodd;"
d="M 54.5600,20.3000
54.5600,18.6000
56.2600,18.6000
56.2600,20.3000
Z" /> 
</g>
<g style="fill:#C83434; fill-opacity:1.0000; stroke:none;">
<circle cx="55.4100" cy="21.9900" r="0.8500" /> 
</g>
<g style="fill:#C83434; fill-opacity:1.0000; stroke:none;">
<circle cx="55.4100" cy="24.5300" r="0.8500" /> 
</g>
<g style="fill:#C83434; fill-opacity:1.0000; stroke:none;">
<circle cx="55.4100" cy="27.0700" r="0.8500" /> 
</g>
<g style="fill:#C83434; fill-opacity:1.0000; stroke:none;">
<circle cx="55.4100" cy="29.6100" r="0.8500" /> 
</g>
<g style="fill:#C83434; fill-opacity:1.0000; stroke:none;">
<circle cx="55.4100" cy="32.1500" r="0.8500" /> 
</g>
<g style="fill:#C83434; fill-opacity:1.0000; stroke:none;">
<circle cx="55.4100" cy="34.6900" r="0.8500" /> 
</g>
<g style="fill:#C83434; fill-opacity:1.0000; stroke:none;">
<circle cx="55.4100" cy="37.2300" r="0.8500" /> 
</g>
<g style="fill:#C83434; fill-opacity:1.0000; stroke:none;">
<circle cx="55.4100" cy="39.7700" r="0.8500" /> 
</g>
<g style="fill:#C83434; fill-opacity:1.0000; stroke:none;">
<circle cx="55.4100" cy="42.3100" r="0.8500" /> 
</g>
<g style="fill:#C83434; fill-opacity:1.0000; stroke:none;">
<circle cx="55.4100" cy="44.8500" r="0.8500" /> 
</g>
<g style="fill:#C83434; fill-opacity:1.0000; stroke:none;">
<circle cx="55.4100" cy="47.3900" r="0.8500" /> 
</g>
<g style="fill:#C83434; fill-opacity:1.0000; stroke:none;">
<circle cx="55.4100" cy="49.9300" r="0.8500" /> 
</g>
<g style="fill:#C83434; fill-opacity:1.0000; stroke:none;">
<circle cx="55.4100" cy="52.4700" r="0.8500" /> 
</g>
<g style="fill:#C83434; fill-opacity:1.0000; stroke:none;">
<circle cx="55.4100" cy="55.0100" r="0.8500" /> 
</g>
<g style="fill:#C83434; fill-opacity:1.0000; stroke:none;">
<circle cx="55.4100" cy="57.5500" r="0.8500" /> 
</g>
<g style="fill:#C83434; fill-opacity:1.0000; stroke:none;">
<circle cx="55.4100" cy="60.0900" r="0.8500" /> 
</g>
<g style="fill:#C83434; fill-opacity:1.0000; stroke:none;">
<circle cx="55.4100" cy="62.6300" r="0.8500" /> 
</g>
<g style="fill:#C83434; fill-opacity:1.0000; stroke:none;">
<circle cx="55.4100" cy="65.1700" r="0.8500" /> 
</g>
<g style="fill:#C83434; fill-opacity:1.0000; stroke:none;">
<circle cx="55.4100" cy="67.7100" r="0.8500" /> 
</g>
<g style="fill:#C83434; fill-opacity:1.0000; stroke:none;">
<circle cx="55.4100" cy="70.2500" r="0.8500" /> 
</g>
<g style="fill:#C83434; fill-opacity:1.0000; stroke:none;">
<circle cx="55.4100" cy="72.7900" r="0.8500" /> 
</g>
<g style="fill:#C83434; fill-opacity:1.0000; stroke:none;">
<circle cx="55.4100" cy="75.3300" r="0.8500" /> 
</g>
<g style="fill:#C83434; fill-opacity:1.0000; stroke:none;">
<circle cx="55.4100" cy="77.8700" r="0.8500" /> 
</g>
<g style="fill:#C83434; fill-opacity:1.0000; stroke:none;">
<circle cx="55.4100" cy="80.4100" r="0.8500" /> 
</g>
<g style="fill:#C83434; fill-opacity:1.0000; stroke:none;">
<circle cx="55.4100" cy="82.9500" r="0.8500" /> 
</g>
<g style="fill:#C83434; fill-opacity:1.0000; stroke:none;">
<circle cx="55.4100" cy="85.4900" r="0.8500" /> 
</g>
<g style="fill:#C83434; fill-opacity:1.0000; stroke:none;">
<circle cx="55.4100" cy="88.0300" r="0.8500" /> 
</g>
<g style="fill:#C83434; fill-opacity:1.0000; stroke:none;">
<circle cx="55.4100" cy="90.5700" r="0.8500" /> 
</g>
<g style="fill:#C83434; fill-opacity:1.0000; stroke:none;">
<circle cx="55.4100" cy="93.1100" r="0.8500" /> 
</g>
<g style="fill:#C83434; fill-opacity:1.0000; stroke:none;">
<circle cx="55.4100" cy="95.6500" r="0.8500" /> 
</g>
<g style="fill:#C83434; fill-opacity:1.0000; stroke:none;">
<circle cx="55.4100" cy="98.1900" r="0.8500" /> 
</g>
<g style="fill:#C83434; fill-opacity:1.0000; stroke:none;">
<circle cx="55.4100" cy="100.7300" r="0.8500" /> 
</g>
<g style="fill:#C83434; fill-opacity:1.0000; stroke:none;">
<circle cx="55.4100" cy="103.2700" r="0.8500" /> 
</g>
<g style="fill:#C83434; fill-opacity:1.0000; stroke:none;">
<circle cx="55.4100" cy="105.8100" r="0.8500" /> 
</g>
<g style="fill:#C83434; fill-opacity:1.0000; stroke:none;">
<circle cx="55.4100" cy="108.3500" r="0.8500" /> 
</g>
<g style="fill:#C83434; fill-opacity:1.0000; stroke:none;">
<circle cx="55.4100" cy="110.8900" r="0.8500" /> 
</g>
<g style="fill:#C83434; fill-opacity:1.0000; stroke:none;">
<circle cx="55.4100" cy="113.4300" r="0.8500" /> 
</g>
<g style="fill:#C83434; fill-opacity:1.0000; stroke:none;">
<circle cx="55.4100" cy="115.9700" r="0.8500" /> 
</g>
<g style="fill:#C83434; fill-opacity:1.0000; stroke:none;">
<circle cx="55.4100" cy="118.5100" r="0.8500" /> 
<path style="fill:#C83434; fill-opacity:1.0000; stroke:none;fill-rule:evenodd;"
d="M 58.4800,77.4900
58.4956,77.3830
58.5498,77.2721
58.6371,77.1848
58.7480,77.1306
58.8550,77.1150
60.1050,77.1150
60.2120,77.1306
60.3229,77.1848
60.4102,77.2721
60.4644,77.3830
60.4800,77.4900
60.4800,78.2400
60.4644,78.3470
60.4102,78.4579
60.3229,78.5452
60.2120,78.5994
60.1050,78.6150
58.8550,78.6150
58.7480,78.5994
58.6371,78.5452
58.5498,78.4579
58.4956,78.3470
58.4800,78.2400
Z" /> 
<path style="fill:#C83434; fill-opacity:1.0000; stroke:none;fill-rule:evenodd;"
d="M 58.4800,79.7900
58.4956,79.6830
58.5498,79.5721
58.6371,79.4848
58.7480,79.4306
58.8550,79.4150
60.1050,79.4150
60.2120,79.4306
60.3229,79.4848
60.4102,79.5721
60.4644,79.6830
60.4800,79.7900
60.4800,80.5400
60.4644,80.6470
60.4102,80.7579
60.3229,80.8452
60.2120,80.8994
60.1050,80.9150
58.8550,80.9150
58.7480,80.8994
58.6371,80.8452
58.5498,80.7579
58.4956,80.6470
58.4800,80.5400
Z" /> 
<path style="fill:#C83434; fill-opacity:1.0000; stroke:none;fill-rule:evenodd;"
d="M 64.7800,78.7650
64.7914,78.6587
64.8412,78.5254
64.9264,78.4114
65.0404,78.3262
65.1737,78.2764
65.2800,78.2650
66.2800,78.2650
66.3863,78.2764
66.5196,78.3262
66.6336,78.4114
66.7188,78.5254
66.7686,78.6587
66.7800,78.7650
66.7800,81.5650
66.7686,81.6713
66.7188,81.8046
66.6336,81.9186
66.5196,82.0038
66.3863,82.0536
66.2800,82.0650
65.2800,82.0650
65.1737,82.0536
65.0404,82.0038
64.9264,81.9186
64.8412,81.8046
64.7914,81.6713
64.7800,81.5650
Z" /> 
<path style="fill:#C83434; fill-opacity:1.0000; stroke:none;fill-rule:evenodd;"
d="M 58.4800,82.0900
58.4956,81.9830
58.5498,81.8721
58.6371,81.7848
58.7480,81.7306
58.8550,81.7150
60.1050,81.7150
60.2120,81.7306
60.3229,81.7848
60.4102,81.8721
60.4644,81.9830
60.4800,82.0900
60.4800,82.8400
60.4644,82.9470
60.4102,83.0579
60.3229,83.1452
60.2120,83.1994
60.1050,83.2150
58.8550,83.2150
58.7480,83.1994
58.6371,83.1452
58.5498,83.0579
58.4956,82.9470
58.4800,82.8400
Z" /> 
<path style="fill:#C83434; fill-opacity:1.0000; stroke:none;fill-rule:evenodd;"
d="M 63.0700,30.2250
63.0890,30.1293
63.1432,30.0482
63.2243,29.9940
63.3200,29.9750
63.8200,29.9750
63.9157,29.9940
63.9968,30.0482
64.0510,30.1293
64.0700,30.2250
64.0700,31.1750
64.0510,31.2707
63.9968,31.3518
63.9157,31.4060
63.8200,31.4250
63.3200,31.4250
63.2243,31.4060
63.1432,31.3518
63.0890,31.2707
63.0700,31.1750
Z" /> 
<path style="fill:#C83434; fill-opacity:1.0000; stroke:none;fill-rule:evenodd;"
d="M 64.9700,30.2250
64.9890,30.1293
65.0432,30.0482
65.1243,29.9940
65.2200,29.9750
65.7200,29.9750
65.8157,29.9940
65.8968,30.0482
65.9510,30.1293
65.9700,30.2250
65.9700,31.1750
65.9510,31.2707
65.8968,31.3518
65.8157,31.4060
65.7200,31.4250
65.2200,31.4250
65.1243,31.4060
65.0432,31.3518
64.9890,31.2707
64.9700,31.1750
Z" /> 
<path style="fill:#C83434; fill-opacity:1.0000; stroke:none;fill-rule:evenodd;"
d="M 59.1500,20.3100
59.1500,18.6100
60.8500,18.6100
60.8500,20.3100
Z" /> 
</g>
<g style="fill:#C83434; fill-opacity:1.0000; stroke:none;">
<circle cx="60.0000" cy="22.0000" r="0.8500" /> 
</g>
<g style="fill:#C83434; fill-opacity:1.0000; stroke:none;">
<circle cx="60.0000" cy="24.5400" r="0.8500" /> 
</g>
<g style="fill:#C83434; fill-opacity:1.0000; stroke:none;">
<circle cx="60.0000" cy="27.0800" r="0.8500" /> 
</g>
<g style="fill:#C83434; fill-opacity:1.0000; stroke:none;">
<circle cx="60.0000" cy="29.6200" r="0.8500" /> 
</g>
<g style="fill:#C83434; fill-opacity:1.0000; stroke:none;">
<circle cx="60.0000" cy="32.1600" r="0.8500" /> 
</g>
<g style="fill:#C83434; fill-opacity:1.0000; stroke:none;">
<circle cx="60.0000" cy="34.7000" r="0.8500" /> 
</g>
<g style="fill:#C83434; fill-opacity:1.0000; stroke:none;">
<circle cx="60.0000" cy="37.2400" r="0.8500" /> 
</g>
<g style="fill:#C83434; fill-opacity:1.0000; stroke:none;">
<circle cx="60.0000" cy="39.7800" r="0.8500" /> 
</g>
<g style="fill:#C83434; fill-opacity:1.0000; stroke:none;">
<circle cx="60.0000" cy="42.3200" r="0.8500" /> 
</g>
<g style="fill:#C83434; fill-opacity:1.0000; stroke:none;">
<circle cx="60.0000" cy="44.8600" r="0.8500" /> 
</g>
<g style="fill:#C83434; fill-opacity:1.0000; stroke:none;">
<circle cx="60.0000" cy="47.4000" r="0.8500" /> 
</g>
<g style="fill:#C83434; fill-opacity:1.0000; stroke:none;">
<circle cx="60.0000" cy="49.9400" r="0.8500" /> 
</g>
<g style="fill:#C83434; fill-opacity:1.0000; stroke:none;">
<circle cx="60.0000" cy="52.4800" r="0.8500" /> 
</g>
<g style="fill:#C83434; fill-opacity:1.0000; stroke:none;">
<circle cx="60.0000" cy="55.0200" r="0.8500" /> 
</g>
<g style="fill:#C83434; fill-opacity:1.0000; stroke:none;">
<circle cx="60.0000" cy="57.5600" r="0.8500" /> 
</g>
<g style="fill:#C83434; fill-opacity:1.0000; stroke:none;">
<circle cx="60.0000" cy="60.1000" r="0.8500" /> 
</g>
<g style="fill:#C83434; fill-opacity:1.0000; stroke:none;">
<circle cx="60.0000" cy="62.6400" r="0.8500" /> 
</g>
<g style="fill:#C83434; fill-opacity:1.0000; stroke:none;">
<circle cx="60.0000" cy="65.1800" r="0.8500" /> 
</g>
<g style="fill:#C83434; fill-opacity:1.0000; stroke:none;">
<circle cx="60.0000" cy="67.7200" r="0.8500" /> 
<path style="fill:#C83434; fill-opacity:1.0000; stroke:none;fill-rule:evenodd;"
d="M 63.0700,18.1850
63.0890,18.0893
63.1432,18.0082
63.2243,17.9540
63.3200,17.9350
63.8200,17.9350
63.9157,17.9540
63.9968,18.0082
64.0510,18.0893
64.0700,18.1850
64.0700,19.1350
64.0510,19.2307
63.9968,19.3118
63.9157,19.3660
63.8200,19.3850
63.3200,19.3850
63.2243,19.3660
63.1432,19.3118
63.0890,19.2307
63.0700,19.1350
Z" /> 
<path style="fill:#C83434; fill-opacity:1.0000; stroke:none;fill-rule:evenodd;"
d="M 64.9700,18.1850
64.9890,18.0893
65.0432,18.0082
65.1243,17.9540
65.2200,17.9350
65.7200,17.9350
65.8157,17.9540
65.8968,18.0082
65.9510,18.0893
65.9700,18.1850
65.9700,19.1350
65.9510,19.2307
65.8968,19.3118
65.8157,19.3660
65.7200,19.3850
65.2200,19.3850
65.1243,19.3660
65.0432,19.3118
64.9890,19.2307
64.9700,19.1350
Z" /> 
<path style="fill:#C83434; fill-opacity:1.0000; stroke:none;fill-rule:evenodd;"
d="M 63.0700,27.2150
63.0890,27.1193
63.1432,27.0382
63.2243,26.9840
63.3200,26.9650
63.8200,26.9650
63.9157,26.9840
63.9968,27.0382
64.0510,27.1193
64.0700,27.2150
64.0700,28.1650
64.0510,28.2607
63.9968,28.3418
63.9157,28.3960
63.8200,28.4150
63.3200,28.4150
63.2243,28.3960
63.1432,28.3418
63.0890,28.2607
63.0700,28.1650
Z" /> 
<path style="fill:#C83434; fill-opacity:1.0000; stroke:none;fill-rule:evenodd;"
d="M 64.9700,27.2150
64.9890,27.1193
65.0432,27.0382
65.1243,26.9840
65.2200,26.9650
65.7200,26.9650
65.8157,26.9840
65.8968,27.0382
65.9510,27.1193
65.9700,27.2150
65.9700,28.1650
65.9510,28.2607
65.8968,28.3418
65.8157,28.3960
65.7200,28.4150
65.2200,28.4150
65.1243,28.3960
65.0432,28.3418
64.9890,28.2607
64.9700,28.1650
Z" /> 
<path style="fill:#C83434; fill-opacity:1.0000; stroke:none;fill-rule:evenodd;"
d="M 63.0700,24.2050
63.0890,24.1093
63.1432,24.0282
63.2243,23.9740
63.3200,23.9550
63.8200,23.9550
63.9157,23.9740
63.9968,24.0282
64.0510,24.1093
64.0700,24.2050
64.0700,25.1550
64.0510,25.2507
63.9968,25.3318
63.9157,25.3860
63.8200,25.4050
63.3200,25.4050
63.2243,25.3860
63.1432,25.3318
63.0890,25.2507
63.0700,25.1550
Z" /> 
<path style="fill:#C83434; fill-opacity:1.0000; stroke:none;fill-rule:evenodd;"
d="M 64.9700,24.2050
64.9890,24.1093
65.0432,24.0282
65.1243,23.9740
65.2200,23.9550
65.7200,23.9550
65.8157,23.9740
65.8968,24.0282
65.9510,24.1093
65.9700,24.2050
65.9700,25.1550
65.9510,25.2507
65.8968,25.3318
65.8157,25.3860
65.7200,25.4050
65.2200,25.4050
65.1243,25.3860
65.0432,25.3318
64.9890,25.2507
64.9700,25.1550
Z" /> 
<path style="fill:#C83434; fill-opacity:1.0000; stroke:none;fill-rule:evenodd;"
d="M 63.0700,21.1950
63.0890,21.0993
63.1432,21.0182
63.2243,20.9640
63.3200,20.9450
63.8200,20.9450
63.9157,20.9640
63.9968,21.0182
64.0510,21.0993
64.0700,21.1950
64.0700,22.1450
64.0510,22.2407
63.9968,22.3218
63.9157,22.3760
63.8200,22.3950
63.3200,22.3950
63.2243,22.3760
63.1432,22.3218
63.0890,22.2407
63.0700,22.1450
Z" /> 
<path style="fill:#C83434; fill-opacity:1.0000; stroke:none;fill-rule:evenodd;"
d="M 64.9700,21.1950
64.9890,21.0993
65.0432,21.0182
65.1243,20.9640
65.2200,20.9450
65.7200,20.9450
65.8157,20.9640
65.8968,21.0182
65.9510,21.0993
65.9700,21.1950
65.9700,22.1450
65.9510,22.2407
65.8968,22.3218
65.8157,22.3760
65.7200,22.3950
65.2200,22.3950
65.1243,22.3760
65.0432,22.3218
64.9890,22.2407
64.9700,22.1450
Z" /> 
<path style="fill:#C83434; fill-opacity:1.0000; stroke:none;fill-rule:evenodd;"
d="M 59.9875,74.9400
59.9875,72.9400
61.8925,72.9400
61.8925,74.9400
Z" /> 
</g>
<g style="fill:none; 
stroke:#C83434; stroke-width:1.9050; stroke-opacity:1; 
stroke-linecap:round; stroke-linejoin:round;">
<path d="M63.4800 73.8925
L63.4800 73.9875
" />
<path d="M66.0200 73.8925
L66.0200 73.9875
" />
</g>
<g style="fill:none; 
stroke:#F2EDA1; stroke-width:0.1500; stroke-opacity:1; 
stroke-linecap:round; stroke-linejoin:round;">
<text x="55.4100" y="17.5700"
textLength="1.9643" font-size="1.3333" lengthAdjust="spacingAndGlyphs"
text-anchor="middle" opacity="0" stroke-opacity="0">J1</text>
<g class="stroked-text"><desc>J1</desc>
<path d="M55.0767 16.5248
L55.0767 17.2391
" />
<path d="M55.0767 17.2391
L55.0290 17.3820
" />
<path d="M55.0290 17.3820
L54.9338 17.4772
" />
<path d="M54.9338 17.4772
L54.7910 17.5248
" />
<path d="M54.7910 17.5248
L54.6957 17.5248
" />
<path d="M56.0767 17.5248
L55.5052 17.5248
" />
<path d="M55.7910 17.5248
L55.7910 16.5248
" />
<path d="M55.7910 16.5248
L55.6957 16.6677
" />
<path d="M55.6957 16.6677
L55.6005 16.7629
" />
<path d="M55.6005 16.7629
L55.5052 16.8105
" />
</g><text x="62.6300" y="76.1650"
textLength="2.2500" font-size="1.3333" lengthAdjust="spacingAndGlyphs"
text-anchor="middle" opacity="0" stroke-opacity="0">U2</text>
<g class="stroked-text"><desc>U2</desc>
<path d="M61.8681 75.1198
L61.8681 75.9293
" />
<path d="M61.8681 75.9293
L61.9157 76.0246
" />
<path d="M61.9157 76.0246
L61.9633 76.0722
" />
<path d="M61.9633 76.0722
L62.0586 76.1198
" />
<path d="M62.0586 76.1198
L62.2490 76.1198
" />
<path d="M62.2490 76.1198
L62.3443 76.0722
" />
<path d="M62.3443 76.0722
L62.3919 76.0246
" />
<path d="M62.3919 76.0246
L62.4395 75.9293
" />
<path d="M62.4395 75.9293
L62.4395 75.1198
" />
<path d="M62.8681 75.2151
L62.9157 75.1674
" />
<path d="M62.9157 75.1674
L63.0110 75.1198
" />
<path d="M63.0110 75.1198
L63.2490 75.1198
" />
<path d="M63.2490 75.1198
L63.3443 75.1674
" />
<path d="M63.3443 75.1674
L63.3919 75.2151
" />
<path d="M63.3919 75.2151
L63.4395 75.3103
" />
<path d="M63.4395 75.3103
L63.4395 75.4055
" />
<path d="M63.4395 75.4055
L63.3919 75.5484
" />
<path d="M63.3919 75.5484
L62.8205 76.1198
" />
<path d="M62.8205 76.1198
L63.4395 76.1198
" />
</g><text x="64.5200" y="29.5200"
textLength="2.2024" font-size="1.3333" lengthAdjust="spacingAndGlyphs"
text-anchor="middle" opacity="0" stroke-opacity="0">C5</text>
<g class="stroked-text"><desc>C5</desc>
<path d="M64.3533 29.3796
L64.3057 29.4272
" />
<path d="M64.3057 29.4272
L64.1629 29.4748
" />
<path d="M64.1629 29.4748
L64.0676 29.4748
" />
<path d="M64.0676 29.4748
L63.9248 29.4272
" />
<path d="M63.9248 29.4272
L63.8295 29.3320
" />
<path d="M63.8295 29.3320
L63.7819 29.2367
" />
<path d="M63.7819 29.2367
L63.7343 29.0462
" />
<path d="M63.7343 29.0462
L63.7343 28.9034
" />
<path d="M63.7343 28.9034
L63.7819 28.7129
" />
<path d="M63.7819 28.7129
L63.8295 28.6177
" />
<path d="M63.8295 28.6177
L63.9248 28.5224
" />
<path d="M63.9248 28.5224
L64.0676 28.4748
" />
<path d="M64.0676 28.4748
L64.1629 28.4748
" />
<path d="M64.1629 28.4748
L64.3057 28.5224
" />
<path d="M64.3057 28.5224
L64.3533 28.5701
" />
<path d="M65.2581 28.4748
L64.7819 28.4748
" />
<path d="M64.7819 28.4748
L64.7343 28.9510
" />
<path d="M64.7343 28.9510
L64.7819 28.9034
" />
<path d="M64.7819 28.9034
L64.8771 28.8558
" />
<path d="M64.8771 28.8558
L65.1152 28.8558
" />
<path d="M65.1152 28.8558
L65.2105 28.9034
" />
<path d="M65.2105 28.9034
L65.2581 28.9510
" />
<path d="M65.2581 28.9510
L65.3057 29.0462
" />
<path d="M65.3057 29.0462
L65.3057 29.2843
" />
<path d="M65.3057 29.2843
L65.2581 29.3796
" />
<path d="M65.2581 29.3796
L65.2105 29.4272
" />
<path d="M65.2105 29.4272
L65.1152 29.4748
" />
<path d="M65.1152 29.4748
L64.8771 29.4748
" />
<path d="M64.8771 29.4748
L64.7819 29.4272
" />
<path d="M64.7819 29.4272
L64.7343 29.3796
" />
</g><text x="60.0000" y="17.5800"
textLength="1.9643" font-size="1.3333" lengthAdjust="spacingAndGlyphs"
text-anchor="middle" opacity="0" stroke-opacity="0">J2</text>
<g class="stroked-text"><desc>J2</desc>
<path d="M59.6667 16.5348
L59.6667 17.2491
" />
<path d="M59.6667 17.2491
L59.6190 17.3920
" />
<path d="M59.6190 17.3920
L59.5238 17.4872
" />
<path d="M59.5238 17.4872
L59.3810 17.5348
" />
<path d="M59.3810 17.5348
L59.2857 17.5348
" />
<path d="M60.0952 16.6301
L60.1429 16.5824
" />
<path d="M60.1429 16.5824
L60.2381 16.5348
" />
<path d="M60.2381 16.5348
L60.4762 16.5348
" />
<path d="M60.4762 16.5348
L60.5714 16.5824
" />
<path d="M60.5714 16.5824
L60.6190 16.6301
" />
<path d="M60.6190 16.6301
L60.6667 16.7253
" />
<path d="M60.6667 16.7253
L60.6667 16.8205
" />
<path d="M60.6667 16.8205
L60.6190 16.9634
" />
<path d="M60.6190 16.9634
L60.0476 17.5348
" />
<path d="M60.0476 17.5348
L60.6667 17.5348
" />
</g><text x="64.5200" y="17.4800"
textLength="2.2024" font-size="1.3333" lengthAdjust="spacingAndGlyphs"
text-anchor="middle" opacity="0" stroke-opacity="0">C1</text>
<g class="stroked-text"><desc>C1</desc>
<path d="M64.3533 17.3396
L64.3057 17.3872
" />
<path d="M64.3057 17.3872
L64.1629 17.4348
" />
<path d="M64.1629 17.4348
L64.0676 17.4348
" />
<path d="M64.0676 17.4348
L63.9248 17.3872
" />
<path d="M63.9248 17.3872
L63.8295 17.2920
" />
<path d="M63.8295 17.2920
L63.7819 17.1967
" />
<path d="M63.7819 17.1967
L63.7343 17.0062
" />
<path d="M63.7343 17.0062
L63.7343 16.8634
" />
<path d="M63.7343 16.8634
L63.7819 16.6729
" />
<path d="M63.7819 16.6729
L63.8295 16.5777
" />
<path d="M63.8295 16.5777
L63.9248 16.4824
" />
<path d="M63.9248 16.4824
L64.0676 16.4348
" />
<path d="M64.0676 16.4348
L64.1629 16.4348
" />
<path d="M64.1629 16.4348
L64.3057 16.4824
" />
<path d="M64.3057 16.4824
L64.3533 16.5301
" />
<path d="M65.3057 17.4348
L64.7343 17.4348
" />
<path d="M65.0200 17.4348
L65.0200 16.4348
" />
<path d="M65.0200 16.4348
L64.9248 16.5777
" />
<path d="M64.9248 16.5777
L64.8295 16.6729
" />
<path d="M64.8295 16.6729
L64.7343 16.7205
" />
</g><text x="64.5200" y="26.5100"
textLength="2.2024" font-size="1.3333" lengthAdjust="spacingAndGlyphs"
text-anchor="middle" opacity="0" stroke-opacity="0">C4</text>
<g class="stroked-text"><desc>C4</desc>
<path d="M64.3533 26.3696
L64.3057 26.4172
" />
<path d="M64.3057 26.4172
L64.1629 26.4648
" />
<path d="M64.1629 26.4648
L64.0676 26.4648
" />
<path d="M64.0676 26.4648
L63.9248 26.4172
" />
<path d="M63.9248 26.4172
L63.8295 26.3220
" />
<path d="M63.8295 26.3220
L63.7819 26.2267
" />
<path d="M63.7819 26.2267
L63.7343 26.0362
" />
<path d="M63.7343 26.0362
L63.7343 25.8934
" />
<path d="M63.7343 25.8934
L63.7819 25.7029
" />
<path d="M63.7819 25.7029
L63.8295 25.6077
" />
<path d="M63.8295 25.6077
L63.9248 25.5124
" />
<path d="M63.9248 25.5124
L64.0676 25.4648
" />
<path d="M64.0676 25.4648
L64.1629 25.4648
" />
<path d="M64.1629 25.4648
L64.3057 25.5124
" />
<path d="M64.3057 25.5124
L64.3533 25.5601
" />
<path d="M65.2105 25.7982
L65.2105 26.4648
" />
<path d="M64.9724 25.4172
L64.7343 26.1315
" />
<path d="M64.7343 26.1315
L65.3533 26.1315
" />
</g><text x="64.5200" y="23.5000"
textLength="2.2024" font-size="1.3333" lengthAdjust="spacingAndGlyphs"
text-anchor="middle" opacity="0" stroke-opacity="0">C3</text>
<g class="stroked-text"><desc>C3</desc>
<path d="M64.3533 23.3596
L64.3057 23.4072
" />
<path d="M64.3057 23.4072
L64.1629 23.4548
" />
<path d="M64.1629 23.4548
L64.0676 23.4548
" />
<path d="M64.0676 23.4548
L63.9248 23.4072
" />
<path d="M63.9248 23.4072
L63.8295 23.3120
" />
<path d="M63.8295 23.3120
L63.7819 23.2167
" />
<path d="M63.7819 23.2167
L63.7343 23.0262
" />
<path d="M63.7343 23.0262
L63.7343 22.8834
" />
<path d="M63.7343 22.8834
L63.7819 22.6929
" />
<path d="M63.7819 22.6929
L63.8295 22.5977
" />
<path d="M63.8295 22.5977
L63.9248 22.5024
" />
<path d="M63.9248 22.5024
L64.0676 22.4548
" />
<path d="M64.0676 22.4548
L64.1629 22.4548
" />
<path d="M64.1629 22.4548
L64.3057 22.5024
" />
<path d="M64.3057 22.5024
L64.3533 22.5501
" />
<path d="M64.6867 22.4548
L65.3057 22.4548
" />
<path d="M65.3057 22.4548
L64.9724 22.8358
" />
<path d="M64.9724 22.8358
L65.1152 22.8358
" />
<path d="M65.1152 22.8358
L65.2105 22.8834
" />
<path d="M65.2105 22.8834
L65.2581 22.9310
" />
<path d="M65.2581 22.9310
L65.3057 23.0262
" />
<path d="M65.3057 23.0262
L65.3057 23.2643
" />
<path d="M65.3057 23.2643
L65.2581 23.3596
" />
<path d="M65.2581 23.3596
L65.2105 23.4072
" />
<path d="M65.2105 23.4072
L65.1152 23.4548
" />
<path d="M65.1152 23.4548
L64.8295 23.4548
" />
<path d="M64.8295 23.4548
L64.7343 23.4072
" />
<path d="M64.7343 23.4072
L64.6867 23.3596
" />
</g><text x="64.5200" y="20.4900"
textLength="2.2024" font-size="1.3333" lengthAdjust="spacingAndGlyphs"
text-anchor="middle" opacity="0" stroke-opacity="0">C2</text>
<g class="stroked-text"><desc>C2</desc>
<path d="M64.3533 20.3496
L64.3057 20.3972
" />
<path d="M64.3057 20.3972
L64.1629 20.4448
" />
<path d="M64.1629 20.4448
L64.0676 20.4448
" />
<path d="M64.0676 20.4448
L63.9248 20.3972
" />
<path d="M63.9248 20.3972
L63.8295 20.3020
" />
<path d="M63.8295 20.3020
L63.7819 20.2067
" />
<path d="M63.7819 20.2067
L63.7343 20.0162
" />
<path d="M63.7343 20.0162
L63.7343 19.8734
" />
<path d="M63.7343 19.8734
L63.7819 19.6829
" />
<path d="M63.7819 19.6829
L63.8295 19.5877
" />
<path d="M63.8295 19.5877
L63.9248 19.4924
" />
<path d="M63.9248 19.4924
L64.0676 19.4448
" />
<path d="M64.0676 19.4448
L64.1629 19.4448
" />
<path d="M64.1629 19.4448
L64.3057 19.4924
" />
<path d="M64.3057 19.4924
L64.3533 19.5401
" />
<path d="M64.7343 19.5401
L64.7819 19.4924
" />
<path d="M64.7819 19.4924
L64.8771 19.4448
" />
<path d="M64.8771 19.4448
L65.1152 19.4448
" />
<path d="M65.1152 19.4448
L65.2105 19.4924
" />
<path d="M65.2105 19.4924
L65.2581 19.5401
" />
<path d="M65.2581 19.5401
L65.3057 19.6353
" />
<path d="M65.3057 19.6353
L65.3057 19.7305
" />
<path d="M65.3057 19.7305
L65.2581 19.8734
" />
<path d="M65.2581 19.8734
L64.6867 20.4448
" />
<path d="M64.6867 20.4448
L65.3057 20.4448
" />
</g><text x="63.4800" y="70.3400"
textLength="2.2500" font-size="1.3333" lengthAdjust="spacingAndGlyphs"
text-anchor="middle" opacity="0" stroke-opacity="0">U1</text>
<g class="stroked-text"><desc>U1</desc>
<path d="M62.7181 69.2948
L62.7181 70.1043
" />
<path d="M62.7181 70.1043
L62.7657 70.1996
" />
<path d="M62.7657 70.1996
L62.8133 70.2472
" />
<path d="M62.8133 70.2472
L62.9086 70.2948
" />
<path d="M62.9086 70.2948
L63.0990 70.2948
" />
<path d="M63.0990 70.2948
L63.1943 70.2472
" />
<path d="M63.1943 70.2472
L63.2419 70.1996
" />
<path d="M63.2419 70.1996
L63.2895 70.1043
" />
<path d="M63.2895 70.1043
L63.2895 69.2948
" />
<path d="M64.2895 70.2948
L63.7181 70.2948
" />
<path d="M64.0038 70.2948
L64.0038 69.2948
" />
<path d="M64.0038 69.2948
L63.9086 69.4377
" />
<path d="M63.9086 69.4377
L63.8133 69.5329
" />
<path d="M63.8133 69.5329
L63.7181 69.5805
" />
</g></g>
<g style="fill:none; 
stroke:#F2EDA1; stroke-width:0.1200; stroke-opacity:1; 
stroke-linecap:round; stroke-linejoin:round;">
<path d="M54.0300 18.0700
L55.4100 18.0700
" />
<path d="M54.0300 19.4500
L54.0300 18.0700
" />
<path d="M54.0300 20.7200
L54.0300 119.8900
" />
<path d="M54.0300 20.7200
L56.7900 20.7200
" />
<path d="M54.0300 119.8900
L56.7900 119.8900
" />
<path d="M56.7900 20.7200
L56.7900 119.8900
" />
<path d="M60.7800 76.7550
L64.5400 76.7550
" />
<path d="M60.7800 83.5750
L64.5400 83.5750
" />
<path d="M64.5400 76.7550
L64.5400 78.0150
" />
<path d="M64.5400 83.5750
L64.5400 82.3150
" />
<path style="fill:#F2EDA1; fill-opacity:1.0000; 
stroke:#F2EDA1; stroke-width:0.1200; stroke-opacity:1; 
stroke-linecap:round; stroke-linejoin:round;fill-rule:evenodd;"
d="M 59.5000,76.8550
59.2600,76.5250
59.7400,76.5250
Z" /> 
</g>
<g style="fill:none; 
stroke:#F2EDA1; stroke-width:0.1200; stroke-opacity:1; 
stroke-linecap:round; stroke-linejoin:round;">
<path d="M64.2587 29.9650
L64.7813 29.9650
" />
<path d="M64.2587 31.4350
L64.7813 31.4350
" />
<path d="M58.6200 18.0800
L60.0000 18.0800
" />
<path d="M58.6200 19.4600
L58.6200 18.0800
" />
<path d="M58.6200 20.7300
L58.6200 69.1000
" />
<path d="M58.6200 20.7300
L61.3800 20.7300
" />
<path d="M58.6200 69.1000
L61.3800 69.1000
" />
<path d="M61.3800 20.7300
L61.3800 69.1000
" />
<path d="M64.2587 17.9250
L64.7813 17.9250
" />
<path d="M64.2587 19.3950
L64.7813 19.3950
" />
<path d="M64.2587 26.9550
L64.7813 26.9550
" />
<path d="M64.2587 28.4250
L64.7813 28.4250
" />
<path d="M64.2587 23.9450
L64.7813 23.9450
" />
<path d="M64.2587 25.4150
L64.7813 25.4150
" />
<path d="M64.2587 20.9350
L64.7813 20.9350
" />
<path d="M64.2587 22.4050
L64.7813 22.4050
" />
<path d="M58.3700 70.6800
L68.5900 70.6800
" />
<path d="M58.3700 72.0600
L68.5900 72.0600
" />
<path d="M58.3700 75.3000
L58.3700 70.6800
" />
<path d="M61.6300 70.6800
L61.6300 72.0600
" />
<path d="M65.3300 70.6800
L65.3300 72.0600
" />
<path d="M68.5900 70.6800
L68.5900 75.3000
" />
<path d="M68.5900 75.3000
L58.3700 75.3000
" />
</g>
<g style="fill:#FFFFFF; fill-opacity:1.0000; stroke:none;">
<circle cx="55.4100" cy="19.4500" r="0.5000" /> 
</g>
<g style="fill:#FFFFFF; fill-opacity:1.0000; stroke:none;">
<circle cx="55.4100" cy="21.9900" r="0.5000" /> 
</g>
<g style="fill:#FFFFFF; fill-opacity:1.0000; stroke:none;">
<circle cx="55.4100" cy="24.5300" r="0.5000" /> 
</g>
<g style="fill:#FFFFFF; fill-opacity:1.0000; stroke:none;">
<circle cx="55.4100" cy="27.0700" r="0.5000" /> 
</g>
<g style="fill:#FFFFFF; fill-opacity:1.0000; stroke:none;">
<circle cx="55.4100" cy="29.6100" r="0.5000" /> 
</g>
<g style="fill:#FFFFFF; fill-opacity:1.0000; stroke:none;">
<circle cx="55.4100" cy="32.1500" r="0.5000" /> 
</g>
<g style="fill:#FFFFFF; fill-opacity:1.0000; stroke:none;">
<circle cx="55.4100" cy="34.6900" r="0.5000" /> 
</g>
<g style="fill:#FFFFFF; fill-opacity:1.0000; stroke:none;">
<circle cx="55.4100" cy="37.2300" r="0.5000" /> 
</g>
<g style="fill:#FFFFFF; fill-opacity:1.0000; stroke:none;">
<circle cx="55.4100" cy="39.7700" r="0.5000" /> 
</g>
<g style="fill:#FFFFFF; fill-opacity:1.0000; stroke:none;">
<circle cx="55.4100" cy="42.3100" r="0.5000" /> 
</g>
<g style="fill:#FFFFFF; fill-opacity:1.0000; stroke:none;">
<circle cx="55.4100" cy="44.8500" r="0.5000" /> 
</g>
<g style="fill:#FFFFFF; fill-opacity:1.0000; stroke:none;">
<circle cx="55.4100" cy="47.3900" r="0.5000" /> 
</g>
<g style="fill:#FFFFFF; fill-opacity:1.0000; stroke:none;">
<circle cx="55.4100" cy="49.9300" r="0.5000" /> 
</g>
<g style="fill:#FFFFFF; fill-opacity:1.0000; stroke:none;">
<circle cx="55.4100" cy="52.4700" r="0.5000" /> 
</g>
<g style="fill:#FFFFFF; fill-opacity:1.0000; stroke:none;">
<circle cx="55.4100" cy="55.0100" r="0.5000" /> 
</g>
<g style="fill:#FFFFFF; fill-opacity:1.0000; stroke:none;">
<circle cx="55.4100" cy="57.5500" r="0.5000" /> 
</g>
<g style="fill:#FFFFFF; fill-opacity:1.0000; stroke:none;">
<circle cx="55.4100" cy="60.0900" r="0.5000" /> 
</g>
<g style="fill:#FFFFFF; fill-opacity:1.0000; stroke:none;">
<circle cx="55.4100" cy="62.6300" r="0.5000" /> 
</g>
<g style="fill:#FFFFFF; fill-opacity:1.0000; stroke:none;">
<circle cx="55.4100" cy="65.1700" r="0.5000" /> 
</g>
<g style="fill:#FFFFFF; fill-opacity:1.0000; stroke:none;">
<circle cx="55.4100" cy="67.7100" r="0.5000" /> 
</g>
<g style="fill:#FFFFFF; fill-opacity:1.0000; stroke:none;">
<circle cx="55.4100" cy="70.2500" r="0.5000" /> 
</g>
<g style="fill:#FFFFFF; fill-opacity:1.0000; stroke:none;">
<circle cx="55.4100" cy="72.7900" r="0.5000" /> 
</g>
<g style="fill:#FFFFFF; fill-opacity:1.0000; stroke:none;">
<circle cx="55.4100" cy="75.3300" r="0.5000" /> 
</g>
<g style="fill:#FFFFFF; fill-opacity:1.0000; stroke:none;">
<circle cx="55.4100" cy="77.8700" r="0.5000" /> 
</g>
<g style="fill:#FFFFFF; fill-opacity:1.0000; stroke:none;">
<circle cx="55.4100" cy="80.4100" r="0.5000" /> 
</g>
<g style="fill:#FFFFFF; fill-opacity:1.0000; stroke:none;">
<circle cx="55.4100" cy="82.9500" r="0.5000" /> 
</g>
<g style="fill:#FFFFFF; fill-opacity:1.0000; stroke:none;">
<circle cx="55.4100" cy="85.4900" r="0.5000" /> 
</g>
<g style="fill:#FFFFFF; fill-opacity:1.0000; stroke:none;">
<circle cx="55.4100" cy="88.0300" r="0.5000" /> 
</g>
<g style="fill:#FFFFFF; fill-opacity:1.0000; stroke:none;">
<circle cx="55.4100" cy="90.5700" r="0.5000" /> 
</g>
<g style="fill:#FFFFFF; fill-opacity:1.0000; stroke:none;">
<circle cx="55.4100" cy="93.1100" r="0.5000" /> 
</g>
<g style="fill:#FFFFFF; fill-opacity:1.0000; stroke:none;">
<circle cx="55.4100" cy="95.6500" r="0.5000" /> 
</g>
<g style="fill:#FFFFFF; fill-opacity:1.0000; stroke:none;">
<circle cx="55.4100" cy="98.1900" r="0.5000" /> 
</g>
<g style="fill:#FFFFFF; fill-opacity:1.0000; stroke:none;">
<circle cx="55.4100" cy="100.7300" r="0.5000" /> 
</g>
<g style="fill:#FFFFFF; fill-opacity:1.0000; stroke:none;">
<circle cx="55.4100" cy="103.2700" r="0.5000" /> 
</g>
<g style="fill:#FFFFFF; fill-opacity:1.0000; stroke:none;">
<circle cx="55.4100" cy="105.8100" r="0.5000" /> 
</g>
<g style="fill:#FFFFFF; fill-opacity:1.0000; stroke:none;">
<circle cx="55.4100" cy="108.3500" r="0.5000" /> 
</g>
<g style="fill:#FFFFFF; fill-opacity:1.0000; stroke:none;">
<circle cx="55.4100" cy="110.8900" r="0.5000" /> 
</g>
<g style="fill:#FFFFFF; fill-opacity:1.0000; stroke:none;">
<circle cx="55.4100" cy="113.4300" r="0.5000" /> 
</g>
<g style="fill:#FFFFFF; fill-opacity:1.0000; stroke:none;">
<circle cx="55.4100" cy="115.9700" r="0.5000" /> 
</g>
<g style="fill:#FFFFFF; fill-opacity:1.0000; stroke:none;">
<circle cx="55.4100" cy="118.5100" r="0.5000" /> 
</g>
<g style="fill:#FFFFFF; fill-opacity:1.0000; stroke:none;">
<circle cx="60.0000" cy="19.4600" r="0.5000" /> 
</g>
<g style="fill:#FFFFFF; fill-opacity:1.0000; stroke:none;">
<circle cx="60.0000" cy="22.0000" r="0.5000" /> 
</g>
<g style="fill:#FFFFFF; fill-opacity:1.0000; stroke:none;">
<circle cx="60.0000" cy="24.5400" r="0.5000" /> 
</g>
<g style="fill:#FFFFFF; fill-opacity:1.0000; stroke:none;">
<circle cx="60.0000" cy="27.0800" r="0.5000" /> 
</g>
<g style="fill:#FFFFFF; fill-opacity:1.0000; stroke:none;">
<circle cx="60.0000" cy="29.6200" r="0.5000" /> 
</g>
<g style="fill:#FFFFFF; fill-opacity:1.0000; stroke:none;">
<circle cx="60.0000" cy="32.1600" r="0.5000" /> 
</g>
<g style="fill:#FFFFFF; fill-opacity:1.0000; stroke:none;">
<circle cx="60.0000" cy="34.7000" r="0.5000" /> 
</g>
<g style="fill:#FFFFFF; fill-opacity:1.0000; stroke:none;">
<circle cx="60.0000" cy="37.2400" r="0.5000" /> 
</g>
<g style="fill:#FFFFFF; fill-opacity:1.0000; stroke:none;">
<circle cx="60.0000" cy="39.7800" r="0.5000" /> 
</g>
<g style="fill:#FFFFFF; fill-opacity:1.0000; stroke:none;">
<circle cx="60.0000" cy="42.3200" r="0.5000" /> 
</g>
<g style="fill:#FFFFFF; fill-opacity:1.0000; stroke:none;">
<circle cx="60.0000" cy="44.8600" r="0.5000" /> 
</g>
<g style="fill:#FFFFFF; fill-opacity:1.0000; stroke:none;">
<circle cx="60.0000" cy="47.4000" r="0.5000" /> 
</g>
<g style="fill:#FFFFFF; fill-opacity:1.0000; stroke:none;">
<circle cx="60.0000" cy="49.9400" r="0.5000" /> 
</g>
<g style="fill:#FFFFFF; fill-opacity:1.0000; stroke:none;">
<circle cx="60.0000" cy="52.4800" r="0.5000" /> 
</g>
<g style="fill:#FFFFFF; fill-opacity:1.0000; stroke:none;">
<circle cx="60.0000" cy="55.0200" r="0.5000" /> 
</g>
<g style="fill:#FFFFFF; fill-opacity:1.0000; stroke:none;">
<circle cx="60.0000" cy="57.5600" r="0.5000" /> 
</g>
<g style="fill:#FFFFFF; fill-opacity:1.0000; stroke:none;">
<circle cx="60.0000" cy="60.1000" r="0.5000" /> 
</g>
<g style="fill:#FFFFFF; fill-opacity:1.0000; stroke:none;">
<circle cx="60.0000" cy="62.6400" r="0.5000" /> 
</g>
<g style="fill:#FFFFFF; fill-opacity:1.0000; stroke:none;">
<circle cx="60.0000" cy="65.1800" r="0.5000" /> 
</g>
<g style="fill:#FFFFFF; fill-opacity:1.0000; stroke:none;">
<circle cx="60.0000" cy="67.7200" r="0.5000" /> 
</g>
<g style="fill:#FFFFFF; fill-opacity:1.0000; stroke:none;">
<circle cx="60.9400" cy="73.9400" r="0.5500" /> 
</g>
<g style="fill:#FFFFFF; fill-opacity:1.0000; stroke:none;">
<circle cx="63.4800" cy="73.9400" r="0.5500" /> 
</g>
<g style="fill:#FFFFFF; fill-opacity:1.0000; stroke:none;">
<circle cx="66.0200" cy="73.9400" r="0.5500" /> 
</g> 
</svg>
