%TF.GenerationSoftware,KiCad,Pcbnew,9.0.7*%
%TF.CreationDate,2026-03-09T09:38:49+05:30*%
%TF.ProjectId,AI_Jammer_Hardware,41495f4a-616d-46d6-9572-5f4861726477,rev?*%
%TF.SameCoordinates,Original*%
%TF.FileFunction,AssemblyDrawing,Top*%
%FSLAX46Y46*%
G04 Gerber Fmt 4.6, Leading zero omitted, Abs format (unit mm)*
G04 Created by KiCad (PCBNEW 9.0.7) date 2026-03-09 09:38:49*
%MOMM*%
%LPD*%
G01*
G04 APERTURE LIST*
%ADD10C,0.150000*%
%ADD11C,0.120000*%
%ADD12C,0.080000*%
%ADD13C,0.100000*%
G04 APERTURE END LIST*
D10*
X50100475Y-121249580D02*
X50052856Y-121297200D01*
X50052856Y-121297200D02*
X49909999Y-121344819D01*
X49909999Y-121344819D02*
X49814761Y-121344819D01*
X49814761Y-121344819D02*
X49671904Y-121297200D01*
X49671904Y-121297200D02*
X49576666Y-121201961D01*
X49576666Y-121201961D02*
X49529047Y-121106723D01*
X49529047Y-121106723D02*
X49481428Y-120916247D01*
X49481428Y-120916247D02*
X49481428Y-120773390D01*
X49481428Y-120773390D02*
X49529047Y-120582914D01*
X49529047Y-120582914D02*
X49576666Y-120487676D01*
X49576666Y-120487676D02*
X49671904Y-120392438D01*
X49671904Y-120392438D02*
X49814761Y-120344819D01*
X49814761Y-120344819D02*
X49909999Y-120344819D01*
X49909999Y-120344819D02*
X50052856Y-120392438D01*
X50052856Y-120392438D02*
X50100475Y-120440057D01*
X50671904Y-121344819D02*
X50576666Y-121297200D01*
X50576666Y-121297200D02*
X50529047Y-121249580D01*
X50529047Y-121249580D02*
X50481428Y-121154342D01*
X50481428Y-121154342D02*
X50481428Y-120868628D01*
X50481428Y-120868628D02*
X50529047Y-120773390D01*
X50529047Y-120773390D02*
X50576666Y-120725771D01*
X50576666Y-120725771D02*
X50671904Y-120678152D01*
X50671904Y-120678152D02*
X50814761Y-120678152D01*
X50814761Y-120678152D02*
X50909999Y-120725771D01*
X50909999Y-120725771D02*
X50957618Y-120773390D01*
X50957618Y-120773390D02*
X51005237Y-120868628D01*
X51005237Y-120868628D02*
X51005237Y-121154342D01*
X51005237Y-121154342D02*
X50957618Y-121249580D01*
X50957618Y-121249580D02*
X50909999Y-121297200D01*
X50909999Y-121297200D02*
X50814761Y-121344819D01*
X50814761Y-121344819D02*
X50671904Y-121344819D01*
X51433809Y-120678152D02*
X51433809Y-121344819D01*
X51433809Y-120773390D02*
X51481428Y-120725771D01*
X51481428Y-120725771D02*
X51576666Y-120678152D01*
X51576666Y-120678152D02*
X51719523Y-120678152D01*
X51719523Y-120678152D02*
X51814761Y-120725771D01*
X51814761Y-120725771D02*
X51862380Y-120821009D01*
X51862380Y-120821009D02*
X51862380Y-121344819D01*
X52338571Y-120678152D02*
X52338571Y-121344819D01*
X52338571Y-120773390D02*
X52386190Y-120725771D01*
X52386190Y-120725771D02*
X52481428Y-120678152D01*
X52481428Y-120678152D02*
X52624285Y-120678152D01*
X52624285Y-120678152D02*
X52719523Y-120725771D01*
X52719523Y-120725771D02*
X52767142Y-120821009D01*
X52767142Y-120821009D02*
X52767142Y-121344819D01*
X53005238Y-121440057D02*
X53767142Y-121440057D01*
X54195714Y-120344819D02*
X54290952Y-120344819D01*
X54290952Y-120344819D02*
X54386190Y-120392438D01*
X54386190Y-120392438D02*
X54433809Y-120440057D01*
X54433809Y-120440057D02*
X54481428Y-120535295D01*
X54481428Y-120535295D02*
X54529047Y-120725771D01*
X54529047Y-120725771D02*
X54529047Y-120963866D01*
X54529047Y-120963866D02*
X54481428Y-121154342D01*
X54481428Y-121154342D02*
X54433809Y-121249580D01*
X54433809Y-121249580D02*
X54386190Y-121297200D01*
X54386190Y-121297200D02*
X54290952Y-121344819D01*
X54290952Y-121344819D02*
X54195714Y-121344819D01*
X54195714Y-121344819D02*
X54100476Y-121297200D01*
X54100476Y-121297200D02*
X54052857Y-121249580D01*
X54052857Y-121249580D02*
X54005238Y-121154342D01*
X54005238Y-121154342D02*
X53957619Y-120963866D01*
X53957619Y-120963866D02*
X53957619Y-120725771D01*
X53957619Y-120725771D02*
X54005238Y-120535295D01*
X54005238Y-120535295D02*
X54052857Y-120440057D01*
X54052857Y-120440057D02*
X54100476Y-120392438D01*
X54100476Y-120392438D02*
X54195714Y-120344819D01*
X55481428Y-121344819D02*
X54910000Y-121344819D01*
X55195714Y-121344819D02*
X55195714Y-120344819D01*
X55195714Y-120344819D02*
X55100476Y-120487676D01*
X55100476Y-120487676D02*
X55005238Y-120582914D01*
X55005238Y-120582914D02*
X54910000Y-120630533D01*
X55814762Y-121344819D02*
X56338571Y-120678152D01*
X55814762Y-120678152D02*
X56338571Y-121344819D01*
X57148095Y-120678152D02*
X57148095Y-121344819D01*
X56910000Y-120297200D02*
X56671905Y-121011485D01*
X56671905Y-121011485D02*
X57290952Y-121011485D01*
X57862381Y-120344819D02*
X57957619Y-120344819D01*
X57957619Y-120344819D02*
X58052857Y-120392438D01*
X58052857Y-120392438D02*
X58100476Y-120440057D01*
X58100476Y-120440057D02*
X58148095Y-120535295D01*
X58148095Y-120535295D02*
X58195714Y-120725771D01*
X58195714Y-120725771D02*
X58195714Y-120963866D01*
X58195714Y-120963866D02*
X58148095Y-121154342D01*
X58148095Y-121154342D02*
X58100476Y-121249580D01*
X58100476Y-121249580D02*
X58052857Y-121297200D01*
X58052857Y-121297200D02*
X57957619Y-121344819D01*
X57957619Y-121344819D02*
X57862381Y-121344819D01*
X57862381Y-121344819D02*
X57767143Y-121297200D01*
X57767143Y-121297200D02*
X57719524Y-121249580D01*
X57719524Y-121249580D02*
X57671905Y-121154342D01*
X57671905Y-121154342D02*
X57624286Y-120963866D01*
X57624286Y-120963866D02*
X57624286Y-120725771D01*
X57624286Y-120725771D02*
X57671905Y-120535295D01*
X57671905Y-120535295D02*
X57719524Y-120440057D01*
X57719524Y-120440057D02*
X57767143Y-120392438D01*
X57767143Y-120392438D02*
X57862381Y-120344819D01*
X58386191Y-121440057D02*
X59148095Y-121440057D01*
X59386191Y-121344819D02*
X59386191Y-120344819D01*
X59386191Y-120344819D02*
X59767143Y-120344819D01*
X59767143Y-120344819D02*
X59862381Y-120392438D01*
X59862381Y-120392438D02*
X59910000Y-120440057D01*
X59910000Y-120440057D02*
X59957619Y-120535295D01*
X59957619Y-120535295D02*
X59957619Y-120678152D01*
X59957619Y-120678152D02*
X59910000Y-120773390D01*
X59910000Y-120773390D02*
X59862381Y-120821009D01*
X59862381Y-120821009D02*
X59767143Y-120868628D01*
X59767143Y-120868628D02*
X59386191Y-120868628D01*
X60386191Y-121344819D02*
X60386191Y-120678152D01*
X60386191Y-120344819D02*
X60338572Y-120392438D01*
X60338572Y-120392438D02*
X60386191Y-120440057D01*
X60386191Y-120440057D02*
X60433810Y-120392438D01*
X60433810Y-120392438D02*
X60386191Y-120344819D01*
X60386191Y-120344819D02*
X60386191Y-120440057D01*
X60862381Y-120678152D02*
X60862381Y-121344819D01*
X60862381Y-120773390D02*
X60910000Y-120725771D01*
X60910000Y-120725771D02*
X61005238Y-120678152D01*
X61005238Y-120678152D02*
X61148095Y-120678152D01*
X61148095Y-120678152D02*
X61243333Y-120725771D01*
X61243333Y-120725771D02*
X61290952Y-120821009D01*
X61290952Y-120821009D02*
X61290952Y-121344819D01*
X54864819Y-69313333D02*
X55579104Y-69313333D01*
X55579104Y-69313333D02*
X55721961Y-69360952D01*
X55721961Y-69360952D02*
X55817200Y-69456190D01*
X55817200Y-69456190D02*
X55864819Y-69599047D01*
X55864819Y-69599047D02*
X55864819Y-69694285D01*
X55864819Y-68313333D02*
X55864819Y-68884761D01*
X55864819Y-68599047D02*
X54864819Y-68599047D01*
X54864819Y-68599047D02*
X55007676Y-68694285D01*
X55007676Y-68694285D02*
X55102914Y-68789523D01*
X55102914Y-68789523D02*
X55150533Y-68884761D01*
X57630000Y-84834104D02*
X58106190Y-84834104D01*
X57534762Y-85119819D02*
X57868095Y-84119819D01*
X57868095Y-84119819D02*
X58201428Y-85119819D01*
X58534762Y-85119819D02*
X58534762Y-84119819D01*
X58534762Y-84119819D02*
X58868095Y-84834104D01*
X58868095Y-84834104D02*
X59201428Y-84119819D01*
X59201428Y-84119819D02*
X59201428Y-85119819D01*
X59630000Y-85072200D02*
X59772857Y-85119819D01*
X59772857Y-85119819D02*
X60010952Y-85119819D01*
X60010952Y-85119819D02*
X60106190Y-85072200D01*
X60106190Y-85072200D02*
X60153809Y-85024580D01*
X60153809Y-85024580D02*
X60201428Y-84929342D01*
X60201428Y-84929342D02*
X60201428Y-84834104D01*
X60201428Y-84834104D02*
X60153809Y-84738866D01*
X60153809Y-84738866D02*
X60106190Y-84691247D01*
X60106190Y-84691247D02*
X60010952Y-84643628D01*
X60010952Y-84643628D02*
X59820476Y-84596009D01*
X59820476Y-84596009D02*
X59725238Y-84548390D01*
X59725238Y-84548390D02*
X59677619Y-84500771D01*
X59677619Y-84500771D02*
X59630000Y-84405533D01*
X59630000Y-84405533D02*
X59630000Y-84310295D01*
X59630000Y-84310295D02*
X59677619Y-84215057D01*
X59677619Y-84215057D02*
X59725238Y-84167438D01*
X59725238Y-84167438D02*
X59820476Y-84119819D01*
X59820476Y-84119819D02*
X60058571Y-84119819D01*
X60058571Y-84119819D02*
X60201428Y-84167438D01*
X61153809Y-85119819D02*
X60582381Y-85119819D01*
X60868095Y-85119819D02*
X60868095Y-84119819D01*
X60868095Y-84119819D02*
X60772857Y-84262676D01*
X60772857Y-84262676D02*
X60677619Y-84357914D01*
X60677619Y-84357914D02*
X60582381Y-84405533D01*
X62106190Y-85119819D02*
X61534762Y-85119819D01*
X61820476Y-85119819D02*
X61820476Y-84119819D01*
X61820476Y-84119819D02*
X61725238Y-84262676D01*
X61725238Y-84262676D02*
X61630000Y-84357914D01*
X61630000Y-84357914D02*
X61534762Y-84405533D01*
X63058571Y-85119819D02*
X62487143Y-85119819D01*
X62772857Y-85119819D02*
X62772857Y-84119819D01*
X62772857Y-84119819D02*
X62677619Y-84262676D01*
X62677619Y-84262676D02*
X62582381Y-84357914D01*
X62582381Y-84357914D02*
X62487143Y-84405533D01*
X63391905Y-84119819D02*
X64058571Y-84119819D01*
X64058571Y-84119819D02*
X63630000Y-85119819D01*
X64439524Y-84738866D02*
X65201429Y-84738866D01*
X65582381Y-84119819D02*
X66201428Y-84119819D01*
X66201428Y-84119819D02*
X65868095Y-84500771D01*
X65868095Y-84500771D02*
X66010952Y-84500771D01*
X66010952Y-84500771D02*
X66106190Y-84548390D01*
X66106190Y-84548390D02*
X66153809Y-84596009D01*
X66153809Y-84596009D02*
X66201428Y-84691247D01*
X66201428Y-84691247D02*
X66201428Y-84929342D01*
X66201428Y-84929342D02*
X66153809Y-85024580D01*
X66153809Y-85024580D02*
X66106190Y-85072200D01*
X66106190Y-85072200D02*
X66010952Y-85119819D01*
X66010952Y-85119819D02*
X65725238Y-85119819D01*
X65725238Y-85119819D02*
X65630000Y-85072200D01*
X65630000Y-85072200D02*
X65582381Y-85024580D01*
X66630000Y-85024580D02*
X66677619Y-85072200D01*
X66677619Y-85072200D02*
X66630000Y-85119819D01*
X66630000Y-85119819D02*
X66582381Y-85072200D01*
X66582381Y-85072200D02*
X66630000Y-85024580D01*
X66630000Y-85024580D02*
X66630000Y-85119819D01*
X67010952Y-84119819D02*
X67629999Y-84119819D01*
X67629999Y-84119819D02*
X67296666Y-84500771D01*
X67296666Y-84500771D02*
X67439523Y-84500771D01*
X67439523Y-84500771D02*
X67534761Y-84548390D01*
X67534761Y-84548390D02*
X67582380Y-84596009D01*
X67582380Y-84596009D02*
X67629999Y-84691247D01*
X67629999Y-84691247D02*
X67629999Y-84929342D01*
X67629999Y-84929342D02*
X67582380Y-85024580D01*
X67582380Y-85024580D02*
X67534761Y-85072200D01*
X67534761Y-85072200D02*
X67439523Y-85119819D01*
X67439523Y-85119819D02*
X67153809Y-85119819D01*
X67153809Y-85119819D02*
X67058571Y-85072200D01*
X67058571Y-85072200D02*
X67010952Y-85024580D01*
D11*
X62193855Y-80774523D02*
X62841474Y-80774523D01*
X62841474Y-80774523D02*
X62917664Y-80736428D01*
X62917664Y-80736428D02*
X62955760Y-80698333D01*
X62955760Y-80698333D02*
X62993855Y-80622142D01*
X62993855Y-80622142D02*
X62993855Y-80469761D01*
X62993855Y-80469761D02*
X62955760Y-80393571D01*
X62955760Y-80393571D02*
X62917664Y-80355476D01*
X62917664Y-80355476D02*
X62841474Y-80317380D01*
X62841474Y-80317380D02*
X62193855Y-80317380D01*
X62270045Y-79974524D02*
X62231950Y-79936428D01*
X62231950Y-79936428D02*
X62193855Y-79860238D01*
X62193855Y-79860238D02*
X62193855Y-79669762D01*
X62193855Y-79669762D02*
X62231950Y-79593571D01*
X62231950Y-79593571D02*
X62270045Y-79555476D01*
X62270045Y-79555476D02*
X62346236Y-79517381D01*
X62346236Y-79517381D02*
X62422426Y-79517381D01*
X62422426Y-79517381D02*
X62536712Y-79555476D01*
X62536712Y-79555476D02*
X62993855Y-80012619D01*
X62993855Y-80012619D02*
X62993855Y-79517381D01*
D10*
X62972380Y-32834819D02*
X62400952Y-32834819D01*
X62686666Y-32834819D02*
X62686666Y-31834819D01*
X62686666Y-31834819D02*
X62591428Y-31977676D01*
X62591428Y-31977676D02*
X62496190Y-32072914D01*
X62496190Y-32072914D02*
X62400952Y-32120533D01*
X63591428Y-31834819D02*
X63686666Y-31834819D01*
X63686666Y-31834819D02*
X63781904Y-31882438D01*
X63781904Y-31882438D02*
X63829523Y-31930057D01*
X63829523Y-31930057D02*
X63877142Y-32025295D01*
X63877142Y-32025295D02*
X63924761Y-32215771D01*
X63924761Y-32215771D02*
X63924761Y-32453866D01*
X63924761Y-32453866D02*
X63877142Y-32644342D01*
X63877142Y-32644342D02*
X63829523Y-32739580D01*
X63829523Y-32739580D02*
X63781904Y-32787200D01*
X63781904Y-32787200D02*
X63686666Y-32834819D01*
X63686666Y-32834819D02*
X63591428Y-32834819D01*
X63591428Y-32834819D02*
X63496190Y-32787200D01*
X63496190Y-32787200D02*
X63448571Y-32739580D01*
X63448571Y-32739580D02*
X63400952Y-32644342D01*
X63400952Y-32644342D02*
X63353333Y-32453866D01*
X63353333Y-32453866D02*
X63353333Y-32215771D01*
X63353333Y-32215771D02*
X63400952Y-32025295D01*
X63400952Y-32025295D02*
X63448571Y-31930057D01*
X63448571Y-31930057D02*
X63496190Y-31882438D01*
X63496190Y-31882438D02*
X63591428Y-31834819D01*
X64543809Y-31834819D02*
X64639047Y-31834819D01*
X64639047Y-31834819D02*
X64734285Y-31882438D01*
X64734285Y-31882438D02*
X64781904Y-31930057D01*
X64781904Y-31930057D02*
X64829523Y-32025295D01*
X64829523Y-32025295D02*
X64877142Y-32215771D01*
X64877142Y-32215771D02*
X64877142Y-32453866D01*
X64877142Y-32453866D02*
X64829523Y-32644342D01*
X64829523Y-32644342D02*
X64781904Y-32739580D01*
X64781904Y-32739580D02*
X64734285Y-32787200D01*
X64734285Y-32787200D02*
X64639047Y-32834819D01*
X64639047Y-32834819D02*
X64543809Y-32834819D01*
X64543809Y-32834819D02*
X64448571Y-32787200D01*
X64448571Y-32787200D02*
X64400952Y-32739580D01*
X64400952Y-32739580D02*
X64353333Y-32644342D01*
X64353333Y-32644342D02*
X64305714Y-32453866D01*
X64305714Y-32453866D02*
X64305714Y-32215771D01*
X64305714Y-32215771D02*
X64353333Y-32025295D01*
X64353333Y-32025295D02*
X64400952Y-31930057D01*
X64400952Y-31930057D02*
X64448571Y-31882438D01*
X64448571Y-31882438D02*
X64543809Y-31834819D01*
X65305714Y-32168152D02*
X65305714Y-32834819D01*
X65305714Y-32263390D02*
X65353333Y-32215771D01*
X65353333Y-32215771D02*
X65448571Y-32168152D01*
X65448571Y-32168152D02*
X65591428Y-32168152D01*
X65591428Y-32168152D02*
X65686666Y-32215771D01*
X65686666Y-32215771D02*
X65734285Y-32311009D01*
X65734285Y-32311009D02*
X65734285Y-32834819D01*
X66543809Y-32311009D02*
X66210476Y-32311009D01*
X66210476Y-32834819D02*
X66210476Y-31834819D01*
X66210476Y-31834819D02*
X66686666Y-31834819D01*
D12*
X64436666Y-30879530D02*
X64412857Y-30903340D01*
X64412857Y-30903340D02*
X64341428Y-30927149D01*
X64341428Y-30927149D02*
X64293809Y-30927149D01*
X64293809Y-30927149D02*
X64222381Y-30903340D01*
X64222381Y-30903340D02*
X64174762Y-30855720D01*
X64174762Y-30855720D02*
X64150952Y-30808101D01*
X64150952Y-30808101D02*
X64127143Y-30712863D01*
X64127143Y-30712863D02*
X64127143Y-30641435D01*
X64127143Y-30641435D02*
X64150952Y-30546197D01*
X64150952Y-30546197D02*
X64174762Y-30498578D01*
X64174762Y-30498578D02*
X64222381Y-30450959D01*
X64222381Y-30450959D02*
X64293809Y-30427149D01*
X64293809Y-30427149D02*
X64341428Y-30427149D01*
X64341428Y-30427149D02*
X64412857Y-30450959D01*
X64412857Y-30450959D02*
X64436666Y-30474768D01*
X64889047Y-30427149D02*
X64650952Y-30427149D01*
X64650952Y-30427149D02*
X64627143Y-30665244D01*
X64627143Y-30665244D02*
X64650952Y-30641435D01*
X64650952Y-30641435D02*
X64698571Y-30617625D01*
X64698571Y-30617625D02*
X64817619Y-30617625D01*
X64817619Y-30617625D02*
X64865238Y-30641435D01*
X64865238Y-30641435D02*
X64889047Y-30665244D01*
X64889047Y-30665244D02*
X64912857Y-30712863D01*
X64912857Y-30712863D02*
X64912857Y-30831911D01*
X64912857Y-30831911D02*
X64889047Y-30879530D01*
X64889047Y-30879530D02*
X64865238Y-30903340D01*
X64865238Y-30903340D02*
X64817619Y-30927149D01*
X64817619Y-30927149D02*
X64698571Y-30927149D01*
X64698571Y-30927149D02*
X64650952Y-30903340D01*
X64650952Y-30903340D02*
X64627143Y-30879530D01*
D10*
X54690475Y-70459580D02*
X54642856Y-70507200D01*
X54642856Y-70507200D02*
X54499999Y-70554819D01*
X54499999Y-70554819D02*
X54404761Y-70554819D01*
X54404761Y-70554819D02*
X54261904Y-70507200D01*
X54261904Y-70507200D02*
X54166666Y-70411961D01*
X54166666Y-70411961D02*
X54119047Y-70316723D01*
X54119047Y-70316723D02*
X54071428Y-70126247D01*
X54071428Y-70126247D02*
X54071428Y-69983390D01*
X54071428Y-69983390D02*
X54119047Y-69792914D01*
X54119047Y-69792914D02*
X54166666Y-69697676D01*
X54166666Y-69697676D02*
X54261904Y-69602438D01*
X54261904Y-69602438D02*
X54404761Y-69554819D01*
X54404761Y-69554819D02*
X54499999Y-69554819D01*
X54499999Y-69554819D02*
X54642856Y-69602438D01*
X54642856Y-69602438D02*
X54690475Y-69650057D01*
X55261904Y-70554819D02*
X55166666Y-70507200D01*
X55166666Y-70507200D02*
X55119047Y-70459580D01*
X55119047Y-70459580D02*
X55071428Y-70364342D01*
X55071428Y-70364342D02*
X55071428Y-70078628D01*
X55071428Y-70078628D02*
X55119047Y-69983390D01*
X55119047Y-69983390D02*
X55166666Y-69935771D01*
X55166666Y-69935771D02*
X55261904Y-69888152D01*
X55261904Y-69888152D02*
X55404761Y-69888152D01*
X55404761Y-69888152D02*
X55499999Y-69935771D01*
X55499999Y-69935771D02*
X55547618Y-69983390D01*
X55547618Y-69983390D02*
X55595237Y-70078628D01*
X55595237Y-70078628D02*
X55595237Y-70364342D01*
X55595237Y-70364342D02*
X55547618Y-70459580D01*
X55547618Y-70459580D02*
X55499999Y-70507200D01*
X55499999Y-70507200D02*
X55404761Y-70554819D01*
X55404761Y-70554819D02*
X55261904Y-70554819D01*
X56023809Y-69888152D02*
X56023809Y-70554819D01*
X56023809Y-69983390D02*
X56071428Y-69935771D01*
X56071428Y-69935771D02*
X56166666Y-69888152D01*
X56166666Y-69888152D02*
X56309523Y-69888152D01*
X56309523Y-69888152D02*
X56404761Y-69935771D01*
X56404761Y-69935771D02*
X56452380Y-70031009D01*
X56452380Y-70031009D02*
X56452380Y-70554819D01*
X56928571Y-69888152D02*
X56928571Y-70554819D01*
X56928571Y-69983390D02*
X56976190Y-69935771D01*
X56976190Y-69935771D02*
X57071428Y-69888152D01*
X57071428Y-69888152D02*
X57214285Y-69888152D01*
X57214285Y-69888152D02*
X57309523Y-69935771D01*
X57309523Y-69935771D02*
X57357142Y-70031009D01*
X57357142Y-70031009D02*
X57357142Y-70554819D01*
X57595238Y-70650057D02*
X58357142Y-70650057D01*
X58785714Y-69554819D02*
X58880952Y-69554819D01*
X58880952Y-69554819D02*
X58976190Y-69602438D01*
X58976190Y-69602438D02*
X59023809Y-69650057D01*
X59023809Y-69650057D02*
X59071428Y-69745295D01*
X59071428Y-69745295D02*
X59119047Y-69935771D01*
X59119047Y-69935771D02*
X59119047Y-70173866D01*
X59119047Y-70173866D02*
X59071428Y-70364342D01*
X59071428Y-70364342D02*
X59023809Y-70459580D01*
X59023809Y-70459580D02*
X58976190Y-70507200D01*
X58976190Y-70507200D02*
X58880952Y-70554819D01*
X58880952Y-70554819D02*
X58785714Y-70554819D01*
X58785714Y-70554819D02*
X58690476Y-70507200D01*
X58690476Y-70507200D02*
X58642857Y-70459580D01*
X58642857Y-70459580D02*
X58595238Y-70364342D01*
X58595238Y-70364342D02*
X58547619Y-70173866D01*
X58547619Y-70173866D02*
X58547619Y-69935771D01*
X58547619Y-69935771D02*
X58595238Y-69745295D01*
X58595238Y-69745295D02*
X58642857Y-69650057D01*
X58642857Y-69650057D02*
X58690476Y-69602438D01*
X58690476Y-69602438D02*
X58785714Y-69554819D01*
X60071428Y-70554819D02*
X59500000Y-70554819D01*
X59785714Y-70554819D02*
X59785714Y-69554819D01*
X59785714Y-69554819D02*
X59690476Y-69697676D01*
X59690476Y-69697676D02*
X59595238Y-69792914D01*
X59595238Y-69792914D02*
X59500000Y-69840533D01*
X60404762Y-70554819D02*
X60928571Y-69888152D01*
X60404762Y-69888152D02*
X60928571Y-70554819D01*
X61261905Y-69650057D02*
X61309524Y-69602438D01*
X61309524Y-69602438D02*
X61404762Y-69554819D01*
X61404762Y-69554819D02*
X61642857Y-69554819D01*
X61642857Y-69554819D02*
X61738095Y-69602438D01*
X61738095Y-69602438D02*
X61785714Y-69650057D01*
X61785714Y-69650057D02*
X61833333Y-69745295D01*
X61833333Y-69745295D02*
X61833333Y-69840533D01*
X61833333Y-69840533D02*
X61785714Y-69983390D01*
X61785714Y-69983390D02*
X61214286Y-70554819D01*
X61214286Y-70554819D02*
X61833333Y-70554819D01*
X62452381Y-69554819D02*
X62547619Y-69554819D01*
X62547619Y-69554819D02*
X62642857Y-69602438D01*
X62642857Y-69602438D02*
X62690476Y-69650057D01*
X62690476Y-69650057D02*
X62738095Y-69745295D01*
X62738095Y-69745295D02*
X62785714Y-69935771D01*
X62785714Y-69935771D02*
X62785714Y-70173866D01*
X62785714Y-70173866D02*
X62738095Y-70364342D01*
X62738095Y-70364342D02*
X62690476Y-70459580D01*
X62690476Y-70459580D02*
X62642857Y-70507200D01*
X62642857Y-70507200D02*
X62547619Y-70554819D01*
X62547619Y-70554819D02*
X62452381Y-70554819D01*
X62452381Y-70554819D02*
X62357143Y-70507200D01*
X62357143Y-70507200D02*
X62309524Y-70459580D01*
X62309524Y-70459580D02*
X62261905Y-70364342D01*
X62261905Y-70364342D02*
X62214286Y-70173866D01*
X62214286Y-70173866D02*
X62214286Y-69935771D01*
X62214286Y-69935771D02*
X62261905Y-69745295D01*
X62261905Y-69745295D02*
X62309524Y-69650057D01*
X62309524Y-69650057D02*
X62357143Y-69602438D01*
X62357143Y-69602438D02*
X62452381Y-69554819D01*
X62976191Y-70650057D02*
X63738095Y-70650057D01*
X63976191Y-70554819D02*
X63976191Y-69554819D01*
X63976191Y-69554819D02*
X64357143Y-69554819D01*
X64357143Y-69554819D02*
X64452381Y-69602438D01*
X64452381Y-69602438D02*
X64500000Y-69650057D01*
X64500000Y-69650057D02*
X64547619Y-69745295D01*
X64547619Y-69745295D02*
X64547619Y-69888152D01*
X64547619Y-69888152D02*
X64500000Y-69983390D01*
X64500000Y-69983390D02*
X64452381Y-70031009D01*
X64452381Y-70031009D02*
X64357143Y-70078628D01*
X64357143Y-70078628D02*
X63976191Y-70078628D01*
X64976191Y-70554819D02*
X64976191Y-69888152D01*
X64976191Y-69554819D02*
X64928572Y-69602438D01*
X64928572Y-69602438D02*
X64976191Y-69650057D01*
X64976191Y-69650057D02*
X65023810Y-69602438D01*
X65023810Y-69602438D02*
X64976191Y-69554819D01*
X64976191Y-69554819D02*
X64976191Y-69650057D01*
X65452381Y-69888152D02*
X65452381Y-70554819D01*
X65452381Y-69983390D02*
X65500000Y-69935771D01*
X65500000Y-69935771D02*
X65595238Y-69888152D01*
X65595238Y-69888152D02*
X65738095Y-69888152D01*
X65738095Y-69888152D02*
X65833333Y-69935771D01*
X65833333Y-69935771D02*
X65880952Y-70031009D01*
X65880952Y-70031009D02*
X65880952Y-70554819D01*
X59454819Y-43923333D02*
X60169104Y-43923333D01*
X60169104Y-43923333D02*
X60311961Y-43970952D01*
X60311961Y-43970952D02*
X60407200Y-44066190D01*
X60407200Y-44066190D02*
X60454819Y-44209047D01*
X60454819Y-44209047D02*
X60454819Y-44304285D01*
X59550057Y-43494761D02*
X59502438Y-43447142D01*
X59502438Y-43447142D02*
X59454819Y-43351904D01*
X59454819Y-43351904D02*
X59454819Y-43113809D01*
X59454819Y-43113809D02*
X59502438Y-43018571D01*
X59502438Y-43018571D02*
X59550057Y-42970952D01*
X59550057Y-42970952D02*
X59645295Y-42923333D01*
X59645295Y-42923333D02*
X59740533Y-42923333D01*
X59740533Y-42923333D02*
X59883390Y-42970952D01*
X59883390Y-42970952D02*
X60454819Y-43542380D01*
X60454819Y-43542380D02*
X60454819Y-42923333D01*
X62972380Y-20794819D02*
X62400952Y-20794819D01*
X62686666Y-20794819D02*
X62686666Y-19794819D01*
X62686666Y-19794819D02*
X62591428Y-19937676D01*
X62591428Y-19937676D02*
X62496190Y-20032914D01*
X62496190Y-20032914D02*
X62400952Y-20080533D01*
X63591428Y-19794819D02*
X63686666Y-19794819D01*
X63686666Y-19794819D02*
X63781904Y-19842438D01*
X63781904Y-19842438D02*
X63829523Y-19890057D01*
X63829523Y-19890057D02*
X63877142Y-19985295D01*
X63877142Y-19985295D02*
X63924761Y-20175771D01*
X63924761Y-20175771D02*
X63924761Y-20413866D01*
X63924761Y-20413866D02*
X63877142Y-20604342D01*
X63877142Y-20604342D02*
X63829523Y-20699580D01*
X63829523Y-20699580D02*
X63781904Y-20747200D01*
X63781904Y-20747200D02*
X63686666Y-20794819D01*
X63686666Y-20794819D02*
X63591428Y-20794819D01*
X63591428Y-20794819D02*
X63496190Y-20747200D01*
X63496190Y-20747200D02*
X63448571Y-20699580D01*
X63448571Y-20699580D02*
X63400952Y-20604342D01*
X63400952Y-20604342D02*
X63353333Y-20413866D01*
X63353333Y-20413866D02*
X63353333Y-20175771D01*
X63353333Y-20175771D02*
X63400952Y-19985295D01*
X63400952Y-19985295D02*
X63448571Y-19890057D01*
X63448571Y-19890057D02*
X63496190Y-19842438D01*
X63496190Y-19842438D02*
X63591428Y-19794819D01*
X64543809Y-19794819D02*
X64639047Y-19794819D01*
X64639047Y-19794819D02*
X64734285Y-19842438D01*
X64734285Y-19842438D02*
X64781904Y-19890057D01*
X64781904Y-19890057D02*
X64829523Y-19985295D01*
X64829523Y-19985295D02*
X64877142Y-20175771D01*
X64877142Y-20175771D02*
X64877142Y-20413866D01*
X64877142Y-20413866D02*
X64829523Y-20604342D01*
X64829523Y-20604342D02*
X64781904Y-20699580D01*
X64781904Y-20699580D02*
X64734285Y-20747200D01*
X64734285Y-20747200D02*
X64639047Y-20794819D01*
X64639047Y-20794819D02*
X64543809Y-20794819D01*
X64543809Y-20794819D02*
X64448571Y-20747200D01*
X64448571Y-20747200D02*
X64400952Y-20699580D01*
X64400952Y-20699580D02*
X64353333Y-20604342D01*
X64353333Y-20604342D02*
X64305714Y-20413866D01*
X64305714Y-20413866D02*
X64305714Y-20175771D01*
X64305714Y-20175771D02*
X64353333Y-19985295D01*
X64353333Y-19985295D02*
X64400952Y-19890057D01*
X64400952Y-19890057D02*
X64448571Y-19842438D01*
X64448571Y-19842438D02*
X64543809Y-19794819D01*
X65305714Y-20128152D02*
X65305714Y-20794819D01*
X65305714Y-20223390D02*
X65353333Y-20175771D01*
X65353333Y-20175771D02*
X65448571Y-20128152D01*
X65448571Y-20128152D02*
X65591428Y-20128152D01*
X65591428Y-20128152D02*
X65686666Y-20175771D01*
X65686666Y-20175771D02*
X65734285Y-20271009D01*
X65734285Y-20271009D02*
X65734285Y-20794819D01*
X66543809Y-20271009D02*
X66210476Y-20271009D01*
X66210476Y-20794819D02*
X66210476Y-19794819D01*
X66210476Y-19794819D02*
X66686666Y-19794819D01*
D12*
X64436666Y-18839530D02*
X64412857Y-18863340D01*
X64412857Y-18863340D02*
X64341428Y-18887149D01*
X64341428Y-18887149D02*
X64293809Y-18887149D01*
X64293809Y-18887149D02*
X64222381Y-18863340D01*
X64222381Y-18863340D02*
X64174762Y-18815720D01*
X64174762Y-18815720D02*
X64150952Y-18768101D01*
X64150952Y-18768101D02*
X64127143Y-18672863D01*
X64127143Y-18672863D02*
X64127143Y-18601435D01*
X64127143Y-18601435D02*
X64150952Y-18506197D01*
X64150952Y-18506197D02*
X64174762Y-18458578D01*
X64174762Y-18458578D02*
X64222381Y-18410959D01*
X64222381Y-18410959D02*
X64293809Y-18387149D01*
X64293809Y-18387149D02*
X64341428Y-18387149D01*
X64341428Y-18387149D02*
X64412857Y-18410959D01*
X64412857Y-18410959D02*
X64436666Y-18434768D01*
X64912857Y-18887149D02*
X64627143Y-18887149D01*
X64770000Y-18887149D02*
X64770000Y-18387149D01*
X64770000Y-18387149D02*
X64722381Y-18458578D01*
X64722381Y-18458578D02*
X64674762Y-18506197D01*
X64674762Y-18506197D02*
X64627143Y-18530006D01*
D10*
X62972380Y-29824819D02*
X62400952Y-29824819D01*
X62686666Y-29824819D02*
X62686666Y-28824819D01*
X62686666Y-28824819D02*
X62591428Y-28967676D01*
X62591428Y-28967676D02*
X62496190Y-29062914D01*
X62496190Y-29062914D02*
X62400952Y-29110533D01*
X63591428Y-28824819D02*
X63686666Y-28824819D01*
X63686666Y-28824819D02*
X63781904Y-28872438D01*
X63781904Y-28872438D02*
X63829523Y-28920057D01*
X63829523Y-28920057D02*
X63877142Y-29015295D01*
X63877142Y-29015295D02*
X63924761Y-29205771D01*
X63924761Y-29205771D02*
X63924761Y-29443866D01*
X63924761Y-29443866D02*
X63877142Y-29634342D01*
X63877142Y-29634342D02*
X63829523Y-29729580D01*
X63829523Y-29729580D02*
X63781904Y-29777200D01*
X63781904Y-29777200D02*
X63686666Y-29824819D01*
X63686666Y-29824819D02*
X63591428Y-29824819D01*
X63591428Y-29824819D02*
X63496190Y-29777200D01*
X63496190Y-29777200D02*
X63448571Y-29729580D01*
X63448571Y-29729580D02*
X63400952Y-29634342D01*
X63400952Y-29634342D02*
X63353333Y-29443866D01*
X63353333Y-29443866D02*
X63353333Y-29205771D01*
X63353333Y-29205771D02*
X63400952Y-29015295D01*
X63400952Y-29015295D02*
X63448571Y-28920057D01*
X63448571Y-28920057D02*
X63496190Y-28872438D01*
X63496190Y-28872438D02*
X63591428Y-28824819D01*
X64543809Y-28824819D02*
X64639047Y-28824819D01*
X64639047Y-28824819D02*
X64734285Y-28872438D01*
X64734285Y-28872438D02*
X64781904Y-28920057D01*
X64781904Y-28920057D02*
X64829523Y-29015295D01*
X64829523Y-29015295D02*
X64877142Y-29205771D01*
X64877142Y-29205771D02*
X64877142Y-29443866D01*
X64877142Y-29443866D02*
X64829523Y-29634342D01*
X64829523Y-29634342D02*
X64781904Y-29729580D01*
X64781904Y-29729580D02*
X64734285Y-29777200D01*
X64734285Y-29777200D02*
X64639047Y-29824819D01*
X64639047Y-29824819D02*
X64543809Y-29824819D01*
X64543809Y-29824819D02*
X64448571Y-29777200D01*
X64448571Y-29777200D02*
X64400952Y-29729580D01*
X64400952Y-29729580D02*
X64353333Y-29634342D01*
X64353333Y-29634342D02*
X64305714Y-29443866D01*
X64305714Y-29443866D02*
X64305714Y-29205771D01*
X64305714Y-29205771D02*
X64353333Y-29015295D01*
X64353333Y-29015295D02*
X64400952Y-28920057D01*
X64400952Y-28920057D02*
X64448571Y-28872438D01*
X64448571Y-28872438D02*
X64543809Y-28824819D01*
X65305714Y-29158152D02*
X65305714Y-29824819D01*
X65305714Y-29253390D02*
X65353333Y-29205771D01*
X65353333Y-29205771D02*
X65448571Y-29158152D01*
X65448571Y-29158152D02*
X65591428Y-29158152D01*
X65591428Y-29158152D02*
X65686666Y-29205771D01*
X65686666Y-29205771D02*
X65734285Y-29301009D01*
X65734285Y-29301009D02*
X65734285Y-29824819D01*
X66543809Y-29301009D02*
X66210476Y-29301009D01*
X66210476Y-29824819D02*
X66210476Y-28824819D01*
X66210476Y-28824819D02*
X66686666Y-28824819D01*
D12*
X64436666Y-27869530D02*
X64412857Y-27893340D01*
X64412857Y-27893340D02*
X64341428Y-27917149D01*
X64341428Y-27917149D02*
X64293809Y-27917149D01*
X64293809Y-27917149D02*
X64222381Y-27893340D01*
X64222381Y-27893340D02*
X64174762Y-27845720D01*
X64174762Y-27845720D02*
X64150952Y-27798101D01*
X64150952Y-27798101D02*
X64127143Y-27702863D01*
X64127143Y-27702863D02*
X64127143Y-27631435D01*
X64127143Y-27631435D02*
X64150952Y-27536197D01*
X64150952Y-27536197D02*
X64174762Y-27488578D01*
X64174762Y-27488578D02*
X64222381Y-27440959D01*
X64222381Y-27440959D02*
X64293809Y-27417149D01*
X64293809Y-27417149D02*
X64341428Y-27417149D01*
X64341428Y-27417149D02*
X64412857Y-27440959D01*
X64412857Y-27440959D02*
X64436666Y-27464768D01*
X64865238Y-27583816D02*
X64865238Y-27917149D01*
X64746190Y-27393340D02*
X64627143Y-27750482D01*
X64627143Y-27750482D02*
X64936666Y-27750482D01*
D10*
X62972380Y-26814819D02*
X62400952Y-26814819D01*
X62686666Y-26814819D02*
X62686666Y-25814819D01*
X62686666Y-25814819D02*
X62591428Y-25957676D01*
X62591428Y-25957676D02*
X62496190Y-26052914D01*
X62496190Y-26052914D02*
X62400952Y-26100533D01*
X63591428Y-25814819D02*
X63686666Y-25814819D01*
X63686666Y-25814819D02*
X63781904Y-25862438D01*
X63781904Y-25862438D02*
X63829523Y-25910057D01*
X63829523Y-25910057D02*
X63877142Y-26005295D01*
X63877142Y-26005295D02*
X63924761Y-26195771D01*
X63924761Y-26195771D02*
X63924761Y-26433866D01*
X63924761Y-26433866D02*
X63877142Y-26624342D01*
X63877142Y-26624342D02*
X63829523Y-26719580D01*
X63829523Y-26719580D02*
X63781904Y-26767200D01*
X63781904Y-26767200D02*
X63686666Y-26814819D01*
X63686666Y-26814819D02*
X63591428Y-26814819D01*
X63591428Y-26814819D02*
X63496190Y-26767200D01*
X63496190Y-26767200D02*
X63448571Y-26719580D01*
X63448571Y-26719580D02*
X63400952Y-26624342D01*
X63400952Y-26624342D02*
X63353333Y-26433866D01*
X63353333Y-26433866D02*
X63353333Y-26195771D01*
X63353333Y-26195771D02*
X63400952Y-26005295D01*
X63400952Y-26005295D02*
X63448571Y-25910057D01*
X63448571Y-25910057D02*
X63496190Y-25862438D01*
X63496190Y-25862438D02*
X63591428Y-25814819D01*
X64543809Y-25814819D02*
X64639047Y-25814819D01*
X64639047Y-25814819D02*
X64734285Y-25862438D01*
X64734285Y-25862438D02*
X64781904Y-25910057D01*
X64781904Y-25910057D02*
X64829523Y-26005295D01*
X64829523Y-26005295D02*
X64877142Y-26195771D01*
X64877142Y-26195771D02*
X64877142Y-26433866D01*
X64877142Y-26433866D02*
X64829523Y-26624342D01*
X64829523Y-26624342D02*
X64781904Y-26719580D01*
X64781904Y-26719580D02*
X64734285Y-26767200D01*
X64734285Y-26767200D02*
X64639047Y-26814819D01*
X64639047Y-26814819D02*
X64543809Y-26814819D01*
X64543809Y-26814819D02*
X64448571Y-26767200D01*
X64448571Y-26767200D02*
X64400952Y-26719580D01*
X64400952Y-26719580D02*
X64353333Y-26624342D01*
X64353333Y-26624342D02*
X64305714Y-26433866D01*
X64305714Y-26433866D02*
X64305714Y-26195771D01*
X64305714Y-26195771D02*
X64353333Y-26005295D01*
X64353333Y-26005295D02*
X64400952Y-25910057D01*
X64400952Y-25910057D02*
X64448571Y-25862438D01*
X64448571Y-25862438D02*
X64543809Y-25814819D01*
X65305714Y-26148152D02*
X65305714Y-26814819D01*
X65305714Y-26243390D02*
X65353333Y-26195771D01*
X65353333Y-26195771D02*
X65448571Y-26148152D01*
X65448571Y-26148152D02*
X65591428Y-26148152D01*
X65591428Y-26148152D02*
X65686666Y-26195771D01*
X65686666Y-26195771D02*
X65734285Y-26291009D01*
X65734285Y-26291009D02*
X65734285Y-26814819D01*
X66543809Y-26291009D02*
X66210476Y-26291009D01*
X66210476Y-26814819D02*
X66210476Y-25814819D01*
X66210476Y-25814819D02*
X66686666Y-25814819D01*
D12*
X64436666Y-24859530D02*
X64412857Y-24883340D01*
X64412857Y-24883340D02*
X64341428Y-24907149D01*
X64341428Y-24907149D02*
X64293809Y-24907149D01*
X64293809Y-24907149D02*
X64222381Y-24883340D01*
X64222381Y-24883340D02*
X64174762Y-24835720D01*
X64174762Y-24835720D02*
X64150952Y-24788101D01*
X64150952Y-24788101D02*
X64127143Y-24692863D01*
X64127143Y-24692863D02*
X64127143Y-24621435D01*
X64127143Y-24621435D02*
X64150952Y-24526197D01*
X64150952Y-24526197D02*
X64174762Y-24478578D01*
X64174762Y-24478578D02*
X64222381Y-24430959D01*
X64222381Y-24430959D02*
X64293809Y-24407149D01*
X64293809Y-24407149D02*
X64341428Y-24407149D01*
X64341428Y-24407149D02*
X64412857Y-24430959D01*
X64412857Y-24430959D02*
X64436666Y-24454768D01*
X64603333Y-24407149D02*
X64912857Y-24407149D01*
X64912857Y-24407149D02*
X64746190Y-24597625D01*
X64746190Y-24597625D02*
X64817619Y-24597625D01*
X64817619Y-24597625D02*
X64865238Y-24621435D01*
X64865238Y-24621435D02*
X64889047Y-24645244D01*
X64889047Y-24645244D02*
X64912857Y-24692863D01*
X64912857Y-24692863D02*
X64912857Y-24811911D01*
X64912857Y-24811911D02*
X64889047Y-24859530D01*
X64889047Y-24859530D02*
X64865238Y-24883340D01*
X64865238Y-24883340D02*
X64817619Y-24907149D01*
X64817619Y-24907149D02*
X64674762Y-24907149D01*
X64674762Y-24907149D02*
X64627143Y-24883340D01*
X64627143Y-24883340D02*
X64603333Y-24859530D01*
D10*
X62972380Y-23804819D02*
X62400952Y-23804819D01*
X62686666Y-23804819D02*
X62686666Y-22804819D01*
X62686666Y-22804819D02*
X62591428Y-22947676D01*
X62591428Y-22947676D02*
X62496190Y-23042914D01*
X62496190Y-23042914D02*
X62400952Y-23090533D01*
X63591428Y-22804819D02*
X63686666Y-22804819D01*
X63686666Y-22804819D02*
X63781904Y-22852438D01*
X63781904Y-22852438D02*
X63829523Y-22900057D01*
X63829523Y-22900057D02*
X63877142Y-22995295D01*
X63877142Y-22995295D02*
X63924761Y-23185771D01*
X63924761Y-23185771D02*
X63924761Y-23423866D01*
X63924761Y-23423866D02*
X63877142Y-23614342D01*
X63877142Y-23614342D02*
X63829523Y-23709580D01*
X63829523Y-23709580D02*
X63781904Y-23757200D01*
X63781904Y-23757200D02*
X63686666Y-23804819D01*
X63686666Y-23804819D02*
X63591428Y-23804819D01*
X63591428Y-23804819D02*
X63496190Y-23757200D01*
X63496190Y-23757200D02*
X63448571Y-23709580D01*
X63448571Y-23709580D02*
X63400952Y-23614342D01*
X63400952Y-23614342D02*
X63353333Y-23423866D01*
X63353333Y-23423866D02*
X63353333Y-23185771D01*
X63353333Y-23185771D02*
X63400952Y-22995295D01*
X63400952Y-22995295D02*
X63448571Y-22900057D01*
X63448571Y-22900057D02*
X63496190Y-22852438D01*
X63496190Y-22852438D02*
X63591428Y-22804819D01*
X64543809Y-22804819D02*
X64639047Y-22804819D01*
X64639047Y-22804819D02*
X64734285Y-22852438D01*
X64734285Y-22852438D02*
X64781904Y-22900057D01*
X64781904Y-22900057D02*
X64829523Y-22995295D01*
X64829523Y-22995295D02*
X64877142Y-23185771D01*
X64877142Y-23185771D02*
X64877142Y-23423866D01*
X64877142Y-23423866D02*
X64829523Y-23614342D01*
X64829523Y-23614342D02*
X64781904Y-23709580D01*
X64781904Y-23709580D02*
X64734285Y-23757200D01*
X64734285Y-23757200D02*
X64639047Y-23804819D01*
X64639047Y-23804819D02*
X64543809Y-23804819D01*
X64543809Y-23804819D02*
X64448571Y-23757200D01*
X64448571Y-23757200D02*
X64400952Y-23709580D01*
X64400952Y-23709580D02*
X64353333Y-23614342D01*
X64353333Y-23614342D02*
X64305714Y-23423866D01*
X64305714Y-23423866D02*
X64305714Y-23185771D01*
X64305714Y-23185771D02*
X64353333Y-22995295D01*
X64353333Y-22995295D02*
X64400952Y-22900057D01*
X64400952Y-22900057D02*
X64448571Y-22852438D01*
X64448571Y-22852438D02*
X64543809Y-22804819D01*
X65305714Y-23138152D02*
X65305714Y-23804819D01*
X65305714Y-23233390D02*
X65353333Y-23185771D01*
X65353333Y-23185771D02*
X65448571Y-23138152D01*
X65448571Y-23138152D02*
X65591428Y-23138152D01*
X65591428Y-23138152D02*
X65686666Y-23185771D01*
X65686666Y-23185771D02*
X65734285Y-23281009D01*
X65734285Y-23281009D02*
X65734285Y-23804819D01*
X66543809Y-23281009D02*
X66210476Y-23281009D01*
X66210476Y-23804819D02*
X66210476Y-22804819D01*
X66210476Y-22804819D02*
X66686666Y-22804819D01*
D12*
X64436666Y-21849530D02*
X64412857Y-21873340D01*
X64412857Y-21873340D02*
X64341428Y-21897149D01*
X64341428Y-21897149D02*
X64293809Y-21897149D01*
X64293809Y-21897149D02*
X64222381Y-21873340D01*
X64222381Y-21873340D02*
X64174762Y-21825720D01*
X64174762Y-21825720D02*
X64150952Y-21778101D01*
X64150952Y-21778101D02*
X64127143Y-21682863D01*
X64127143Y-21682863D02*
X64127143Y-21611435D01*
X64127143Y-21611435D02*
X64150952Y-21516197D01*
X64150952Y-21516197D02*
X64174762Y-21468578D01*
X64174762Y-21468578D02*
X64222381Y-21420959D01*
X64222381Y-21420959D02*
X64293809Y-21397149D01*
X64293809Y-21397149D02*
X64341428Y-21397149D01*
X64341428Y-21397149D02*
X64412857Y-21420959D01*
X64412857Y-21420959D02*
X64436666Y-21444768D01*
X64627143Y-21444768D02*
X64650952Y-21420959D01*
X64650952Y-21420959D02*
X64698571Y-21397149D01*
X64698571Y-21397149D02*
X64817619Y-21397149D01*
X64817619Y-21397149D02*
X64865238Y-21420959D01*
X64865238Y-21420959D02*
X64889047Y-21444768D01*
X64889047Y-21444768D02*
X64912857Y-21492387D01*
X64912857Y-21492387D02*
X64912857Y-21540006D01*
X64912857Y-21540006D02*
X64889047Y-21611435D01*
X64889047Y-21611435D02*
X64603333Y-21897149D01*
X64603333Y-21897149D02*
X64912857Y-21897149D01*
D10*
X58599047Y-76594819D02*
X58122857Y-76594819D01*
X58122857Y-76594819D02*
X58122857Y-75594819D01*
X58932381Y-76594819D02*
X58932381Y-75594819D01*
X58932381Y-75594819D02*
X59265714Y-76309104D01*
X59265714Y-76309104D02*
X59599047Y-75594819D01*
X59599047Y-75594819D02*
X59599047Y-76594819D01*
X59980000Y-75594819D02*
X60646666Y-75594819D01*
X60646666Y-75594819D02*
X60218095Y-76594819D01*
X61170476Y-76023390D02*
X61075238Y-75975771D01*
X61075238Y-75975771D02*
X61027619Y-75928152D01*
X61027619Y-75928152D02*
X60980000Y-75832914D01*
X60980000Y-75832914D02*
X60980000Y-75785295D01*
X60980000Y-75785295D02*
X61027619Y-75690057D01*
X61027619Y-75690057D02*
X61075238Y-75642438D01*
X61075238Y-75642438D02*
X61170476Y-75594819D01*
X61170476Y-75594819D02*
X61360952Y-75594819D01*
X61360952Y-75594819D02*
X61456190Y-75642438D01*
X61456190Y-75642438D02*
X61503809Y-75690057D01*
X61503809Y-75690057D02*
X61551428Y-75785295D01*
X61551428Y-75785295D02*
X61551428Y-75832914D01*
X61551428Y-75832914D02*
X61503809Y-75928152D01*
X61503809Y-75928152D02*
X61456190Y-75975771D01*
X61456190Y-75975771D02*
X61360952Y-76023390D01*
X61360952Y-76023390D02*
X61170476Y-76023390D01*
X61170476Y-76023390D02*
X61075238Y-76071009D01*
X61075238Y-76071009D02*
X61027619Y-76118628D01*
X61027619Y-76118628D02*
X60980000Y-76213866D01*
X60980000Y-76213866D02*
X60980000Y-76404342D01*
X60980000Y-76404342D02*
X61027619Y-76499580D01*
X61027619Y-76499580D02*
X61075238Y-76547200D01*
X61075238Y-76547200D02*
X61170476Y-76594819D01*
X61170476Y-76594819D02*
X61360952Y-76594819D01*
X61360952Y-76594819D02*
X61456190Y-76547200D01*
X61456190Y-76547200D02*
X61503809Y-76499580D01*
X61503809Y-76499580D02*
X61551428Y-76404342D01*
X61551428Y-76404342D02*
X61551428Y-76213866D01*
X61551428Y-76213866D02*
X61503809Y-76118628D01*
X61503809Y-76118628D02*
X61456190Y-76071009D01*
X61456190Y-76071009D02*
X61360952Y-76023390D01*
X62170476Y-75594819D02*
X62265714Y-75594819D01*
X62265714Y-75594819D02*
X62360952Y-75642438D01*
X62360952Y-75642438D02*
X62408571Y-75690057D01*
X62408571Y-75690057D02*
X62456190Y-75785295D01*
X62456190Y-75785295D02*
X62503809Y-75975771D01*
X62503809Y-75975771D02*
X62503809Y-76213866D01*
X62503809Y-76213866D02*
X62456190Y-76404342D01*
X62456190Y-76404342D02*
X62408571Y-76499580D01*
X62408571Y-76499580D02*
X62360952Y-76547200D01*
X62360952Y-76547200D02*
X62265714Y-76594819D01*
X62265714Y-76594819D02*
X62170476Y-76594819D01*
X62170476Y-76594819D02*
X62075238Y-76547200D01*
X62075238Y-76547200D02*
X62027619Y-76499580D01*
X62027619Y-76499580D02*
X61980000Y-76404342D01*
X61980000Y-76404342D02*
X61932381Y-76213866D01*
X61932381Y-76213866D02*
X61932381Y-75975771D01*
X61932381Y-75975771D02*
X61980000Y-75785295D01*
X61980000Y-75785295D02*
X62027619Y-75690057D01*
X62027619Y-75690057D02*
X62075238Y-75642438D01*
X62075238Y-75642438D02*
X62170476Y-75594819D01*
X63408571Y-75594819D02*
X62932381Y-75594819D01*
X62932381Y-75594819D02*
X62884762Y-76071009D01*
X62884762Y-76071009D02*
X62932381Y-76023390D01*
X62932381Y-76023390D02*
X63027619Y-75975771D01*
X63027619Y-75975771D02*
X63265714Y-75975771D01*
X63265714Y-75975771D02*
X63360952Y-76023390D01*
X63360952Y-76023390D02*
X63408571Y-76071009D01*
X63408571Y-76071009D02*
X63456190Y-76166247D01*
X63456190Y-76166247D02*
X63456190Y-76404342D01*
X63456190Y-76404342D02*
X63408571Y-76499580D01*
X63408571Y-76499580D02*
X63360952Y-76547200D01*
X63360952Y-76547200D02*
X63265714Y-76594819D01*
X63265714Y-76594819D02*
X63027619Y-76594819D01*
X63027619Y-76594819D02*
X62932381Y-76547200D01*
X62932381Y-76547200D02*
X62884762Y-76499580D01*
X63646667Y-76690057D02*
X64408571Y-76690057D01*
X64503810Y-75594819D02*
X65075238Y-75594819D01*
X64789524Y-76594819D02*
X64789524Y-75594819D01*
X65599048Y-75594819D02*
X65789524Y-75594819D01*
X65789524Y-75594819D02*
X65884762Y-75642438D01*
X65884762Y-75642438D02*
X65980000Y-75737676D01*
X65980000Y-75737676D02*
X66027619Y-75928152D01*
X66027619Y-75928152D02*
X66027619Y-76261485D01*
X66027619Y-76261485D02*
X65980000Y-76451961D01*
X65980000Y-76451961D02*
X65884762Y-76547200D01*
X65884762Y-76547200D02*
X65789524Y-76594819D01*
X65789524Y-76594819D02*
X65599048Y-76594819D01*
X65599048Y-76594819D02*
X65503810Y-76547200D01*
X65503810Y-76547200D02*
X65408572Y-76451961D01*
X65408572Y-76451961D02*
X65360953Y-76261485D01*
X65360953Y-76261485D02*
X65360953Y-75928152D01*
X65360953Y-75928152D02*
X65408572Y-75737676D01*
X65408572Y-75737676D02*
X65503810Y-75642438D01*
X65503810Y-75642438D02*
X65599048Y-75594819D01*
X66408572Y-75690057D02*
X66456191Y-75642438D01*
X66456191Y-75642438D02*
X66551429Y-75594819D01*
X66551429Y-75594819D02*
X66789524Y-75594819D01*
X66789524Y-75594819D02*
X66884762Y-75642438D01*
X66884762Y-75642438D02*
X66932381Y-75690057D01*
X66932381Y-75690057D02*
X66980000Y-75785295D01*
X66980000Y-75785295D02*
X66980000Y-75880533D01*
X66980000Y-75880533D02*
X66932381Y-76023390D01*
X66932381Y-76023390D02*
X66360953Y-76594819D01*
X66360953Y-76594819D02*
X66980000Y-76594819D01*
X67360953Y-75690057D02*
X67408572Y-75642438D01*
X67408572Y-75642438D02*
X67503810Y-75594819D01*
X67503810Y-75594819D02*
X67741905Y-75594819D01*
X67741905Y-75594819D02*
X67837143Y-75642438D01*
X67837143Y-75642438D02*
X67884762Y-75690057D01*
X67884762Y-75690057D02*
X67932381Y-75785295D01*
X67932381Y-75785295D02*
X67932381Y-75880533D01*
X67932381Y-75880533D02*
X67884762Y-76023390D01*
X67884762Y-76023390D02*
X67313334Y-76594819D01*
X67313334Y-76594819D02*
X67932381Y-76594819D01*
X68551429Y-75594819D02*
X68646667Y-75594819D01*
X68646667Y-75594819D02*
X68741905Y-75642438D01*
X68741905Y-75642438D02*
X68789524Y-75690057D01*
X68789524Y-75690057D02*
X68837143Y-75785295D01*
X68837143Y-75785295D02*
X68884762Y-75975771D01*
X68884762Y-75975771D02*
X68884762Y-76213866D01*
X68884762Y-76213866D02*
X68837143Y-76404342D01*
X68837143Y-76404342D02*
X68789524Y-76499580D01*
X68789524Y-76499580D02*
X68741905Y-76547200D01*
X68741905Y-76547200D02*
X68646667Y-76594819D01*
X68646667Y-76594819D02*
X68551429Y-76594819D01*
X68551429Y-76594819D02*
X68456191Y-76547200D01*
X68456191Y-76547200D02*
X68408572Y-76499580D01*
X68408572Y-76499580D02*
X68360953Y-76404342D01*
X68360953Y-76404342D02*
X68313334Y-76213866D01*
X68313334Y-76213866D02*
X68313334Y-75975771D01*
X68313334Y-75975771D02*
X68360953Y-75785295D01*
X68360953Y-75785295D02*
X68408572Y-75690057D01*
X68408572Y-75690057D02*
X68456191Y-75642438D01*
X68456191Y-75642438D02*
X68551429Y-75594819D01*
X62718095Y-72444819D02*
X62718095Y-73254342D01*
X62718095Y-73254342D02*
X62765714Y-73349580D01*
X62765714Y-73349580D02*
X62813333Y-73397200D01*
X62813333Y-73397200D02*
X62908571Y-73444819D01*
X62908571Y-73444819D02*
X63099047Y-73444819D01*
X63099047Y-73444819D02*
X63194285Y-73397200D01*
X63194285Y-73397200D02*
X63241904Y-73349580D01*
X63241904Y-73349580D02*
X63289523Y-73254342D01*
X63289523Y-73254342D02*
X63289523Y-72444819D01*
X64289523Y-73444819D02*
X63718095Y-73444819D01*
X64003809Y-73444819D02*
X64003809Y-72444819D01*
X64003809Y-72444819D02*
X63908571Y-72587676D01*
X63908571Y-72587676D02*
X63813333Y-72682914D01*
X63813333Y-72682914D02*
X63718095Y-72730533D01*
D13*
%TO.C,J1*%
X54140000Y-18815000D02*
X54775000Y-18180000D01*
X54140000Y-119780000D02*
X54140000Y-18815000D01*
X54775000Y-18180000D02*
X56680000Y-18180000D01*
X56680000Y-18180000D02*
X56680000Y-119780000D01*
X56680000Y-119780000D02*
X54140000Y-119780000D01*
%TO.C,U2*%
X60780000Y-77815000D02*
X60780000Y-83515000D01*
X60780000Y-77815000D02*
X61780000Y-76815000D01*
X60780000Y-83515000D02*
X64480000Y-83515000D01*
X61780000Y-76815000D02*
X64480000Y-76815000D01*
X64480000Y-76815000D02*
X64480000Y-83515000D01*
%TO.C,C5*%
X63520000Y-30075000D02*
X65520000Y-30075000D01*
X65520000Y-31325000D01*
X63520000Y-31325000D01*
X63520000Y-30075000D01*
%TO.C,J2*%
X58730000Y-18825000D02*
X59365000Y-18190000D01*
X58730000Y-68990000D02*
X58730000Y-18825000D01*
X59365000Y-18190000D02*
X61270000Y-18190000D01*
X61270000Y-18190000D02*
X61270000Y-68990000D01*
X61270000Y-68990000D02*
X58730000Y-68990000D01*
%TO.C,C1*%
X63520000Y-18035000D02*
X65520000Y-18035000D01*
X65520000Y-19285000D01*
X63520000Y-19285000D01*
X63520000Y-18035000D01*
%TO.C,C4*%
X63520000Y-27065000D02*
X65520000Y-27065000D01*
X65520000Y-28315000D01*
X63520000Y-28315000D01*
X63520000Y-27065000D01*
%TO.C,C3*%
X63520000Y-24055000D02*
X65520000Y-24055000D01*
X65520000Y-25305000D01*
X63520000Y-25305000D01*
X63520000Y-24055000D01*
%TO.C,C2*%
X63520000Y-21045000D02*
X65520000Y-21045000D01*
X65520000Y-22295000D01*
X63520000Y-22295000D01*
X63520000Y-21045000D01*
%TO.C,U1*%
X58480000Y-72060000D02*
X68480000Y-72060000D01*
X61630000Y-70790000D02*
X61630000Y-72060000D01*
X65330000Y-70790000D02*
X65330000Y-72060000D01*
X58480000Y-70790000D02*
X68480000Y-70790000D01*
X68480000Y-75190000D01*
X58480000Y-75190000D01*
X58480000Y-70790000D01*
%TD*%
M02*
