M48
; DRILL file {KiCad 9.0.7} date 2026-03-09T09:39:05+0530
; FORMAT={-:-/ absolute / metric / decimal}
; #@! TF.CreationDate,2026-03-09T09:39:05+05:30
; #@! TF.GenerationSoftware,Kicad,Pcbnew,9.0.7
; #@! TF.FileFunction,MixedPlating,1,2
FMAT,2
METRIC
; #@! TA.AperFunction,Plated,PTH,ComponentDrill
T1C1.000
; #@! TA.AperFunction,Plated,PTH,ComponentDrill
T2C1.100
%
G90
G05
T1
X55.41Y-19.45
X55.41Y-21.99
X55.41Y-24.53
X55.41Y-27.07
X55.41Y-29.61
X55.41Y-32.15
X55.41Y-34.69
X55.41Y-37.23
X55.41Y-39.77
X55.41Y-42.31
X55.41Y-44.85
X55.41Y-47.39
X55.41Y-49.93
X55.41Y-52.47
X55.41Y-55.01
X55.41Y-57.55
X55.41Y-60.09
X55.41Y-62.63
X55.41Y-65.17
X55.41Y-67.71
X55.41Y-70.25
X55.41Y-72.79
X55.41Y-75.33
X55.41Y-77.87
X55.41Y-80.41
X55.41Y-82.95
X55.41Y-85.49
X55.41Y-88.03
X55.41Y-90.57
X55.41Y-93.11
X55.41Y-95.65
X55.41Y-98.19
X55.41Y-100.73
X55.41Y-103.27
X55.41Y-105.81
X55.41Y-108.35
X55.41Y-110.89
X55.41Y-113.43
X55.41Y-115.97
X55.41Y-118.51
X60.0Y-19.46
X60.0Y-22.0
X60.0Y-24.54
X60.0Y-27.08
X60.0Y-29.62
X60.0Y-32.16
X60.0Y-34.7
X60.0Y-37.24
X60.0Y-39.78
X60.0Y-42.32
X60.0Y-44.86
X60.0Y-47.4
X60.0Y-49.94
X60.0Y-52.48
X60.0Y-55.02
X60.0Y-57.56
X60.0Y-60.1
X60.0Y-62.64
X60.0Y-65.18
X60.0Y-67.72
T2
X60.94Y-73.94
X63.48Y-73.94
X66.02Y-73.94
M30
