%TF.GenerationSoftware,KiCad,Pcbnew,9.0.7*%
%TF.CreationDate,2026-03-09T09:38:49+05:30*%
%TF.ProjectId,AI_Jammer_Hardware,41495f4a-616d-46d6-9572-5f4861726477,rev?*%
%TF.SameCoordinates,Original*%
%TF.FileFunction,Copper,L1,Top*%
%TF.FilePolarity,Positive*%
%FSLAX46Y46*%
G04 Gerber Fmt 4.6, Leading zero omitted, Abs format (unit mm)*
G04 Created by KiCad (PCBNEW 9.0.7) date 2026-03-09 09:38:49*
%MOMM*%
%LPD*%
G01*
G04 APERTURE LIST*
G04 Aperture macros list*
%AMRoundRect*
0 Rectangle with rounded corners*
0 $1 Rounding radius*
0 $2 $3 $4 $5 $6 $7 $8 $9 X,Y pos of 4 corners*
0 Add a 4 corners polygon primitive as box body*
4,1,4,$2,$3,$4,$5,$6,$7,$8,$9,$2,$3,0*
0 Add four circle primitives for the rounded corners*
1,1,$1+$1,$2,$3*
1,1,$1+$1,$4,$5*
1,1,$1+$1,$6,$7*
1,1,$1+$1,$8,$9*
0 Add four rect primitives between the rounded corners*
20,1,$1+$1,$2,$3,$4,$5,0*
20,1,$1+$1,$4,$5,$6,$7,0*
20,1,$1+$1,$6,$7,$8,$9,0*
20,1,$1+$1,$8,$9,$2,$3,0*%
G04 Aperture macros list end*
%TA.AperFunction,ComponentPad*%
%ADD10R,1.700000X1.700000*%
%TD*%
%TA.AperFunction,ComponentPad*%
%ADD11C,1.700000*%
%TD*%
%TA.AperFunction,SMDPad,CuDef*%
%ADD12RoundRect,0.375000X-0.625000X-0.375000X0.625000X-0.375000X0.625000X0.375000X-0.625000X0.375000X0*%
%TD*%
%TA.AperFunction,SMDPad,CuDef*%
%ADD13RoundRect,0.500000X-0.500000X-1.400000X0.500000X-1.400000X0.500000X1.400000X-0.500000X1.400000X0*%
%TD*%
%TA.AperFunction,SMDPad,CuDef*%
%ADD14RoundRect,0.250000X-0.250000X-0.475000X0.250000X-0.475000X0.250000X0.475000X-0.250000X0.475000X0*%
%TD*%
%TA.AperFunction,ComponentPad*%
%ADD15R,1.905000X2.000000*%
%TD*%
%TA.AperFunction,ComponentPad*%
%ADD16O,1.905000X2.000000*%
%TD*%
G04 APERTURE END LIST*
D10*
%TO.P,J1,1*%
%TO.N,N/C*%
X55410000Y-19450000D03*
D11*
%TO.P,J1,2*%
%TO.N,5V*%
X55410000Y-21990000D03*
%TO.P,J1,3*%
%TO.N,N/C*%
X55410000Y-24530000D03*
%TO.P,J1,4*%
%TO.N,5V*%
X55410000Y-27070000D03*
%TO.P,J1,5*%
%TO.N,N/C*%
X55410000Y-29610000D03*
%TO.P,J1,6*%
%TO.N,GND*%
X55410000Y-32150000D03*
%TO.P,J1,7*%
%TO.N,N/C*%
X55410000Y-34690000D03*
%TO.P,J1,8*%
X55410000Y-37230000D03*
%TO.P,J1,9*%
%TO.N,GND*%
X55410000Y-39770000D03*
%TO.P,J1,10*%
%TO.N,N/C*%
X55410000Y-42310000D03*
%TO.P,J1,11*%
X55410000Y-44850000D03*
%TO.P,J1,12*%
X55410000Y-47390000D03*
%TO.P,J1,13*%
X55410000Y-49930000D03*
%TO.P,J1,14*%
%TO.N,GND*%
X55410000Y-52470000D03*
%TO.P,J1,15*%
%TO.N,N/C*%
X55410000Y-55010000D03*
%TO.P,J1,16*%
X55410000Y-57550000D03*
%TO.P,J1,17*%
X55410000Y-60090000D03*
%TO.P,J1,18*%
X55410000Y-62630000D03*
%TO.P,J1,19*%
X55410000Y-65170000D03*
%TO.P,J1,20*%
%TO.N,GND*%
X55410000Y-67710000D03*
%TO.P,J1,21*%
%TO.N,N/C*%
X55410000Y-70250000D03*
%TO.P,J1,22*%
X55410000Y-72790000D03*
%TO.P,J1,23*%
X55410000Y-75330000D03*
%TO.P,J1,24*%
X55410000Y-77870000D03*
%TO.P,J1,25*%
%TO.N,GND*%
X55410000Y-80410000D03*
%TO.P,J1,26*%
%TO.N,N/C*%
X55410000Y-82950000D03*
%TO.P,J1,27*%
X55410000Y-85490000D03*
%TO.P,J1,28*%
X55410000Y-88030000D03*
%TO.P,J1,29*%
X55410000Y-90570000D03*
%TO.P,J1,30*%
%TO.N,GND*%
X55410000Y-93110000D03*
%TO.P,J1,31*%
%TO.N,N/C*%
X55410000Y-95650000D03*
%TO.P,J1,32*%
X55410000Y-98190000D03*
%TO.P,J1,33*%
X55410000Y-100730000D03*
%TO.P,J1,34*%
%TO.N,GND*%
X55410000Y-103270000D03*
%TO.P,J1,35*%
%TO.N,N/C*%
X55410000Y-105810000D03*
%TO.P,J1,36*%
X55410000Y-108350000D03*
%TO.P,J1,37*%
X55410000Y-110890000D03*
%TO.P,J1,38*%
X55410000Y-113430000D03*
%TO.P,J1,39*%
%TO.N,GND*%
X55410000Y-115970000D03*
%TO.P,J1,40*%
%TO.N,N/C*%
X55410000Y-118510000D03*
%TD*%
D12*
%TO.P,U2,1*%
%TO.N,GND*%
X59480000Y-77865000D03*
%TO.P,U2,2*%
%TO.N,N/C*%
X59480000Y-80165000D03*
D13*
X65780000Y-80165000D03*
D12*
%TO.P,U2,3*%
%TO.N,5V*%
X59480000Y-82465000D03*
%TD*%
D14*
%TO.P,C5,1*%
%TO.N,3V3*%
X63570000Y-30700000D03*
%TO.P,C5,2*%
%TO.N,GND*%
X65470000Y-30700000D03*
%TD*%
D10*
%TO.P,J2,1*%
%TO.N,3V3*%
X60000000Y-19460000D03*
D11*
%TO.P,J2,2*%
%TO.N,GND*%
X60000000Y-22000000D03*
%TO.P,J2,3*%
%TO.N,N$1*%
X60000000Y-24540000D03*
%TO.P,J2,4*%
%TO.N,N$2*%
X60000000Y-27080000D03*
%TO.P,J2,5*%
%TO.N,N/C*%
X60000000Y-29620000D03*
%TO.P,J2,6*%
X60000000Y-32160000D03*
%TO.P,J2,7*%
X60000000Y-34700000D03*
%TO.P,J2,8*%
X60000000Y-37240000D03*
%TO.P,J2,9*%
X60000000Y-39780000D03*
%TO.P,J2,10*%
X60000000Y-42320000D03*
%TO.P,J2,11*%
X60000000Y-44860000D03*
%TO.P,J2,12*%
X60000000Y-47400000D03*
%TO.P,J2,13*%
X60000000Y-49940000D03*
%TO.P,J2,14*%
X60000000Y-52480000D03*
%TO.P,J2,15*%
X60000000Y-55020000D03*
%TO.P,J2,16*%
X60000000Y-57560000D03*
%TO.P,J2,17*%
X60000000Y-60100000D03*
%TO.P,J2,18*%
X60000000Y-62640000D03*
%TO.P,J2,19*%
X60000000Y-65180000D03*
%TO.P,J2,20*%
X60000000Y-67720000D03*
%TD*%
D14*
%TO.P,C1,1*%
%TO.N,3V3*%
X63570000Y-18660000D03*
%TO.P,C1,2*%
%TO.N,GND*%
X65470000Y-18660000D03*
%TD*%
%TO.P,C4,1*%
%TO.N,3V3*%
X63570000Y-27690000D03*
%TO.P,C4,2*%
%TO.N,GND*%
X65470000Y-27690000D03*
%TD*%
%TO.P,C3,1*%
%TO.N,3V3*%
X63570000Y-24680000D03*
%TO.P,C3,2*%
%TO.N,GND*%
X65470000Y-24680000D03*
%TD*%
%TO.P,C2,1*%
%TO.N,3V3*%
X63570000Y-21670000D03*
%TO.P,C2,2*%
%TO.N,GND*%
X65470000Y-21670000D03*
%TD*%
D15*
%TO.P,U1,1*%
%TO.N,N/C*%
X60940000Y-73940000D03*
D16*
%TO.P,U1,2*%
X63480000Y-73940000D03*
%TO.P,U1,3*%
X66020000Y-73940000D03*
%TD*%
M02*
